<?xml version="1.0" encoding="UTF-8"?>
<!DOCTYPE svg PUBLIC "-//W3C//DTD SVG 1.1//EN" "http://www.w3.org/Graphics/SVG/1.1/DTD/svg11.dtd">
<!-- Creator: CorelDRAW 2020 (64-Bit) -->
<svg xmlns="http://www.w3.org/2000/svg" xml:space="preserve" width="1920px" height="850px" version="1.1" style="shape-rendering:geometricPrecision; text-rendering:geometricPrecision; image-rendering:optimizeQuality; fill-rule:evenodd; clip-rule:evenodd"
viewBox="0 0 1920000 850000"
 xmlns:xlink="http://www.w3.org/1999/xlink"
 xmlns:xodm="http://www.corel.com/coreldraw/odm/2003">
 <defs>
  <style type="text/css">
   <![CDATA[
    .fil0 {fill:url(#id0)}
    .fil2 {fill:url(#id1)}
    .fil1 {fill:url(#id2)}
   ]]>
  </style>
  <linearGradient id="id0" gradientUnits="userSpaceOnUse" x1="960000" y1="0" x2="960000" y2="773440">
   <stop offset="0" style="stop-opacity:1; stop-color:#F4F7FB"/>
   <stop offset="1" style="stop-opacity:1; stop-color:#F2F6FB"/>
  </linearGradient>
  <linearGradient id="id1" gradientUnits="userSpaceOnUse" x1="493110" y1="850000" x2="493110" y2="0">
   <stop offset="0" style="stop-opacity:1; stop-color:#DDE6F3"/>
   <stop offset="1" style="stop-opacity:1; stop-color:#E2E9F4"/>
  </linearGradient>
  <linearGradient id="id2" gradientUnits="userSpaceOnUse" x1="620400" y1="-19570" x2="901060" y2="831680">
   <stop offset="0" style="stop-opacity:1; stop-color:#EAF0F8"/>
   <stop offset="1" style="stop-opacity:1; stop-color:#E6EDF7"/>
  </linearGradient>
 </defs>
 <g id="Layer_x0020_1">
  <metadata id="CorelCorpID_0Corel-Layer"/>
  <g id="_2177140760640">
   <path class="fil0" d="M0 773440c408520,0 817040,0 1225560,0 76990,-610 77690,-12580 82940,-79100 40020,-291990 298540,-517300 611500,-517300l0 -177040 -1920000 0 0 773440z"/>
   <path class="fil1" d="M0 0l1521460 0c-291870,100070 -500940,512740 -500940,685810 0,49240 160,78360 460,95480 -750,21230 -9060,30670 -33610,30820l-987370 0 0 -812110z"/>
   <path class="fil2" d="M0 0l986220 0c-121020,174730 -198830,446070 -198830,751770 0,12860 1590,41630 440,65740 -1080,22820 -8100,32490 -36900,32490l-750930 0 0 -850000z"/>
  </g>
 </g>
</svg>
