<?xml version="1.0" encoding="UTF-8"?>
<!DOCTYPE svg PUBLIC "-//W3C//DTD SVG 1.1//EN" "http://www.w3.org/Graphics/SVG/1.1/DTD/svg11.dtd">
<!-- Creator: CorelDRAW 2020 (64-Bit) -->
<svg xmlns="http://www.w3.org/2000/svg" xml:space="preserve" width="500px" height="600px" version="1.1" style="shape-rendering:geometricPrecision; text-rendering:geometricPrecision; image-rendering:optimizeQuality; fill-rule:evenodd; clip-rule:evenodd"
viewBox="0 0 500000 600000"
 xmlns:xlink="http://www.w3.org/1999/xlink"
 xmlns:xodm="http://www.corel.com/coreldraw/odm/2003">
 <defs>
  <style type="text/css">
   <![CDATA[
    .str20 {stroke:#414D54;stroke-width:1540;stroke-miterlimit:2.61313}
    .str21 {stroke:#414D54;stroke-width:1540;stroke-miterlimit:2.61313}
    .str23 {stroke:#414D54;stroke-width:1540;stroke-miterlimit:2.61313}
    .str22 {stroke:#414D54;stroke-width:1550;stroke-miterlimit:2.61313}
    .str6 {stroke:#414D54;stroke-width:1550;stroke-miterlimit:2.61313}
    .str7 {stroke:#414D54;stroke-width:1560;stroke-miterlimit:2.61313}
    .str13 {stroke:#414D54;stroke-width:4000;stroke-miterlimit:2.61313}
    .str26 {stroke:#F6F6F6;stroke-width:1000;stroke-miterlimit:2.61313}
    .str19 {stroke:#414D54;stroke-width:1330;stroke-miterlimit:2.61313}
    .str18 {stroke:#414D54;stroke-width:1340;stroke-miterlimit:2.61313}
    .str14 {stroke:#414D54;stroke-width:1350;stroke-miterlimit:2.61313}
    .str12 {stroke:#253138;stroke-width:1350;stroke-miterlimit:2.61313}
    .str10 {stroke:#414D54;stroke-width:1350;stroke-miterlimit:2.61313}
    .str11 {stroke:#999999;stroke-width:1350;stroke-miterlimit:2.61313}
    .str15 {stroke:#414D54;stroke-width:1350;stroke-miterlimit:2.61313}
    .str16 {stroke:#414D54;stroke-width:1350;stroke-miterlimit:2.61313}
    .str3 {stroke:#117048;stroke-width:170;stroke-miterlimit:2.61313}
    .str5 {stroke:#168658;stroke-width:170;stroke-miterlimit:2.61313}
    .str4 {stroke:#168658;stroke-width:170;stroke-miterlimit:2.61313}
    .str8 {stroke:white;stroke-width:190;stroke-miterlimit:2.61313}
    .str0 {stroke:#117048;stroke-width:190;stroke-miterlimit:2.61313}
    .str1 {stroke:#168658;stroke-width:190;stroke-miterlimit:2.61313}
    .str2 {stroke:#CCCCCC;stroke-width:190;stroke-miterlimit:2.61313}
    .str9 {stroke:#B3B3B3;stroke-width:210;stroke-miterlimit:2.61313}
    .str24 {stroke:#414D54;stroke-width:1550;stroke-linecap:round;stroke-linejoin:round;stroke-miterlimit:2.61313}
    .str17 {stroke:#253138;stroke-width:1350;stroke-linecap:round;stroke-linejoin:round;stroke-miterlimit:2.61313}
    .str25 {stroke:#414D54;stroke-width:170;stroke-linecap:round;stroke-linejoin:round;stroke-miterlimit:2.61313}
    .fil14 {fill:none}
    .fil6 {fill:#117048}
    .fil7 {fill:#168658}
    .fil20 {fill:#253138}
    .fil18 {fill:#414D54}
    .fil11 {fill:#666666}
    .fil17 {fill:gray}
    .fil13 {fill:#A3C2FF}
    .fil16 {fill:#B3B3B3}
    .fil9 {fill:#BABABA}
    .fil2 {fill:#C6F2F2}
    .fil4 {fill:#C6F2F2}
    .fil5 {fill:#CCCCCC}
    .fil0 {fill:#CEDAED}
    .fil1 {fill:#E1FAFA}
    .fil19 {fill:#F6F6F6}
    .fil3 {fill:white}
    .fil21 {fill:#117048;fill-rule:nonzero}
    .fil22 {fill:#168658;fill-rule:nonzero}
    .fil12 {fill:#414D54;fill-rule:nonzero}
    .fil8 {fill:#999999;fill-rule:nonzero}
    .fil10 {fill:#CCCCCC;fill-rule:nonzero}
    .fil15 {fill:white;fill-rule:nonzero}
   ]]>
  </style>
    <mask id="id0">
  <linearGradient id="id1" gradientUnits="userSpaceOnUse" x1="0" y1="0" x2="10" y2="202270">
   <stop offset="0" style="stop-opacity:0; stop-color:white"/>
   <stop offset="1" style="stop-opacity:1; stop-color:white"/>
  </linearGradient>
     <rect style="fill:url(#id1)" width="500000" height="404530"/>
    </mask>
    <mask id="id2">
  <linearGradient id="id3" gradientUnits="userSpaceOnUse" x1="0" y1="404530" x2="0" y2="600000">
   <stop offset="0" style="stop-opacity:1; stop-color:white"/>
   <stop offset="1" style="stop-opacity:0; stop-color:white"/>
  </linearGradient>
     <rect style="fill:url(#id3)" y="378210" width="500000" height="221790"/>
    </mask>
    <mask id="id4">
  <linearGradient id="id5" gradientUnits="userSpaceOnUse" x1="-2410" y1="602410" x2="-2410" y2="402660">
   <stop offset="0" style="stop-opacity:0; stop-color:white"/>
   <stop offset="1" style="stop-opacity:1; stop-color:white"/>
  </linearGradient>
     <rect style="fill:url(#id5)" y="377990" width="500000" height="222010"/>
    </mask>
    <mask id="id6">
  <linearGradient id="id7" gradientUnits="userSpaceOnUse" x1="350" y1="580670" x2="1070" y2="382020">
   <stop offset="0" style="stop-opacity:0; stop-color:white"/>
   <stop offset="1" style="stop-opacity:1; stop-color:white"/>
  </linearGradient>
     <rect style="fill:url(#id7)" y="380200" width="500000" height="219800"/>
    </mask>
    <clipPath id="id8">
     <path d="M64720 398180c-2040,-5500 -4080,-10990 -6120,-16490 -680,-2790 720,-3840 2880,-4250 29020,-1210 58030,-1050 87040,0 2330,140 3740,1050 3230,3570 -1550,5940 -3720,11570 -6630,16830 -940,1270 -2340,2190 -4250,2720 -11290,2530 -23440,3710 -35870,4420 -12770,-590 -24740,-2340 -36710,-4080 -1690,-470 -2910,-1340 -3570,-2720z"/>
    </clipPath>
 </defs>
 <g id="Layer_x0020_1">
  <metadata id="CorelCorpID_0Corel-Layer"/>
  <g id="_2141288252816">
   <polygon class="fil0" style="mask:url(#id0)" points="0,0 500000,0 500000,404530 0,404530 "/>
   <g>
    <path class="fil1" d="M12740 279400c86540,740 173090,1480 259640,2220 28120,-470 28810,-43020 2000,-43170 1690,-9720 -18690,-15770 -22650,-4340 4700,-14700 -10600,-25780 -21680,-21680 6140,-28250 -23640,-47490 -48180,-39030 7940,-13210 -3840,-27760 -22170,-23130 3980,-3900 360,-11040 -4340,-10600 1460,-5830 -10120,-12540 -14930,-6270 -11790,-20650 -52680,-7480 -46260,17350 -5130,-8420 -16690,-4210 -14940,3860 -17450,-9400 -32050,8800 -25050,25050 -7140,-2380 -11390,4390 -8050,10200 -22370,-5060 -38020,19220 -22320,35770 -7950,-930 -18190,6870 -23810,17090l0 27430c2690,3600 6820,6790 12740,9250z"/>
    <path class="fil2" d="M179250 283180c86550,740 173100,1480 259640,2220 28120,-470 28820,-43030 2010,-43170 1690,-9720 -18690,-15770 -22650,-4340 4700,-14700 -10600,-25780 -21680,-21680 6130,-28250 -23650,-47490 -48190,-39030 7950,-13210 -3830,-27760 -22160,-23130 3970,-3900 360,-11040 -4340,-10600 1460,-5830 -10120,-12540 -14940,-6270 -11790,-20650 -52670,-7480 -46250,17350 -5130,-8420 -16700,-4220 -14940,3860 -17450,-9400 -32050,8800 -25060,25050 -7140,-2380 -11390,4390 -8040,10200 -22370,-5060 -38020,19220 -22320,35770 -17670,-2070 -46650,38980 -11080,53770z"/>
    <path class="fil1" d="M297710 320490l202290 1730 0 -103650c-9500,-6000 -21880,-7970 -33160,-4080 7940,-13210 -3840,-27760 -22170,-23130 3980,-3900 360,-11040 -4330,-10600 1450,-5830 -10130,-12540 -14940,-6270 -11790,-20650 -52680,-7480 -46260,17350 -5130,-8420 -16690,-4210 -14940,3860 -17450,-9400 -32050,8800 -25050,25050 -7140,-2380 -11390,4390 -8050,10200 -22370,-5060 -38020,19220 -22320,35770 -17660,-2070 -46650,38980 -11070,53770z"/>
    <path class="fil3" d="M97260 377350c86550,740 173100,1480 259640,2220 28120,-470 28810,-43030 2000,-43170 1700,-9720 -18680,-15770 -22640,-4340 4690,-14700 -10600,-25780 -21690,-21680 6140,-28250 -23640,-47490 -48180,-39030 7940,-13210 -3830,-27760 -22170,-23130 3980,-3900 370,-11040 -4330,-10600 1460,-5830 -10130,-12540 -14940,-6270 -11790,-20650 -52670,-7480 -46260,17350 -5120,-8420 -16690,-4220 -14930,3850 -17450,-9390 -32050,8810 -25060,25060 -7140,-2380 -11390,4390 -8050,10190 -22370,-5050 -38010,19230 -22310,35780 -17670,-2070 -46660,38980 -11080,53770z"/>
    <path class="fil4" d="M0 380180l209940 1800c28120,-470 28810,-43030 2000,-43180 1690,-9710 -18690,-15770 -22650,-4330 4700,-14700 -10600,-25780 -21680,-21690 6140,-28240 -23640,-47480 -48180,-39030 7940,-13200 -3840,-27750 -22170,-23120 3980,-3900 360,-11050 -4330,-10600 1450,-5830 -10130,-12540 -14940,-6270 -11790,-20650 -52680,-7480 -46260,17350 -5130,-8420 -16690,-4220 -14940,3850 -6250,-3360 -12130,-3180 -16790,-820l0 126040z"/>
   </g>
   <polygon class="fil5" style="mask:url(#id2)" points="500000,600000 0,600000 0,378210 500000,378210 "/>
   <g>
    <path class="fil6 str0" d="M469300 417740c-440,-1050 -230,-3070 -1470,-5100 -800,-1600 -1470,-3420 -2590,-4480 -2010,1980 -1280,3440 -2100,5480 -1670,3270 -400,5720 -1800,10360 -500,1850 -1700,4440 -1810,7870 -90,3130 420,8290 1440,10350 3540,-60 7080,-110 10620,-170 2770,-5060 1540,-8640 1130,-10380 -460,-2080 380,-3250 -920,-5290 -540,-1110 780,-3290 -810,-6340 -590,-1100 -1100,-1200 -1690,-2300z"/>
    <path class="fil7 str1" d="M468500 417480c-750,-1080 -2100,-2270 -3340,-4290 -800,-1600 670,-3610 80,-5030 -2010,1980 -1280,3440 -2100,5480 -1670,3270 -400,5720 -1800,10360 -500,1850 -1700,4440 -1810,7870 -70,2530 250,6370 910,8850 1420,1480 9710,450 10190,-440 1440,-2360 1860,-6910 400,-8970 -2610,-1980 -4280,-3270 -3990,-3560 290,-270 4520,680 4300,-600 -380,-780 -4720,-5310 -4140,-6710 270,-640 470,-760 1540,-720 980,-10 410,-1360 -240,-2240z"/>
   </g>
   <path class="fil8" style="mask:url(#id4)" d="M2260 484440c-360,970 -1280,1580 -2260,1580l0 -9360 35810 -97090c460,-1250 1840,-1890 3090,-1430 1250,450 1890,1830 1430,3080l-38070 103220zm497740 -16000l0 4820 0 0 -295800 0c-1100,0 -2030,-740 -2320,-1750l-31530 -88930c-450,-1250 210,-2630 1460,-3070 1260,-440 2630,220 3070,1470l31020 87460 294100 0 0 0zm0 60710l0 4820 0 0 -270860 0 23130 65230c90,270 130,540 130,800l-4950 0 -23990 -67640c-440,-1250 220,-2620 1470,-3060 270,-100 530,-140 800,-140l0 -10 274270 0 0 0z"/>
   <ellipse class="fil5 str2" cx="332780" cy="440500" rx="131020" ry="13010"/>
   <path class="fil9" d="M427540 369770c26800,0 51710,800 72460,2170l0 21680c-20750,1370 -45660,2170 -72460,2170 -72360,0 -131020,-5820 -131020,-13010 0,-7180 58660,-13010 131020,-13010z"/>
   <path class="fil10" d="M427540 369680c26790,0 51710,790 72460,2170l0 190c-20750,-1370 -45660,-2170 -72460,-2170 -36180,0 -68930,1450 -92640,3810 -23650,2350 -38280,5570 -38280,9100 0,3540 14630,6760 38290,9110 23700,2350 56460,3810 92630,3810 26800,0 51710,-800 72460,-2170l0 190c-20750,1370 -45670,2170 -72460,2170 -36180,0 -68940,-1460 -92650,-3810 -23770,-2360 -38460,-5650 -38460,-9300 0,-3650 14690,-6930 38460,-9290 23710,-2360 56470,-3810 92650,-3810z"/>
   <g>
    <path class="fil6 str3" d="M170560 375900c-1390,1960 -1460,3920 -690,5880 7920,0 15840,0 23750,0 340,-2260 640,-4510 -1120,-6510 1680,-3730 -1860,-9440 -6110,-8760 -2200,-1400 -4400,-1590 -6610,-820 -2480,-1230 -4100,-810 -4920,1130 -2770,210 -3920,1670 -4110,3880 -1350,1490 -1510,3200 -190,5200z"/>
    <path class="fil7 str1" d="M181390 371460c-1380,-1010 -1510,-1920 -960,-2770 590,-1170 1850,-1440 3730,-840 4800,-320 4970,3120 5060,6620 890,1330 400,2570 -1200,3740 -1880,-50 -3430,-720 -4340,-2530 -1370,-1080 -2530,-2260 -2290,-4220z"/>
   </g>
   <g>
    <path class="fil7 str4" d="M180500 386020c-1560,2190 -1630,4380 -770,6560 8820,0 17650,0 26470,0 380,-2510 720,-5020 -1250,-7250 1880,-4160 -2070,-10530 -6810,-9770 -2450,-1560 -4910,-1770 -7360,-910 -2770,-1370 -4580,-900 -5490,1260 -3090,230 -4370,1860 -4590,4320 -1490,1660 -1670,3570 -200,5790z"/>
    <path class="fil6 str0" d="M192570 381080c-1550,-1130 -1680,-2140 -1080,-3090 670,-1300 2070,-1600 4160,-940 5360,-350 5540,3480 5640,7390 990,1480 450,2860 -1340,4160 -2090,-60 -3810,-800 -4830,-2820 -1530,-1200 -2820,-2520 -2550,-4700z"/>
   </g>
   <g>
    <path class="fil7 str5" d="M21230 376180c-1390,1960 -1450,3920 -680,5890 7910,0 15830,0 23740,0 340,-2260 650,-4510 -1120,-6510 1680,-3740 -1860,-9450 -6110,-8770 -2200,-1400 -4400,-1580 -6610,-810 -2480,-1240 -4100,-810 -4920,1120 -2770,210 -3920,1680 -4110,3890 -1350,1490 -1510,3200 -190,5190z"/>
    <path class="fil6 str0" d="M32060 371750c-1380,-1020 -1500,-1920 -960,-2770 590,-1180 1850,-1440 3730,-850 4800,-310 4970,3130 5060,6630 890,1330 400,2570 -1200,3730 -1880,-50 -3430,-710 -4340,-2530 -1370,-1070 -2530,-2250 -2290,-4210z"/>
   </g>
   <polygon class="fil11" style="mask:url(#id6)" points="172050,380200 38070,380200 0,483610 0,600000 250000,600000 225730,531560 500000,531560 500000,470850 204200,470850 "/>
   <g>
    <rect class="fil3 str6" x="359150" y="284410" width="105290" height="17490"/>
    <polygon class="fil3" points="314040,301900 500000,301900 500000,326990 314040,326990 "/>
    <polygon class="fil12" points="314040,301130 500000,301130 500000,302670 314820,302670 314820,326220 500000,326220 500000,327770 313270,327770 313270,301130 "/>
    <polygon class="fil3" points="310730,369500 500000,369500 500000,375900 310730,375900 "/>
    <polygon class="fil12" points="310730,368720 500000,368720 500000,370270 311500,370270 311500,375130 500000,375130 500000,376670 309960,376670 309960,368720 "/>
    <polygon class="fil3" points="300530,375900 500000,375900 500000,382300 300530,382300 "/>
    <polygon class="fil12" points="300530,375130 500000,375130 500000,376670 301300,376670 301300,381530 500000,381530 500000,383070 299760,383070 299760,375130 "/>
    <polygon class="fil3" points="290330,382300 500000,382300 500000,388700 290330,388700 "/>
    <polygon class="fil12" points="290330,381530 500000,381530 500000,383070 291100,383070 291100,387930 500000,387930 500000,389470 289560,389470 289560,381530 "/>
    <polygon class="fil3" points="317870,326990 500000,326990 500000,369500 317870,369500 "/>
    <path class="fil12" d="M317870 326220l182130 0 0 44050 -182910 0 0 -44050 780 0zm182020 1550l-181250 0 0 40950 181250 0 0 -40950z"/>
    <rect class="fil3 str6" x="332670" y="292410" width="31610" height="9490"/>
    <rect class="fil3 str6" x="452970" y="292410" width="31610" height="9490"/>
    <rect class="fil13 str6" x="328970" y="281140" width="39010" height="11270"/>
    <rect class="fil13 str6" x="449270" y="281140" width="39010" height="11270"/>
    <polygon class="fil13 str6" points="343670,264350 348320,244780 353280,264450 "/>
    <path class="fil3 str6" d="M331130 281140c0,-9620 7770,-17420 17340,-17420 9580,0 17350,7800 17350,17420l-34690 0z"/>
    <polygon class="fil13 str6" points="463980,264350 468620,244780 473580,264450 "/>
    <path class="fil3 str6" d="M451430 281140c0,-9620 7770,-17420 17350,-17420 9580,0 17340,7800 17340,17420l-34690 0z"/>
    <line class="fil14 str6" x1="348470" y1="281140" x2="348470" y2= "263720" />
    <line class="fil14 str6" x1="468780" y1="281140" x2="468780" y2= "263720" />
    <path class="fil14 str6" d="M340350 281140c-240,-5880 1460,-11580 4950,-17120"/>
    <path class="fil14 str6" d="M460660 281140c-250,-5880 1450,-11580 4940,-17120"/>
    <path class="fil14 str6" d="M351520 263990c4940,5460 7070,11190 6740,17150"/>
    <path class="fil14 str6" d="M471820 263990c4950,5460 7070,11190 6750,17150"/>
    <path class="fil3 str6" d="M382350 243570c0,-14430 11640,-26120 26000,-26120 14370,0 26010,11690 26010,26120l0 14850 -52010 0 0 -14850z"/>
    <rect class="fil13 str6" x="370050" y="254830" width="76610" height="6020"/>
    <rect class="fil3 str6" x="373040" y="260850" width="70620" height="23560"/>
    <line class="fil14 str6" x1="408350" y1="254830" x2="408350" y2= "217450" />
    <path class="fil14 str6" d="M391780 254830c-630,-19300 2890,-30700 14230,-37280"/>
    <path class="fil14 str6" d="M425810 254830c630,-19300 -2890,-30700 -14230,-37280"/>
    <path class="fil13 str6" d="M399250 219090l18780 0 0 -5900c0,-330 -270,-600 -600,-600l-17570 0c-330,0 -610,270 -610,600l0 5900z"/>
    <path class="fil3 str6" d="M402400 212590l12490 0 0 -9780c0,-1170 -960,-2130 -2130,-2130l-8230 0c-1180,0 -2130,960 -2130,2130l0 9780z"/>
    <polygon class="fil13 str6" points="412760,200680 404520,200680 408640,176100 "/>
    <polygon class="fil13 str6" points="443600,326990 372980,326990 408420,308760 "/>
    <rect class="fil13 str6" x="330660" y="326990" width="13260" height="42510"/>
    <rect class="fil13 str6" x="427660" y="326990" width="13260" height="42510"/>
    <rect class="fil13 str6" x="402640" y="326990" width="13260" height="42510"/>
    <rect class="fil13 str6" x="354240" y="326990" width="13260" height="42510"/>
    <rect class="fil13 str6" x="451250" y="326990" width="13260" height="42510"/>
    <rect class="fil13 str6" x="377820" y="326990" width="13260" height="42510"/>
    <rect class="fil13 str6" x="474830" y="326990" width="13260" height="42510"/>
    <g>
     <rect class="fil13 str6" x="381600" y="260850" width="8030" height="23560"/>
     <rect class="fil13 str6" x="396760" y="260850" width="8030" height="23560"/>
     <rect class="fil13 str6" x="411920" y="260850" width="8030" height="23560"/>
     <rect class="fil13 str6" x="427080" y="260850" width="8030" height="23560"/>
    </g>
    <rect class="fil13 str6" x="321560" y="311710" width="4080" height="7040" rx="760" ry="770"/>
    <rect class="fil13 str6" x="372890" y="311710" width="4080" height="7040" rx="760" ry="770"/>
    <rect class="fil13 str6" x="338670" y="311710" width="4080" height="7040" rx="760" ry="770"/>
    <rect class="fil13 str6" x="457680" y="311710" width="4080" height="7040" rx="760" ry="770"/>
    <rect class="fil13 str6" x="355780" y="311710" width="4080" height="7040" rx="760" ry="770"/>
    <rect class="fil13 str6" x="474790" y="311710" width="4080" height="7040" rx="760" ry="770"/>
    <rect class="fil13 str6" x="440570" y="311710" width="4080" height="7040" rx="760" ry="770"/>
    <rect class="fil13 str6" x="491900" y="311710" width="4080" height="7040" rx="760" ry="770"/>
    <g>
     <polygon class="fil12" points="440690,293190 376560,293190 376560,291630 440690,291630 "/>
    </g>
   </g>
   <g id="_2141121001696">
    <g>
     <g>
      <polygon class="fil3" points="184570,131480 135220,125490 131990,152270 181340,158260 "/>
      <path id="1" class="fil12" d="M135310 124720l49350 5990 -190 1540 -49350 -5990 -660 -870 850 -670zm-850 670l90 -760 760 90 -850 670zm-3230 26790l3230 -26790 1520 190 -3230 26790 -850 670 -670 -860zm670 860l-760 -90 90 -770 670 860zm49350 5990l-49350 -5990 180 -1530 49350 5990 670 860 -850 670zm850 -670l-90 770 -760 -100 850 -670zm3230 -26790l-3230 26790 -1520 -190 3220 -26780 860 -680 670 860zm-670 -860l760 90 -90 770 -670 -860z"/>
     </g>
     <polygon class="fil3 str7" points="187670,164580 124350,156890 121120,183680 184440,191370 "/>
     <polygon class="fil3 str7" points="183790,196830 120470,189140 117240,215930 180560,223620 "/>
     <polygon class="fil3 str7" points="179900,229080 116590,221400 113360,248180 176680,255870 "/>
     <polygon class="fil3 str7" points="176020,261340 112700,253650 109480,280440 172800,288120 "/>
     <polygon class="fil3 str7" points="172140,293590 108820,285900 105600,312690 168920,320380 "/>
     <polygon class="fil3 str7" points="168260,325840 104940,318160 101710,344940 165030,352630 "/>
     <polygon class="fil3 str7" points="164380,358100 101060,350410 97830,377190 161150,384880 "/>
    </g>
    <g id="_2141329060928">
     <g>
      <path class="fil13" d="M187480 126290l-53870 -6540c-1250,-160 -2400,740 -2550,2000l-110 910c-150,1250 750,2400 2010,2550l53860 6540c1260,150 2400,-750 2560,-2000l100 -910c160,-1250 -750,-2400 -2000,-2550z"/>
      <path id="1" class="fil12" d="M133710 118980l53870 6540 -190 1540 -53870 -6540 0 0 190 -1540zm-1890 2860l-1520 -190 0 0 30 -150 30 -160 30 -140 50 -150 50 -150 60 -140 60 -130 80 -130 80 -130 80 -120 90 -120 90 -120 100 -110 110 -100 100 -100 120 -90 110 -90 120 -80 130 -80 130 -70 130 -60 140 -60 140 -50 140 -50 150 -30 140 -30 150 -30 150 -10 150 -10 150 0 160 0 160 20 -190 1540 -80 -10 -70 -10 -80 0 -80 10 -70 10 -80 10 -70 10 -70 20 -70 30 -70 20 -70 30 -70 30 -60 40 -60 40 -60 40 -70 40 -50 50 -60 50 -50 50 -50 50 -40 60 -50 60 -40 60 -40 60 -30 70 -30 60 -30 70 -30 70 -20 70 -20 80 -10 70 -20 80 0 0zm-1630 730l110 -920 1520 190 -110 910 0 0 -1520 -180zm2860 1870l-190 1540 0 0 -150 -20 -150 -30 -150 -40 -150 -40 -140 -60 -140 -60 -140 -60 -130 -70 -120 -80 -130 -80 -120 -90 -110 -100 -110 -90 -100 -110 -100 -110 -90 -110 -90 -120 -80 -120 -80 -120 -70 -140 -60 -130 -60 -130 -50 -140 -50 -150 -40 -140 -30 -150 -20 -150 -20 -150 -10 -150 0 -160 10 -160 10 -150 1520 180 0 80 -10 80 10 70 0 80 10 70 10 70 10 80 20 70 20 70 30 60 30 70 30 70 40 60 30 70 50 60 40 60 50 50 40 60 60 50 50 50 60 50 60 40 60 40 60 40 70 40 70 30 60 30 80 30 70 20 70 20 80 10 80 10 0 0zm53680 8080l-53870 -6540 190 -1540 53870 6540 0 0 -190 1540zm1880 -2860l1530 180 0 0 -30 160 -30 160 -40 140 -40 150 -50 140 -60 140 -70 140 -70 130 -80 130 -80 120 -90 120 -90 120 -100 110 -110 100 -100 100 -120 90 -120 90 -120 80 -120 80 -130 70 -130 60 -140 60 -140 50 -140 40 -150 40 -140 30 -150 30 -150 10 -150 10 -150 0 -160 0 -160 -20 190 -1540 80 10 70 10 80 -10 80 0 70 -10 80 -10 70 -20 70 -10 70 -30 70 -20 70 -30 70 -30 60 -40 60 -40 60 -40 60 -40 60 -50 50 -50 60 -50 50 -50 40 -60 50 -60 40 -60 40 -60 30 -70 30 -60 30 -70 30 -70 20 -70 20 -80 10 -70 10 -80 0 0zm1640 -730l-110 910 -1530 -180 110 -910 0 0 1530 180zm-2860 -1870l190 -1540 0 0 150 20 150 30 150 40 150 40 140 60 140 50 130 70 130 70 130 80 130 80 110 90 120 90 100 100 110 100 100 110 90 120 90 120 80 120 80 120 70 140 60 130 60 130 50 140 50 150 40 140 30 150 20 150 20 150 10 150 0 160 -10 160 -10 150 -1530 -180 10 -80 0 -80 0 -70 0 -80 -10 -80 -10 -60 -20 -80 -20 -70 -20 -70 -20 -70 -30 -60 -30 -80 -40 -60 -30 -60 -50 -60 -40 -60 -50 -60 -50 -50 -50 -50 -60 -50 -50 -50 -60 -40 -60 -50 -60 -30 -70 -40 -70 -30 -70 -30 -70 -30 -70 -20 -80 -20 -70 -10 -80 -10 0 0z"/>
     </g>
     <path class="fil13 str7" d="M190600 159390l-67860 -8240c-1250,-150 -2390,750 -2540,2000l-110 910c-150,1260 740,2400 1990,2560l67860 8240c1240,150 2390,-750 2540,-2010l110 -910c150,-1250 -750,-2400 -1990,-2550z"/>
     <path class="fil13 str7" d="M186710 191640l-67850 -8240c-1250,-150 -2390,750 -2540,2000l-110 920c-160,1250 740,2400 1990,2550l67850 8240c1250,150 2400,-750 2550,-2000l110 -920c150,-1250 -750,-2400 -2000,-2550z"/>
     <path class="fil13 str7" d="M182830 223890l-67860 -8230c-1240,-160 -2390,740 -2540,2000l-110 910c-150,1250 750,2400 2000,2550l67850 8240c1250,150 2390,-750 2540,-2000l110 -910c150,-1260 -740,-2400 -1990,-2560z"/>
     <path class="fil13 str7" d="M178950 256150l-67860 -8240c-1240,-150 -2390,750 -2540,2000l-110 910c-150,1250 750,2400 1990,2550l67860 8240c1250,150 2390,-750 2540,-2000l110 -910c150,-1250 -740,-2400 -1990,-2550z"/>
     <path class="fil13 str7" d="M175070 288400l-67860 -8240c-1250,-150 -2390,750 -2540,2000l-110 920c-150,1250 750,2400 1990,2550l67860 8240c1250,150 2390,-750 2540,-2010l110 -910c150,-1250 -750,-2400 -1990,-2550z"/>
     <path class="fil13 str7" d="M171180 320650l-67850 -8240c-1250,-150 -2390,750 -2540,2010l-110 910c-150,1250 740,2400 1990,2550l67860 8240c1240,150 2390,-750 2540,-2000l110 -920c150,-1250 -750,-2400 -2000,-2550z"/>
     <path class="fil13 str7" d="M167300 352910l-67850 -8240c-1250,-160 -2390,750 -2540,2000l-110 910c-160,1250 740,2400 1990,2550l67850 8240c1250,150 2390,-750 2550,-2000l110 -910c150,-1260 -750,-2400 -2000,-2550z"/>
    </g>
    <g>
     <path class="fil13 str7" d="M176170 157640l-5350 -650 2460 -20380c170,-1470 1520,-2530 2990,-2350l0 0c1480,180 2540,1530 2360,3000l-2460 20380z"/>
     <path class="fil13 str7" d="M178740 190670l-5360 -650 2450 -20370c180,-1470 1530,-2530 3000,-2350l0 0c1480,180 2530,1520 2360,3000l-2450 20370z"/>
     <path class="fil13 str7" d="M174850 222930l-5350 -650 2450 -20380c180,-1470 1530,-2530 3000,-2350l0 0c1470,180 2530,1530 2360,3000l-2460 20380z"/>
     <path class="fil13 str7" d="M170970 255180l-5350 -650 2450 -20380c180,-1470 1530,-2530 3000,-2350l0 0c1470,180 2530,1530 2350,3000l-2450 20380z"/>
     <path class="fil13 str7" d="M167090 287430l-5350 -650 2450 -20370c180,-1480 1520,-2530 3000,-2350l0 0c1470,170 2530,1520 2350,3000l-2450 20370z"/>
     <path class="fil13 str7" d="M163210 319680l-5360 -650 2460 -20370c170,-1470 1520,-2530 2990,-2350l10 0c1470,180 2530,1530 2350,3000l-2450 20370z"/>
     <path class="fil13 str7" d="M159320 351940l-5350 -650 2450 -20380c180,-1470 1530,-2530 3000,-2350l0 0c1480,180 2530,1530 2360,3000l-2460 20380z"/>
     <path class="fil13 str7" d="M155440 384190l-5350 -650 2450 -20380c180,-1470 1530,-2530 3000,-2350l0 0c1470,180 2530,1530 2350,3000l-2450 20380z"/>
     <path class="fil13 str7" d="M141300 153400l-5360 -650 2450 -20370c180,-1470 1530,-2530 3000,-2350l0 0c1480,180 2530,1530 2360,3000l-2450 20370z"/>
     <path class="fil13 str7" d="M143860 186440l-5360 -650 2460 -20380c170,-1470 1520,-2530 2990,-2350l0 0c1480,180 2530,1530 2360,3000l-2450 20380z"/>
     <path class="fil13 str7" d="M139970 218690l-5350 -650 2450 -20370c180,-1480 1530,-2530 3000,-2360l0 0c1470,180 2530,1530 2350,3010l-2450 20370z"/>
     <path class="fil13 str7" d="M136090 250940l-5350 -650 2450 -20370c180,-1470 1530,-2530 3000,-2350l0 0c1470,180 2530,1530 2350,3000l-2450 20370z"/>
     <path class="fil13 str7" d="M132210 283200l-5350 -650 2450 -20380c180,-1470 1520,-2530 3000,-2350l0 0c1470,180 2530,1530 2350,3000l-2450 20380z"/>
     <path class="fil13 str7" d="M128330 315450l-5360 -650 2460 -20380c170,-1470 1520,-2530 2990,-2350l10 0c1470,180 2530,1530 2350,3000l-2450 20380z"/>
     <path class="fil13 str7" d="M124440 347700l-5350 -650 2460 -20370c170,-1480 1520,-2530 2990,-2350l0 0c1480,170 2530,1520 2360,3000l-2460 20370z"/>
     <path class="fil13 str7" d="M120560 379950l-5350 -650 2450 -20370c180,-1470 1530,-2530 3000,-2350l0 0c1470,180 2530,1530 2350,3000l-2450 20370z"/>
     <path class="fil13 str7" d="M132060 185010l-5350 -650 2450 -20380c180,-1470 1530,-2530 3000,-2350l0 0c1470,180 2530,1530 2350,3000l-2450 20380z"/>
     <path class="fil13 str7" d="M128180 217260l-5350 -650 2450 -20380c180,-1470 1520,-2530 3000,-2350l0 0c1470,180 2530,1530 2350,3000l-2450 20380z"/>
     <path class="fil13 str7" d="M124300 249510l-5350 -650 2450 -20370c170,-1480 1520,-2530 3000,-2350l0 0c1470,180 2530,1520 2350,3000l-2450 20370z"/>
     <path class="fil13 str7" d="M120420 281760l-5360 -650 2460 -20370c170,-1470 1520,-2530 2990,-2350l10 0c1470,180 2530,1530 2350,3000l-2450 20370z"/>
     <path class="fil13 str7" d="M116530 314020l-5350 -650 2450 -20380c180,-1470 1530,-2530 3000,-2350l0 0c1470,180 2530,1530 2360,3000l-2460 20380z"/>
     <path class="fil13 str7" d="M112650 346270l-5350 -650 2450 -20380c180,-1470 1530,-2530 3000,-2350l0 0c1470,180 2530,1530 2350,3000l-2450 20380z"/>
     <path class="fil13 str7" d="M108770 378520l-5350 -650 2450 -20370c180,-1480 1520,-2530 3000,-2350l0 0c1470,180 2530,1530 2350,3000l-2450 20370z"/>
     <path class="fil13 str7" d="M153090 154830l-5350 -640 2450 -20380c180,-1470 1520,-2530 3000,-2350l0 0c1470,180 2530,1530 2350,3000l-2450 20370z"/>
     <path class="fil13 str7" d="M155650 187870l-5350 -650 2450 -20370c170,-1480 1520,-2530 3000,-2360l0 0c1470,180 2530,1530 2350,3010l-2450 20370z"/>
     <path class="fil13 str7" d="M151770 220120l-5360 -650 2460 -20370c170,-1470 1520,-2530 2990,-2350l0 0c1480,180 2540,1520 2360,3000l-2450 20370z"/>
     <path class="fil13 str7" d="M147880 252380l-5350 -650 2450 -20380c180,-1470 1530,-2530 3000,-2350l0 0c1470,180 2530,1530 2360,3000l-2460 20380z"/>
     <path class="fil13 str7" d="M144000 284630l-5350 -650 2450 -20380c180,-1470 1530,-2530 3000,-2350l0 0c1470,180 2530,1530 2350,3000l-2450 20380z"/>
     <path class="fil13 str7" d="M140120 316880l-5350 -650 2450 -20370c180,-1480 1520,-2530 3000,-2360l0 0c1470,180 2530,1530 2350,3010l-2450 20370z"/>
     <path class="fil13 str7" d="M136240 349130l-5350 -650 2450 -20370c170,-1470 1520,-2530 3000,-2350l0 0c1470,180 2530,1530 2350,3000l-2450 20370z"/>
     <path class="fil13 str7" d="M132360 381390l-5360 -650 2460 -20380c170,-1470 1520,-2530 2990,-2350l0 0c1480,180 2540,1530 2360,3000l-2450 20380z"/>
     <path class="fil13 str7" d="M164880 156270l-5350 -650 2450 -20380c180,-1470 1530,-2530 3000,-2350l0 0c1470,180 2530,1530 2350,3000l-2450 20380z"/>
     <path class="fil13 str7" d="M167440 189300l-5350 -650 2450 -20370c180,-1480 1530,-2530 3000,-2350l0 0c1470,170 2530,1520 2350,3000l-2450 20370z"/>
     <path class="fil13 str7" d="M163560 221550l-5350 -650 2450 -20370c180,-1470 1520,-2530 3000,-2350l0 0c1470,180 2530,1530 2350,3000l-2450 20370z"/>
     <path class="fil13 str7" d="M159680 253810l-5360 -650 2460 -20380c170,-1470 1520,-2530 2990,-2350l10 0c1470,180 2530,1530 2350,3000l-2450 20380z"/>
     <path class="fil13 str7" d="M155790 286060l-5350 -650 2460 -20370c170,-1480 1520,-2530 2990,-2360l0 0c1480,180 2530,1530 2360,3010l-2460 20370z"/>
     <path class="fil13 str7" d="M151910 318310l-5350 -650 2450 -20370c180,-1470 1530,-2530 3000,-2350l0 0c1470,180 2530,1520 2350,3000l-2450 20370z"/>
     <path class="fil13 str7" d="M148030 350570l-5350 -650 2450 -20380c180,-1470 1530,-2530 3000,-2350l0 0c1470,180 2530,1530 2350,3000l-2450 20380z"/>
     <path class="fil13 str7" d="M144150 382820l-5350 -650 2450 -20380c180,-1470 1520,-2530 3000,-2350l0 0c1470,180 2530,1530 2350,3000l-2450 20380z"/>
    </g>
   </g>
   <g>
    <path class="fil3" d="M94960 577780c2440,0 4870,0 7310,0 2440,0 4870,0 7310,0 0,7410 0,14810 0,22220l-120 0 -120 0 -120 0 -120 0 -120 0 -120 0 -120 0 -120 0 -120 0 -130 0 -120 0 -120 0 -120 0 -120 0 -120 0 -120 0 -120 0 -120 0 -120 0 -120 0 -120 0 -120 0 -120 0 -120 0 -120 0 -120 0 -120 0 -120 0 -120 0 -120 0 -130 0 -120 0 -120 0 -120 0 -120 0 -120 0 -120 0 -120 0 -120 0 -120 0 -120 0 -120 0 -120 0 -120 0 -120 0 -120 0 -120 0 -120 0 -120 0 -130 0 -120 0 -120 0 -120 0 -120 0 -120 0 -120 0 -120 0 -120 0 -120 0 -120 0 -120 0 -120 0 -120 0 -120 0 -120 0 -120 0 -120 0 -120 0 -120 0 -120 0 -120 0 -120 0 -130 0 -120 0 -120 0 -120 0 -120 0 -120 0 -120 0 -120 0 -120 0 -120 0 -120 0 -120 0 -120 0 -120 0 -120 0 -120 0 -120 0 -120 0 -120 0 -120 0 -120 0 -120 0 -120 0 -120 0 -130 0 -120 0 -120 0 -120 0 -120 0 -120 0 -120 0 -120 0 -120 0 -120 0 -120 0 -120 0 -120 0 -120 0 -120 0 -120 0 -120 0 -120 0 -120 0 -120 0 -120 0 -130 0 -120 0 -120 0 -120 0 -120 0 -120 0 -120 0 -120 0 -120 0 -120 0 -120 0c270,-7410 540,-14810 800,-22220z"/>
    <path class="fil15" d="M94960 577680l14720 0 0 22320 -15610 0c250,-7440 530,-14880 800,-22320l90 0zm7310 190l-7210 0 -800 22040 15220 0 0 -22040 -7210 0z"/>
    <path class="fil3 str8" d="M96210 543250c2220,0 4450,0 6680,0 2230,0 4460,0 6690,0 0,7410 0,14820 0,22230 -2360,0 -4730,0 -7090,0 -2360,0 -4720,0 -7080,0 260,-7410 530,-14820 800,-22230z"/>
    <path class="fil3 str8" d="M97450 508720c2020,0 4040,0 6060,0 2020,0 4050,0 6070,0 0,7420 0,14830 0,22240 -2160,0 -4310,0 -6470,0 -2150,0 -4310,0 -6460,0 270,-7410 540,-14820 800,-22240z"/>
    <path class="fil3 str8" d="M98700 474190c1810,0 3630,0 5440,0 1810,0 3630,0 5440,0 0,7410 0,14820 0,22230 -1950,0 -3900,0 -5840,0 -1950,0 -3900,0 -5840,0 260,-7410 530,-14820 800,-22230z"/>
    <path class="fil3 str8" d="M99940 439650c1610,0 3220,0 4820,0 1610,0 3210,0 4820,0 0,7430 0,14830 0,22240 -1740,0 -3480,0 -5220,0 -1740,0 -3480,0 -5220,0 270,-7410 540,-14810 800,-22240z"/>
    <path class="fil16 str9" d="M99940 439650c1610,0 3220,0 4820,0 1610,0 3210,0 4820,0l0 18230c-1410,10 -2830,20 -4260,20 -2030,0 -4040,-10 -6030,-40 220,-6070 430,-12130 650,-18210z"/>
   </g>
   <ellipse class="fil17" cx="105320" cy="441760" rx="69480" ry="16140"/>
   <rect class="fil18 str10" x="34350" y="342440" width="6970" height="8160"/>
   <rect class="fil18 str10" x="169620" y="342270" width="6970" height="8160"/>
   <path class="fil18 str11" d="M156670 439020c7490,-4510 14990,-9030 22480,-13540 160,7770 -310,16550 -2080,27500 -240,1150 -1210,2030 -2720,2120 -3820,30 -7650,60 -11470,90 -1930,-170 -3240,-1190 -3790,-2360 -1270,-4280 -2100,-9020 -2420,-13810z"/>
   <path class="fil18 str11" d="M53890 438100c-7490,-4510 -14990,-9030 -22480,-13540 -160,7770 300,16560 2070,27500 250,1150 1220,2030 2720,2120 3830,30 7650,60 11480,90 1930,-170 3240,-1190 3790,-2360 1260,-4280 2100,-9020 2420,-13810z"/>
   <path class="fil18 str10" d="M177100 393760c-47690,40 -95380,80 -143070,110 -3200,9550 -3280,20010 -2620,30690 1240,7060 4000,11980 9690,12750 40880,2780 82870,3220 125790,1700 6990,-240 11270,-6160 11900,-10710 1760,-12830 1760,-24660 -1690,-34540z"/>
   <path class="fil3 str12" d="M58780 399540c-8380,-2150 -24500,-2770 -25160,-6460 -1410,-34850 11090,-73740 25200,-110180 1610,-3230 3600,-3340 6760,-3710 27210,-930 54290,-880 81260,0 3060,80 5190,2800 6120,5100 12490,35600 24120,72060 24140,109470 -340,2670 -17000,3630 -25500,5440 -9520,10150 -30890,10700 -46920,10540 -16030,-150 -37060,90 -45900,-10200z"/>
   <path class="fil19 str10" d="M166880 344290c-40850,-110 -81710,-220 -122560,-340 3050,-12920 6110,-25840 9170,-38760 34850,-170 69700,-340 104550,-510 2950,13210 5890,26410 8840,39610z"/>
   <path class="fil20" d="M64720 398180c-2040,-5500 -4080,-10990 -6120,-16490 -680,-2790 720,-3840 2880,-4250 29020,-1210 58030,-1050 87040,0 2330,140 3740,1050 3230,3570 -1550,5940 -3720,11570 -6630,16830 -940,1270 -2340,2190 -4250,2720 -11290,2530 -23440,3710 -35870,4420 -12770,-590 -24740,-2340 -36710,-4080 -1690,-470 -2910,-1340 -3570,-2720z"/>
   <g style="clip-path:url(#id8)">
    <g>
     <g>
      <path id="1" class="fil14 str13" d="M57340 383460c31780,1480 63630,1340 95530,0"/>
      <path class="fil14 str13" d="M150680 389940c-30810,3380 -61080,3410 -90830,0"/>
      <path class="fil14 str13" d="M62810 397590c27180,2830 55140,3080 83980,0"/>
     </g>
    </g>
   </g>
   <path class="fil14" d="M64720 398180c-2040,-5500 -4080,-10990 -6120,-16490 -680,-2790 720,-3840 2880,-4250 29020,-1210 58030,-1050 87040,0 2330,140 3740,1050 3230,3570 -1550,5940 -3720,11570 -6630,16830 -940,1270 -2340,2190 -4250,2720 -11290,2530 -23440,3710 -35870,4420 -12770,-590 -24740,-2340 -36710,-4080 -1690,-470 -2910,-1340 -3570,-2720z"/>
   <path class="fil20 str12" d="M31410 424560c1240,7060 4000,11980 9690,12750 40880,2780 82870,3220 125790,1700 6990,-240 11270,-6160 11900,-10710 -21740,3920 -130490,9470 -147380,-3740z"/>
   <path class="fil20 str12" d="M31130 418450c80,-3650 160,-7300 240,-10950 9840,2930 20510,4500 32170,4480 27600,1980 55410,2220 83470,340 10970,-470 22250,-1110 32890,-2520 -60,2580 -80,6260 -130,8840 -4490,3150 -11360,5730 -25830,7070 -2440,460 -7220,-8550 -9310,-7610 -27310,4230 -53610,4320 -78880,170 -2310,-130 -7970,7860 -10570,7430 -9340,-1570 -16980,-3750 -24050,-7250z"/>
   <circle class="fil19 str14" transform="matrix(0.247512 -0 -0.0779219 0.247512 171805 416826)" r="15620"/>
   <circle class="fil19 str15" transform="matrix(-0.247512 -0 0.0779219 0.247512 38718.4 416443)" r="15620"/>
   <path class="fil14 str10" d="M44320 343950c2960,11750 8420,23320 14570,34840 -7320,-3800 -15160,-7160 -24290,-9380"/>
   <path class="fil14 str10" d="M166880 344290c-3280,11480 -9010,22790 -15690,34040 7920,-3080 16000,-5850 24490,-7800"/>
   <path class="fil19 str10" d="M37120 390230c-260,-4020 -510,-8050 -770,-12070 130,-920 550,-1540 1700,-1440 2640,530 5270,1070 7910,1610 3020,630 5190,8150 7220,9350 1440,430 2890,850 4340,1280 1600,420 2110,4670 2310,6920 30,1290 -12740,-1430 -19140,-2500 -2650,-530 -3180,-860 -3570,-3150z"/>
   <path class="fil19 str10" d="M173400 389700c260,-4030 510,-8050 770,-12070 -130,-930 -560,-1550 -1700,-1450 -2640,540 -5270,1080 -7910,1620 -3020,630 -5200,8140 -7220,9350 -1450,420 -2890,840 -4340,1270 -1600,420 -2110,4670 -2310,6930 -30,1280 12740,-1430 19140,-2510 2640,-530 3180,-860 3570,-3140z"/>
   <path class="fil18 str16" d="M48650 349660l28730 0c530,0 1320,320 1750,720l1150 1070c430,390 340,720 -200,720l-28730 0c-540,0 -1330,-330 -1750,-720l-1150 -1070c-430,-400 -340,-720 200,-720z"/>
   <path class="fil18 str16" d="M160480 349340l-28730 0c-540,0 -1330,330 -1760,720l-1150 1070c-420,400 -330,720 200,720l28730 0c540,0 1330,-320 1760,-720l1150 -1070c430,-390 340,-720 -200,-720z"/>
   <path class="fil20 str12" d="M27040 329350l5440 0c1030,0 1870,840 1870,1870l0 19670c0,450 -370,810 -820,810l-6490 0c-1030,0 -1870,-840 -1870,-1870l0 -18610c0,-1030 840,-1870 1870,-1870z"/>
   <path class="fil20 str12" d="M183900 329180l-5440 0c-1030,0 -1870,840 -1870,1870l0 19670c0,450 370,810 820,810l6490 0c1030,0 1870,-840 1870,-1870l0 -18610c0,-1030 -840,-1870 -1870,-1870z"/>
   <line class="fil14 str17" x1="104250" y1="290750" x2="104250" y2= "263210" />
   <ellipse class="fil18 str10" cx="105290" cy="290750" rx="1490" ry="2720"/>
   <path class="fil14 str12" d="M34030 393870l0 0c-3200,9550 -3280,20010 -2620,30690 1240,7060 4000,11980 9690,12750 40880,2780 82870,3220 125790,1700 6990,-240 11270,-6160 11900,-10710 1760,-12830 1760,-24660 -1690,-34540 -20,-37410 -11650,-73870 -24140,-109470 -930,-2300 -3060,-5020 -6120,-5100 -26970,-880 -54050,-930 -81260,0 -3160,370 -5150,480 -6760,3710 -14110,36440 -26610,75330 -25200,110180 50,280 200,550 410,790z"/>
   <g>
    <path class="fil6 str0" d="M203210 397250c-410,-1010 -220,-2930 -1390,-4850 -760,-1520 -1410,-3240 -2470,-4250 -1900,1880 -1210,3260 -1990,5200 -1590,3110 -380,5430 -1700,9840 -490,1750 -1620,4210 -1720,7470 -90,2970 390,7870 1360,9820 3360,-50 6720,-100 10090,-160 2630,-4800 1460,-8200 1070,-9850 -450,-1980 350,-3090 -880,-5020 -510,-1060 740,-3130 -760,-6020 -560,-1050 -1050,-1140 -1610,-2180z"/>
    <path class="fil7 str1" d="M202440 397000c-700,-1030 -1990,-2160 -3160,-4080 -760,-1520 640,-3420 70,-4770 -1900,1880 -1210,3260 -1990,5200 -1590,3110 -380,5430 -1700,9840 -490,1750 -1620,4210 -1720,7470 -80,2400 230,6050 850,8400 1350,1410 9230,430 9680,-420 1370,-2240 1770,-6560 380,-8520 -2480,-1880 -4070,-3100 -3790,-3370 270,-260 4290,640 4080,-580 -360,-740 -4470,-5030 -3920,-6360 250,-610 440,-720 1460,-690 930,-10 380,-1290 -240,-2120z"/>
   </g>
   <g>
    <path class="fil6" d="M14710 345580c-690,-1680 -360,-4910 -2340,-8140 -1270,-2550 -2360,-5460 -4140,-7140 -3200,3150 -2040,5480 -3340,8730 -2680,5220 -650,9130 -2870,16540 -490,1750 -1360,3920 -2020,6550l0 17510c360,2050 840,3830 1420,5000 5650,-90 11300,-170 16950,-260 4420,-8080 2460,-13780 1800,-16570 -740,-3320 600,-5180 -1470,-8430 -860,-1780 1240,-5260 -1290,-10120 -940,-1750 -1760,-1910 -2700,-3670z"/>
    <path class="fil21" d="M14620 345620c-250,-610 -360,-1400 -500,-2310 -250,-1660 -560,-3740 -1830,-5820l0 0c-290,-570 -560,-1150 -830,-1730 -940,-2010 -1890,-4020 -3230,-5330 -1980,1990 -2230,3640 -2490,5420 -140,1010 -300,2050 -760,3220l-10 0c-1410,2760 -1500,5150 -1610,7880 -90,2440 -200,5160 -1250,8640 -200,720 -460,1510 -750,2370 -440,1340 -950,2860 -1360,4560l0 -780c370,-1420 800,-2700 1180,-3850 290,-850 550,-1640 750,-2350 1040,-3470 1140,-6170 1240,-8590 110,-2760 200,-5170 1630,-7960 460,-1140 610,-2170 750,-3160 270,-1840 520,-3540 2610,-5600l60 -70 70 70c1410,1320 2380,3390 3350,5450 270,580 540,1160 820,1710 1290,2110 1600,4210 1850,5890 130,900 250,1680 490,2260 460,860 900,1340 1330,1810 450,480 890,970 1370,1850 1610,3090 1360,5630 1170,7530 -110,1080 -190,1960 110,2590 1300,2040 1270,3530 1240,5170 -20,990 -40,2040 240,3290l170 680c750,2990 2130,8460 -1970,15960l-30 50c-5690,70 -11380,150 -17070,260l-30 -60c-530,-1070 -980,-2670 -1330,-4510l0 -1090c370,2230 870,4200 1480,5460l16840 -250c4030,-7410 2670,-12810 1930,-15770 -60,-240 -120,-470 -170,-690 -290,-1270 -270,-2330 -250,-3330 30,-1610 60,-3080 -1210,-5070l-10 -10c-330,-680 -240,-1580 -130,-2700 180,-1880 430,-4380 -1150,-7410 -470,-870 -900,-1340 -1340,-1820 -440,-480 -890,-960 -1360,-1850l-10 -10z"/>
    <path class="fil7" d="M13430 345160c-1190,-1730 -3350,-3620 -5330,-6850 -1270,-2550 1080,-5750 130,-8010 -3200,3150 -2040,5480 -3340,8730 -2680,5220 -650,9130 -2870,16540 -490,1750 -1360,3920 -2020,6550l0 17510c170,940 360,1820 570,2610 2270,2370 15500,720 16260,-690 2300,-3780 2970,-11030 640,-14330 -4160,-3150 -6830,-5220 -6360,-5660 450,-440 7200,1070 6850,-980 -600,-1240 -7520,-8460 -6600,-10690 430,-1030 750,-1220 2460,-1150 1560,-20 650,-2170 -390,-3580z"/>
    <path class="fil22" d="M13350 345220c-450,-660 -1050,-1350 -1730,-2130 -1090,-1250 -2380,-2740 -3600,-4730l-10 -10c-680,-1380 -340,-2930 -10,-4420 280,-1250 550,-2450 190,-3460 -1950,1970 -2190,3610 -2450,5380 -140,1010 -300,2050 -760,3220l-10 0c-1410,2760 -1500,5150 -1610,7880 -90,2440 -200,5160 -1250,8640 -200,720 -460,1510 -750,2370 -440,1340 -950,2860 -1360,4560l0 -780c370,-1420 800,-2700 1180,-3850 290,-850 550,-1640 750,-2350 1040,-3470 1140,-6170 1240,-8590 110,-2760 200,-5170 1630,-7960 460,-1140 610,-2170 750,-3160 270,-1840 520,-3540 2610,-5600l100 -100 50 130c460,1090 180,2380 -120,3710 -320,1460 -660,2970 0,4290 1210,1980 2490,3460 3570,4700 690,790 1290,1480 1750,2150 460,620 890,1390 1100,2060 110,350 170,670 130,940 -40,290 -180,510 -440,630 -130,60 -290,90 -480,90l-10 0c-830,-30 -1330,0 -1660,160 -320,150 -500,440 -700,940 -640,1550 2740,5720 4910,8380 850,1050 1510,1870 1690,2230l0 30c120,660 -410,990 -1220,1130 -1030,170 -2540,50 -3750,-40 -1000,-80 -1790,-150 -1910,-30 -170,170 370,750 1440,1670 1140,970 2840,2270 4920,3850l20 20c1140,1600 1570,4130 1450,6740 -130,2800 -890,5710 -2080,7680 -30,50 -70,100 -120,150 -690,660 -3830,1340 -7180,1640 -3360,290 -6950,200 -8570,-670 -220,-120 -410,-250 -550,-410l-30 -40c-170,-650 -330,-1350 -470,-2100l0 -1090c190,1120 410,2180 650,3120 130,130 300,250 490,350 1590,850 5140,940 8460,650 3320,-290 6400,-950 7060,-1590 40,-30 70,-60 90,-100l0 0c1180,-1950 1930,-4830 2060,-7600 110,-2570 -310,-5040 -1410,-6610 -2080,-1580 -3790,-2880 -4910,-3840 -1180,-1010 -1740,-1690 -1450,-1960 180,-170 1010,-110 2050,-30 1210,100 2700,220 3700,50 700,-120 1160,-380 1080,-900 -180,-340 -830,-1150 -1660,-2180 -2200,-2700 -5620,-6920 -4940,-8580 220,-540 420,-850 800,-1030 360,-180 880,-210 1750,-180 160,0 290,-30 400,-80 200,-90 300,-260 330,-480 30,-230 -20,-530 -120,-860 -200,-640 -630,-1390 -1080,-2000l0 0z"/>
   </g>
   <g>
    <g>
     <path class="fil3 str18" d="M464780 397440c130,14700 -70,29900 -140,44900 -38600,0 -77200,0 -115800,0 860,-28280 1930,-58560 24750,-64970 10430,-2540 50320,3020 76370,7750 4840,750 14910,5350 14820,12320z"/>
     <path class="fil13 str18" d="M379050 442340l-15380 0 0 -15530c0,-4230 3460,-7680 7690,-7680l0 0c4230,0 7690,3450 7690,7680l0 15530z"/>
     <path class="fil13 str19" d="M379050 409120l-15380 0 0 -18800c0,-4230 3460,-7690 7690,-7690l0 0c4230,0 7690,3460 7690,7690l0 18800z"/>
     <path class="fil13 str18" d="M444330 442340l-10760 0 0 -10870c0,-2960 2420,-5380 5380,-5380l0 0c2960,0 5380,2420 5380,5380l0 10870z"/>
     <path class="fil13 str18" d="M444330 415780l-10760 -1450 0 -15570c0,-2970 2420,-5400 5380,-5400l0 0c2960,0 5380,2430 5380,5400l0 17020z"/>
     <path class="fil13 str18" d="M426330 442340l-12300 0 0 -12420c0,-3380 2770,-6150 6150,-6150l0 0c3390,0 6150,2770 6150,6150l0 12420z"/>
     <path class="fil13 str18" d="M426330 413310l-12300 -1370 0 -17820c0,-3400 2770,-6180 6150,-6180l0 0c3390,0 6150,2780 6150,6180l0 19190z"/>
     <path class="fil13 str18" d="M458540 442340l-9230 0 0 -9320c0,-2530 2080,-4610 4620,-4610l0 0c2530,0 4610,2080 4610,4610l0 9320z"/>
     <path class="fil13 str18" d="M458540 419260l-9230 -1940 0 -15020c0,-2550 2080,-4630 4620,-4630l0 0c2530,0 4610,2080 4610,4630l0 16960z"/>
     <path class="fil13 str18" d="M405040 442340l-13840 0 0 -13980c0,-3800 3110,-6910 6920,-6910l0 0c3800,0 6920,3110 6920,6910l0 13980z"/>
     <path class="fil13 str18" d="M405040 411180l-13840 -900 0 -18090c0,-3830 3110,-6950 6920,-6950l0 0c3800,0 6920,3120 6920,6950l0 18990z"/>
     <path class="fil14 str18" d="M464640 421630c-30480,-10420 -71170,-11530 -113220,-12920"/>
    </g>
    <path class="fil3 str6" d="M301150 381970c13580,15890 21500,44480 35080,60370 12700,0 25400,0 38090,0 -3550,-24430 -7110,-48860 -10660,-73300 -5750,-15050 -33290,-13960 -65620,-10020 -850,11880 3960,11070 3110,22950z"/>
    <path class="fil3 str6" d="M268070 294700c-4180,-3840 -3030,-28550 -8620,-25500 -20060,9720 -37480,20450 -55370,34820 -1880,2000 -2480,6150 -2320,9310 0,43000 0,86010 0,129010 44820,0 89650,0 134470,0 -1000,-32840 -2240,-68000 -28750,-75450 -19550,-9160 -11970,-31360 -15300,-49600 -3780,-16300 -20670,-17930 -24110,-22590z"/>
    <path class="fil13 str6" d="M301150 442340l17860 0 0 -18030c0,-4910 -4020,-8930 -8930,-8930l0 0c-4910,0 -8930,4020 -8930,8930l0 18030z"/>
    <path class="fil13 str20" d="M339660 442340l17850 0 0 -21430c0,-4910 -4010,-8920 -8920,-8920l-10 0c-4910,0 -8920,4010 -8920,8920l0 21430z"/>
    <path class="fil13 str20" d="M301150 403760l17860 0 0 -21830c0,-4910 -4020,-8930 -8930,-8930l0 0c-4910,0 -8930,4020 -8930,8930l0 21830z"/>
    <g>
     <path class="fil13" d="M339660 398900l17850 0 0 -25700c0,-4910 -4010,-8930 -8920,-8930l-10 0c-4910,0 -8920,4020 -8920,8930l0 25700z"/>
     <path id="1" class="fil12" d="M357510 399670l-17850 0 0 -1530 17850 0 770 760 -770 770zm770 -770l0 770 -770 0 770 -770zm0 -25700l0 25700 -1540 0 0 -25700 0 0 1540 0zm-9690 -8160l0 -1530 0 0 490 10 490 40 490 60 480 90 460 110 460 130 460 150 440 170 420 200 420 210 410 240 390 250 380 270 370 290 350 310 340 320 320 330 300 360 290 360 270 380 250 390 240 410 210 420 200 420 170 450 150 450 140 450 100 470 90 480 60 480 40 490 10 500 -1540 0 -10 -420 -30 -420 -50 -400 -80 -400 -90 -400 -110 -380 -130 -380 -140 -370 -170 -360 -180 -360 -200 -340 -210 -330 -230 -320 -240 -310 -260 -300 -270 -280 -280 -270 -300 -260 -310 -240 -320 -230 -330 -210 -340 -200 -350 -180 -360 -160 -370 -150 -380 -130 -390 -110 -390 -90 -400 -70 -400 -50 -420 -30 -410 -10 0 0zm-10 -1530l10 0 0 1530 -10 0 0 0 0 -1530zm-8150 9690l-1540 0 0 0 10 -500 40 -490 60 -480 90 -480 100 -470 140 -450 150 -450 170 -450 200 -420 210 -420 240 -410 250 -390 270 -380 290 -360 300 -360 320 -330 340 -320 350 -310 370 -290 380 -270 390 -250 410 -240 420 -210 420 -200 450 -170 450 -150 460 -130 460 -110 480 -90 490 -60 490 -40 490 -10 0 1530 -410 10 -420 30 -400 50 -400 70 -390 90 -390 110 -380 130 -370 150 -360 160 -350 180 -340 200 -330 210 -320 230 -310 240 -300 260 -280 270 -270 280 -260 300 -240 310 -230 320 -210 330 -200 340 -180 360 -170 360 -140 370 -130 380 -110 380 -90 400 -80 400 -50 400 -30 420 -10 420 0 0zm-1540 25700l0 -25700 1540 0 0 25700 -770 770 -770 -770zm770 770l-770 0 0 -770 770 770z"/>
    </g>
    <path class="fil13 str6" d="M225340 442340l12500 0 0 -12620c0,-3440 -2810,-6250 -6250,-6250l0 0c-3440,0 -6250,2810 -6250,6250l0 12620z"/>
    <path class="fil13 str6" d="M225340 411500l12500 -1690 0 -18070c0,-3450 -2810,-6280 -6250,-6280l0 0c-3440,0 -6250,2830 -6250,6280l0 19760z"/>
    <path class="fil13 str6" d="M224850 375110l12550 -3370 -50 -28200c-10,-3460 -2810,-6280 -6250,-6280l0 0c-3440,0 -6250,2820 -6250,6280l0 31570z"/>
    <path class="fil13 str6" d="M246240 442340l14290 0 0 -14420c0,-3930 -3220,-7150 -7140,-7150l0 0c-3930,0 -7150,3220 -7150,7150l0 14420z"/>
    <path class="fil13 str6" d="M246240 408630l14290 -1590 0 -20690c0,-3950 -3220,-7180 -7140,-7180l0 0c-3930,0 -7150,3230 -7150,7180l0 22280z"/>
    <path class="fil13 str6" d="M245760 369700l14460 -2400 -180 -31250c-30,-3950 -3220,-7170 -7140,-7170l-10 0c-3920,0 -7130,3220 -7130,7170l0 33650z"/>
    <path class="fil13 str6" d="M208850 442340l10710 0 0 -10820c0,-2950 -2410,-5350 -5360,-5350l0 0c-2950,0 -5350,2400 -5350,5350l0 10820z"/>
    <path class="fil13 str6" d="M208850 415530l10710 -2240 0 -17440c0,-2960 -2410,-5380 -5360,-5380l0 0c-2940,0 -5350,2420 -5350,5380l0 19680z"/>
    <path class="fil13 str6" d="M208360 380900l10710 -3950 0 -27790c0,-2960 -2410,-5380 -5360,-5380l0 0c-2940,0 -5350,2420 -5350,5380l0 31740z"/>
    <path class="fil13 str6" d="M270970 442340l16070 0 0 -16230c0,-4420 -3610,-8030 -8030,-8030l0 0c-4420,0 -8040,3610 -8040,8030l0 16230z"/>
    <path class="fil13 str6" d="M270970 406150l16070 -1040 0 -21010c0,-4440 -3620,-8070 -8030,-8070l0 0c-4420,0 -8040,3630 -8040,8070l0 22050z"/>
    <path class="fil13 str6" d="M270480 365850l16070 -1660 0 -33070c0,-4430 -3610,-8070 -8030,-8070l0 0c-4420,0 -8040,3640 -8040,8070l0 34730z"/>
    <path class="fil14 str6" d="M201760 418300c35400,-12110 82650,-13400 131480,-15010"/>
    <path class="fil14 str6" d="M201760 383800c25510,-11970 60190,-18590 99930,-20620"/>
    <path class="fil14 str6" d="M201760 343310c22450,-19290 51690,-30340 85890,-35350"/>
    <rect class="fil13 str21" transform="matrix(0.370967 -0.262678 -0 0.37258 210468 312267)" width="19060" height="17500" rx="1870" ry="1870"/>
    <rect class="fil13 str22" transform="matrix(0.400456 -0.195282 -0 0.402189 228616 301835)" width="19060" height="17500" rx="1870" ry="1870"/>
    <rect class="fil13 str23" transform="matrix(0.468536 -0.114749 -0 0.470566 249646 291271)" width="19060" height="17500" rx="1870" ry="1870"/>
    <path class="fil3 str24" d="M202800 437460c4940,-80 9870,-440 14810,10 730,0 1320,600 1320,1330 -310,2380 500,4420 0,6920 0,730 -590,1330 -1320,1330 -5480,0 -10950,0 -16430,0 -720,0 -1320,-600 -1320,-1330 -150,-2010 350,-3540 190,-5580 -60,-1250 1490,-2560 2750,-2680z"/>
    <path class="fil18 str25" d="M217950 437830c200,360 400,710 600,1060 -360,630 -600,2160 -1270,2370 -750,200 -2350,470 -3140,540 740,-180 2100,-980 2760,-1260 630,-530 720,-1950 1050,-2710z"/>
    <g>
     <path class="fil7 str4" d="M455180 440600c-1010,1420 -1050,2840 -500,4250 5720,0 11430,0 17150,0 240,-1630 460,-3250 -810,-4700 1220,-2690 -1340,-6820 -4410,-6330 -1590,-1010 -3180,-1140 -4770,-580 -1800,-890 -2960,-590 -3560,810 -2000,150 -2830,1210 -2970,2800 -970,1080 -1080,2320 -130,3750z"/>
     <path class="fil6 str0" d="M463000 437400c-1000,-730 -1090,-1380 -700,-2000 430,-850 1340,-1040 2700,-610 3460,-230 3590,2260 3650,4790 640,950 290,1850 -870,2690 -1350,-30 -2470,-510 -3130,-1820 -990,-780 -1830,-1630 -1650,-3050z"/>
    </g>
   </g>
   <g>
    <path class="fil6" d="M0 423550l18790 0c350,-2360 670,-4720 -1180,-6810 1760,-3900 -1940,-9870 -6390,-9170 -2300,-1460 -4600,-1650 -6910,-850 -1920,-950 -3350,-960 -4310,-70l0 16900z"/>
    <path class="fil21" d="M0 423460l18710 0c170,-1150 330,-2300 230,-3410 -110,-1120 -490,-2220 -1390,-3250l-40 -40 20 -60c440,-970 540,-2070 360,-3160 -180,-1160 -670,-2300 -1360,-3270 -690,-970 -1590,-1770 -2620,-2230 -830,-380 -1730,-530 -2670,-380l-60 -10c-1140,-730 -2280,-1140 -3420,-1260 -1140,-130 -2280,20 -3420,420l-30 10 -30 -20c-1280,-630 -2340,-840 -3170,-650 -430,100 -790,310 -1110,620l0 -240c310,-270 660,-450 1070,-550 870,-200 1950,10 3250,650 1150,-400 2310,-550 3460,-420 1160,130 2310,550 3460,1270 970,-140 1900,20 2740,400 1050,470 1980,1290 2690,2290 710,990 1200,2160 1390,3340 180,1110 90,2220 -350,3210 910,1050 1290,2170 1400,3320 110,1150 -60,2340 -240,3520l-10 80 -18860 0 0 -180z"/>
    <path class="fil7 str1" d="M5990 412760c-1440,-1060 -1570,-2010 -1000,-2900 620,-1230 1930,-1510 3900,-880 5020,-330 5200,3260 5290,6930 930,1380 420,2680 -1260,3900 -1960,-50 -3580,-740 -4530,-2640 -1430,-1130 -2650,-2360 -2400,-4410z"/>
   </g>
   <circle class="fil18 str26" cx="105140" cy="390790" r="8930"/>
   <polygon class="fil19" points="104990,391970 98820,397100 104030,390360 104990,381970 105940,390350 111460,397100 "/>
  </g>
 </g>
</svg>
