<?xml version="1.0" encoding="UTF-8"?>
<!DOCTYPE svg  PUBLIC '-//W3C//DTD SVG 1.1//EN'  'http://www.w3.org/Graphics/SVG/1.1/DTD/svg11.dtd'>
<svg width="2154px" height="2154px" clip-rule="evenodd" fill-rule="evenodd" image-rendering="optimizeQuality" shape-rendering="geometricPrecision" text-rendering="geometricPrecision" version="1.1" viewBox="0 0 2154000 2154000" xml:space="preserve" xmlns="http://www.w3.org/2000/svg">
 <defs>
  <style type="text/css">
   
    .str27 {stroke:white;stroke-width:77140;stroke-miterlimit:2.61313}
    .str12 {stroke:#414D54;stroke-width:5500;stroke-miterlimit:2.61313}
    .str31 {stroke:#414D54;stroke-width:5510;stroke-miterlimit:2.61313}
    .str32 {stroke:#808A94;stroke-width:5510;stroke-miterlimit:2.61313}
    .str33 {stroke:#414D54;stroke-width:5510;stroke-miterlimit:2.61313}
    .str34 {stroke:#414D54;stroke-width:5510;stroke-miterlimit:2.61313}
    .str39 {stroke:#414D54;stroke-width:4000;stroke-miterlimit:2.61313}
    .str7 {stroke:#414D54;stroke-width:8000;stroke-miterlimit:2.61313}
    .str38 {stroke:#B3B3B3;stroke-width:8000;stroke-miterlimit:2.61313}
    .str10 {stroke:#414D54;stroke-width:8040;stroke-miterlimit:2.61313}
    .str8 {stroke:#3E7DFF;stroke-width:1690;stroke-miterlimit:2.61313}
    .str9 {stroke:#3E7DFF;stroke-width:1690;stroke-miterlimit:2.61313}
    .str35 {stroke:#414D54;stroke-width:16000;stroke-miterlimit:2.61313}
    .str6 {stroke:#117048;stroke-width:900;stroke-miterlimit:2.61313}
    .str4 {stroke:#168658;stroke-width:900;stroke-miterlimit:2.61313}
    .str2 {stroke:#7FD9FF;stroke-width:900;stroke-miterlimit:2.61313}
    .str0 {stroke:gray;stroke-width:900;stroke-miterlimit:2.61313}
    .str5 {stroke:#999999;stroke-width:900;stroke-miterlimit:2.61313}
    .str28 {stroke:#999999;stroke-width:900;stroke-miterlimit:2.61313}
    .str1 {stroke:#CCCCCC;stroke-width:900;stroke-miterlimit:2.61313}
    .str3 {stroke:white;stroke-width:900;stroke-miterlimit:2.61313}
    .str22 {stroke:#999999;stroke-width:7000;stroke-linecap:round;stroke-miterlimit:2.61313}
    .str21 {stroke:#253138;stroke-width:7660;stroke-linecap:round;stroke-miterlimit:2.61313}
    .str15 {stroke:#3E7DFF;stroke-width:7660;stroke-linecap:round;stroke-miterlimit:2.61313}
    .str16 {stroke:#414D54;stroke-width:7660;stroke-linecap:round;stroke-miterlimit:2.61313}
    .str25 {stroke:#999999;stroke-width:7660;stroke-linecap:round;stroke-miterlimit:2.61313}
    .str26 {stroke:white;stroke-width:7660;stroke-linecap:round;stroke-miterlimit:2.61313}
    .str24 {stroke:#E6E6E6;stroke-width:4790;stroke-linecap:round;stroke-miterlimit:2.61313}
    .str20 {stroke:#253138;stroke-width:860;stroke-linecap:round;stroke-miterlimit:2.61313}
    .str17 {stroke:#414D54;stroke-width:860;stroke-linecap:round;stroke-miterlimit:2.61313}
    .str14 {stroke:gray;stroke-width:860;stroke-linecap:round;stroke-miterlimit:2.61313}
    .str23 {stroke:#999999;stroke-width:860;stroke-linecap:round;stroke-miterlimit:2.61313}
    .str30 {stroke:#414D54;stroke-width:7540;stroke-linecap:round;stroke-miterlimit:2.61313}
    .str18 {stroke:#414D54;stroke-width:5740;stroke-linecap:round;stroke-miterlimit:2.61313}
    .str13 {stroke:#414D54;stroke-width:5500;stroke-linecap:round;stroke-linejoin:round;stroke-miterlimit:2.61313}
    .str11 {stroke:#3E7DFF;stroke-width:5210;stroke-linecap:round;stroke-linejoin:round;stroke-miterlimit:2.61313}
    .str19 {stroke:#414D54;stroke-width:7660;stroke-linecap:round;stroke-linejoin:round;stroke-miterlimit:2.61313}
    .str36 {stroke:#414D54;stroke-width:8000;stroke-linecap:round;stroke-linejoin:round;stroke-miterlimit:2.61313}
    .str29 {stroke:#999999;stroke-width:8000;stroke-linecap:round;stroke-linejoin:round;stroke-miterlimit:2.61313}
    .str37 {stroke:#414D54;stroke-width:900;stroke-linecap:round;stroke-linejoin:round;stroke-miterlimit:2.61313}
    .fil3 {fill:none}
    .fil2 {fill:none;fill-rule:nonzero}
    .fil8 {fill:#117048}
    .fil24 {fill:#168658}
    .fil6 {fill:#168658}
    .fil19 {fill:#253138}
    .fil10 {fill:#3E7DFF}
    .fil13 {fill:#414D54}
    .fil4 {fill:#7FD9FF}
    .fil17 {fill:gray}
    .fil1 {fill:gray}
    .fil15 {fill:#808A94}
    .fil16 {fill:#808A94}
    .fil7 {fill:#999999}
    .fil23 {fill:#999999}
    .fil9 {fill:#A3C2FF}
    .fil21 {fill:#B3B3B3}
    .fil0 {fill:#CCCCCC}
    .fil20 {fill:#CCCCCC}
    .fil14 {fill:#D9D9D9}
    .fil22 {fill:#F6F6F6}
    .fil25 {fill:#FC4A53}
    .fil5 {fill:white}
    .fil11 {fill:#3E7DFF;fill-rule:nonzero}
    .fil12 {fill:#414D54;fill-rule:nonzero}
    .fil18 {fill:url(#a)}
   
  </style>
   <clipPath id="e">
    <path d="m23250 968630c-9130 54830-13880 111150-13880 168590 0 560450 452370 1014780 1010390 1014780s1010380-454330 1010380-1014780c0-30840-1370-61370-4050-91510l-2002840-77080z"/>
   </clipPath>
   <clipPath id="d">
    <path d="m10930 1080330c-1030 18830-1560 37800-1560 56890 0 560450 452370 1014780 1010390 1014780 558010 0 1010380-454330 1010380-1014770 1040-18830 1560-37800 1560-56890 0-560450-452360-1014780-1010380-1014780s-1010380 454330-1010390 1014770z"/>
   </clipPath>
   <clipPath id="c">
    <path d="m196960 1407510c0-10810 120-18370 5950-18950 126460 1980 252510 16800 378310 39390 7440 80 9680 11260 4470 21940-21900 44190-46930 81500-83410 93740-102900 2290-197140-10940-281490-41890-24080-24930-22210-57860-23830-94230z"/>
   </clipPath>
    <clipPath id="b">
     <path d="m2143600 984880c1960-36730 9740-72780 8200-109550-50-4970-2220-5870-6900-5950-60720-2130-116520 22550-175380 6280v117980c52700 6430 109500-5910 163770-1370 6990 860 9820 1060 10310-7390z"/>
    </clipPath>
  <linearGradient id="a" x1="1538960" x2="966230" y1="1372570" y2="1078350" gradientUnits="userSpaceOnUse">
   <stop stop-color="#E6E6E6" offset="0"/>
   <stop stop-color="#F2F2F2" offset=".67059"/>
   <stop stop-color="#fff" offset="1"/>
  </linearGradient>
 </defs>
 
  
  <path class="fil0" d="m23250 968630c-9130 54830-13880 111150-13880 168590 0 560450 452370 1014780 1010390 1014780s1010380-454330 1010380-1014780c0-30840-1370-61370-4050-91510l-2002840-77080z"/>
  <g clip-path="url(#e)">
   
    
     <path id="1" class="fil1" d="m195020 1654110c127950 41770 455470 12740 583420 54510 73910 24130 53500 93140 22150 143200-289650 39850-491480 960-632860-92150-41660-30620-19780-66960 27290-105560z"/>
     <path class="fil2 str0" d="m195020 1654110c127950 41770 455470 12740 583420 54510 73910 24130 53500 93140 22150 143200-289650 39850-491480 960-632860-92150-41660-30620-19780-66960 27290-105560z"/>
    
   
  </g>
  <path class="fil3 str1" d="m23250 968630c-9130 54830-13880 111150-13880 168590 0 560450 452370 1014780 1010390 1014780s1010380-454330 1010380-1014780c0-30840-1370-61370-4050-91510l-2002840-77080z"/>
  <path class="fil4 str2" d="m24810 1248930c-9120-54830-13880-111150-13880-168590 0-560450 452370-1014780 1010390-1014780s1010380 454330 1010380 1014780c0 30840-1370 61370-4050 91510l-2002840 77080z"/>
  <path class="fil5 str3" d="m630540 271960c-113830-201930-328890-85270-296330 62250-174000 41820-112990 268450 87160 192580 70480 70570 171620 69820 245970-27230 31930 4320 62660 220 92000-13620 207810 56900 193340-109730 66830-103100-19020-89790-83640-127430-195630-110880z"/>
  <path class="fil5 str3" d="m1759530 357960c-21760-74250-122720-91350-178370-28560-163940-19980-124170 223650 38770 166170 68670 84450 194450 68780 244730-4330 83990-49430 23150-150210-68070-119430-8960-10210-21790-14040-37060-13850z"/>
  
  <g clip-path="url(#d)">
   
    <path class="fil6 str4" d="m1917060 1190810c-7210 10180-7550 20350-3550 30530h123210c1740-11700 3330-23380-5820-33780 8740-19360-9650-48990-31700-45470-11420-7260-22850-8220-34270-4220-12900-6400-21290-4210-25550 5840-14370 1080-20350 8680-21350 20140-6970 7740-7790 16630-970 26960z"/>
   
  </g>
  <path class="fil3" d="m10930 1080330c-1030 18830-1560 37800-1560 56890 0 560450 452370 1014780 1010390 1014780 558010 0 1010380-454330 1010380-1014770 1040-18830 1560-37800 1560-56890 0-560450-452360-1014780-1010380-1014780s-1010380 454330-1010390 1014770z"/>
  <ellipse class="fil7 str5" cx="1713520" cy="1612470" rx="88100" ry="30080"/>
  <path class="fil8 str6" d="m1858070 1175530c-7910 11150-8280 22310-3900 33460h135050c1910-12830 3650-25630-6380-37020 9570-21230-10580-53700-34740-49840-12520-7960-25050-9010-37570-4630-14130-7010-23330-4610-28010 6410-15740 1180-22300 9500-23390 22070-7640 8480-8550 18220-1060 29550z"/>
  
   <rect class="fil5 str7" x="1367110" y="820190" width="401410" height="66680"/>
   <rect class="fil5 str7" x="1195150" y="886880" width="726030" height="95670"/>
   <rect class="fil5 str7" x="1182520" y="1144580" width="751300" height="24400"/>
   <rect class="fil5 str7" x="1143640" y="1168980" width="829060" height="24400"/>
   <rect class="fil5 str7" x="1104760" y="1193390" width="906820" height="24400"/>
   <rect class="fil5 str7" x="1209730" y="982540" width="696870" height="162040"/>
   <rect class="fil5 str7" x="1266150" y="850700" width="120520" height="36170"/>
   <rect class="fil5 str7" x="1724770" y="850700" width="120520" height="36170"/>
   <rect class="fil9 str7" x="1252060" y="807750" width="148710" height="42950"/>
   <rect class="fil9 str7" x="1710680" y="807750" width="148710" height="42950"/>
   <polygon class="fil9 str7" points="1308110 743740 1325800 669120 1344710 744100"/>
   <path class="fil5 str7" d="m1260290 807750c0-36680 29610-66410 66120-66410 36520 0 66130 29730 66130 66410h-132250z"/>
   <polygon class="fil9 str7" points="1766730 743740 1784430 669120 1803340 744100"/>
   <path class="fil5 str7" d="m1718910 807750c0-36680 29610-66410 66130-66410 36510 0 66120 29730 66120 66410h-132250z"/>
   <line class="fil3 str7" x1="1326410" x2="1326410" y1="807750" y2="741340"/>
   <line class="fil3 str7" x1="1785040" x2="1785040" y1="807750" y2="741340"/>
   <path class="fil3 str7" d="m1295460 807750c-950-22420 5530-44170 18840-65290"/>
   <path class="fil3 str7" d="m1754080 807750c-950-22420 5530-44170 18840-65290"/>
   <path class="fil3 str7" d="m1338020 742360c18850 20800 26950 42640 25720 65390"/>
   <path class="fil3 str7" d="m1796640 742360c18850 20800 26950 42640 25720 65390"/>
   <path class="fil5 str7" d="m1455550 664500c0-54990 44380-99570 99130-99570 54760 0 99140 44580 99140 99570v56610h-198270v-56610z"/>
   <rect class="fil9 str7" x="1408650" y="707450" width="292070" height="22940"/>
   <rect class="fil5 str7" x="1420070" y="730390" width="269230" height="89800"/>
   <line class="fil3 str7" x1="1554690" x2="1554690" y1="707450" y2="564930"/>
   <path class="fil3 str7" d="m1491490 707450c-2410-73570 11020-117050 54240-142120"/>
   <path class="fil3 str7" d="m1621240 707450c2410-73570-11020-117050-54240-142120"/>
   <path class="fil9 str7" d="m1.52e6 571200h71600v-22490c0-1270-1050-2320-2320-2320h-66960c-1280 0-2320 1050-2320 2320v22490z"/>
   <path class="fil5 str7" d="m1531970 546390h47630v-37260c0-4470-3660-8130-8130-8130h-31360c-4480 0-8140 3660-8140 8130v37260z"/>
   <polygon class="fil9 str7" points="1571500 501000 1540070 501000 1555780 407290"/>
   <polygon class="fil9 str7" points="1689060 982540 1419840 982540 1554940 913050"/>
   <rect class="fil9 str7" x="1258480" y="982540" width="50540" height="162040"/>
   <rect class="fil9 str7" x="1628300" y="982540" width="50540" height="162040"/>
   <rect class="fil9 str7" x="1532900" y="982540" width="50540" height="162040"/>
   <rect class="fil9 str7" x="1348380" y="982540" width="50540" height="162040"/>
   <rect class="fil9 str7" x="1718200" y="982540" width="50540" height="162040"/>
   <rect class="fil9 str7" x="1438290" y="982540" width="50540" height="162040"/>
   <rect class="fil9 str7" x="1808110" y="982540" width="50540" height="162040"/>
   
    <rect class="fil9 str7" x="1452690" y="730390" width="30620" height="89800"/>
    <rect class="fil9 str7" x="1510480" y="730390" width="30620" height="89800"/>
    <rect class="fil9 str7" x="1568270" y="730390" width="30620" height="89800"/>
    <rect class="fil9 str7" x="1626060" y="730390" width="30620" height="89800"/>
   
   <rect class="fil9 str7" x="1223800" y="924270" width="15550" height="26840" rx="2910" ry="2920"/>
   <rect class="fil9 str7" x="1419480" y="924270" width="15550" height="26840" rx="2910" ry="2920"/>
   <rect class="fil9 str7" x="1289030" y="924270" width="15550" height="26840" rx="2910" ry="2920"/>
   <rect class="fil9 str7" x="1742740" y="924270" width="15550" height="26840" rx="2910" ry="2920"/>
   <rect class="fil9 str7" x="1354250" y="924270" width="15550" height="26840" rx="2910" ry="2920"/>
   <rect class="fil9 str7" x="1807960" y="924270" width="15550" height="26840" rx="2910" ry="2920"/>
   <rect class="fil9 str7" x="1677510" y="924270" width="15550" height="26840" rx="2910" ry="2920"/>
   <rect class="fil9 str7" x="1873190" y="924270" width="15550" height="26840" rx="2910" ry="2920"/>
   <line class="fil3 str7" x1="1433480" x2="1677970" y1="850700" y2="850700"/>
  
  <path class="fil10 str8" d="m1151440 1234660h-89930v-90810c0-24730 20240-44970 44970-44970s44960 20240 44960 44970v90810z"/>
  
   <path class="fil10" d="m993570 1234660h-89930v-107910c0-24730 20230-44960 44960-44960s44970 20230 44970 44960v107910z"/>
   <path id="1" class="fil11" d="m903640 1233820h89930v1690h-89930l-840-850 840-840zm0 1690h-840v-850l840 850zm830-108760v107910h-1670v-107910h1670zm44130-45810v1690l-2260 60-2240 170-2200 280-2160 390-2130 500-2090 590-2050 700-2e3 790-1960 890-1900 980-1850 1060-1790 1160-1730 1230-1670 1310-1600 1390-1540 1470-1460 1530-1390 1600-1310 1670-1240 1730-1150 1790-1060 1850-980 1900-890 1950-790 2010-690 2040-600 2090-500 2130-380 2170-290 2200-170 2230-60 2260h-1670l60-2350 180-2320 290-2280 400-2260 520-2210 620-2170 720-2120 820-2080 930-2030 1010-1970 1110-1920 1190-1860 1280-1800 1360-1730 1450-1660 1510-1600 1600-1520 1660-1440 1730-1360 1800-1280 1860-1190 1910-1110 1980-1020 2030-920 2070-820 2130-720 2170-620 2210-520 2250-400 2290-290 2310-180 2350-60zm0 850v-850 850zm45800 44960h-1670l-60-2260-170-2230-280-2200-390-2170-500-2130-590-2090-700-2040-790-2010-890-1950-970-1900-1070-1850-1150-1790-1230-1730-1320-1670-1390-1600-1460-1530-1540-1470-1600-1390-1670-1310-1730-1230-1790-1160-1850-1060-1900-980-1950-890-2010-790-2040-700-2090-590-2130-500-2170-390-2200-280-2240-170-2260-60v-1690l2350 60 2320 180 2280 290 2250 400 2210 520 2170 620 2130 720 2080 820 2020 920 1980 1020 1910 1100 1860 1200 1800 1280 1730 1360 1670 1440 1590 1520 1520 1600 1440 1660 1360 1730 1280 1800 1200 1860 1100 1910 1020 1980 920 2030 820 2080 730 2120 620 2170 510 2210 400 2260 300 2280 170 2320 60 2350zm-1670 107910v-107910h1670v107910l-830 850-840-850zm1670 0v850h-830l830-850z"/>
  
  
   <path class="fil10" d="m1000850 1010560h-89930v-109970c0-24730 20240-44960 44970-44960s44960 20230 44960 44960v109970z"/>
   <path id="1" class="fil11" d="m910920 1009710h89930v1700h-89930l-840-850 840-850zm0 1700h-840v-850l840 850zm840-110820v109970h-1680v-109970h1680zm44130-45810v1690l-2270 60-2230 170-2200 290-2170 390-2130 490-2090 600-2050 690-2e3 800-1950 880-1900 980-1850 1070-1790 1150-1730 1230-1670 1310-1600 1390-1540 1470-1460 1530-1390 1600-1320 1670-1230 1730-1150 1790-1060 1850-980 1900-890 1950-790 2010-700 2040-590 2090-500 2130-390 2170-280 2200-170 2230-60 2260h-1680l60-2350 180-2320 290-2280 410-2250 510-2220 620-2170 730-2130 820-2070 920-2030 1010-1980 1110-1910 1200-1860 1280-1800 1360-1730 1440-1670 1520-1590 1590-1520 1670-1440 1730-1360 1790-1280 1860-1200 1920-1100 1970-1020 2030-920 2080-820 2130-720 2170-620 2210-520 2250-400 2280-290 2320-180 2350-60zm0 850v-850 850zm45800 44960h-1680l-60-2260-170-2230-280-2200-390-2170-490-2130-600-2090-690-2040-800-2010-880-1950-980-1900-1070-1850-1150-1790-1230-1730-1310-1670-1390-1600-1470-1530-1530-1470-1610-1390-1660-1310-1740-1230-1790-1150-1840-1070-1910-980-1950-880-2e3 -800-2050-690-2090-600-2130-490-2170-390-2200-290-2230-170-2260-60v-1690l2340 60 2320 180 2290 290 2250 400 2210 520 2170 620 2120 720 2080 820 2030 920 1970 1020 1920 1100 1860 1200 1800 1280 1730 1360 1660 1440 1590 1520 1520 1590 1450 1670 1360 1730 1280 1800 1190 1860 1110 1910 1020 1980 920 2030 820 2070 720 2130 620 2170 520 2220 400 2250 290 2280 180 2320 60 2350zm-1680 109970v-109970h1680v109970l-840 850-840-850zm1680 0v850h-840l840-850z"/>
  
  <path class="fil10 str9" d="m1282430 1234660h-80940v-81730c0-22260 18210-40470 40470-40470s40470 18210 40470 40470v81730z"/>
  <path class="fil5 str7" d="m524780 937450c70460 82460 111550 230770 182010 313230h197620c-18440-126760-36890-253520-55330-380280-29810-78110-172720-72460-340480-52020-4400 61640 20580 57430 16180 119070z"/>
  <path class="fil5 str7" d="m353120 484680c-21660-19930-15720-148150-44740-132290-104040 50400-194470 106050-287280 180620-9720 10370-12830 31920-12030 48330v669340h697720c-5210-170360-11630-352800-149170-391460-101450-47520-62150-162700-79390-257340-19650-84570-107270-93030-125110-117200z"/>
  <path class="fil9 str7" d="m524780 1250680h92620v-93540c0-25480-20840-46320-46310-46320s-46310 20840-46310 46320v93540z"/>
  <path class="fil9 str7" d="m724560 1250680h92630v-111150c0-25480-20850-46320-46320-46320s-46310 20840-46310 46320v111150z"/>
  <path class="fil9 str7" d="m524780 1050520h92620v-113270c0-25470-20840-46310-46310-46310s-46310 20840-46310 46310v113270z"/>
  <path class="fil9 str7" d="m724560 1025320h92630v-133370c0-25480-20850-46320-46320-46320s-46310 20840-46310 46320v133370z"/>
  <path class="fil9 str7" d="m131440 1250680h64840v-65480c0-17830-14590-32420-32420-32420-17840 0-32420 14590-32420 32420v65480z"/>
  <path class="fil9 str7" d="m131440 1090680 64840-8760v-93780c0-17910-14590-32560-32420-32560s-32420 14650-32420 32560v102540z"/>
  <path class="fil9 str7" d="m128900 901870 65110-17490-270-146330c-40-17920-14590-32570-32420-32570-17840 0-32420 14660-32420 32570v163820z"/>
  <path class="fil9 str7" d="m239880 1250670h74110v-74820c0-20380-16670-37060-37050-37060s-37060 16680-37060 37060v74820z"/>
  <path class="fil9 str7" d="m239890 1075770 74100-8260v-107350c0-20460-16680-37210-37050-37210h-10c-20370 0-37040 16750-37040 37210v115610z"/>
  <path class="fil9 str7" d="m237340 873780 75070-12430-970-162150c-110-20470-16670-37210-37040-37210h-10c-20370 0-37050 16750-37050 37210v174580z"/>
  <path class="fil9 str7" d="m45850 1250680h55570v-56130c0-15280-12500-27790-27780-27790h-10c-15280 0-27780 12510-27780 27790v56130z"/>
  <path class="fil9 str7" d="m45850 1111610 55570-11670v-90480c0-15350-12500-27910-27780-27910h-10c-15280 0-27780 12560-27780 27910v102150z"/>
  <path class="fil9 str7" d="m43300 931920 55580-20530v-144170c0-15350-12500-27910-27780-27910h-10c-15280 0-27790 12560-27790 27910v164700z"/>
  <path class="fil9 str7" d="m368190 1250670h83360v-84180c0-22930-18760-41680-41680-41680-22930 0-41680 18750-41680 41680v84180z"/>
  <path class="fil9 str7" d="m368180 1062940 83370-5410v-109020c0-23030-18760-41870-41680-41870h-10c-22920 0-41680 18840-41680 41870v114430z"/>
  <path class="fil9 str7" d="m365640 853800 83370-8600v-171550c0-23030-18760-41860-41680-41860h-10c-22920 0-41680 18840-41680 41860v180150z"/>
  <path class="fil3 str7" d="m9070 1125930c183680-62780 428830-69480 682160-77840"/>
  <path class="fil3 str7" d="m9070 946930c132390-62100 312300-96430 518470-106970"/>
  <path class="fil3 str7" d="m9070 736890c116500-100110 268200-157430 445650-183440"/>
  <path class="fil9 str7" d="m56680 574110 31860-22570c1330-940 2410-70 2410 1920v26590c0 1990-1080 4380-2410 5320l-31860 22570c-1330 940-2420 80-2420-1910v-26590c0-1990 1090-4390 2420-5330z"/>
  <path class="fil9 str7" d="m151580 520150 33290-16230c1740-850 3160 220 3160 2370v28690c0 2150-1420 4610-3160 5460l-33290 16230c-1730 850-3160-220-3160-2370v-28700c0-2150 1430-4600 3160-5450z"/>
  <path class="fil9 str7" d="m261860 465820 37700-9230c2370-580 4320 1e3 4320 3520v33570c0 2520-1950 5050-4320 5630l-37700 9240c-2380 580-4320-1e3 -4320-3520v-33570c0-2520 1940-5060 4320-5640z"/>
  
   
    
     <polygon class="fil5" points="814070 52950 1028060 26970 1042040 143120 828050 169100"/>
     <path id="1" class="fil12" d="m1028540 30960-213990 25980-960-7980 213990-25980 4430 3510-3470 4470zm-960-7980 3950-480 480 3990-4430-3510zm10520 120620-13990-116150 7900-960 13980 116150-3470 4470-4420-3510zm7890-960 480 3990-3950 480 3470-4470zm-218420 22480 213990-25990 960 7980-213990 25980-4430-3510 3470-4460zm960 7970-3950 480-480-3990 4430 3510zm-10510-120620 13980 116150-7900 960-13980-116150 3470-4470 4430 3510zm-7900 960-480-3990 3950-480-3470 4470z"/>
    
    <polygon class="fil5 str10" points="800620 196480 1075190 163150 1089170 279300 814600 312640"/>
    <polygon class="fil5 str10" points="817450 336340 1092020 303010 1106000 419160 831430 452500"/>
    <polygon class="fil5 str10" points="834280 476200 1108850 442860 1122840 559020 848260 592360"/>
    <polygon class="fil5 str10" points="851120 616060 1125690 582720 1139670 698880 865100 732220"/>
    <polygon class="fil5 str10" points="867950 755920 1142520 722580 1156500 838740 881930 872070"/>
    <polygon class="fil5 str10" points="884790 895780 1159360 862440 1173340 978600 898770 1011930"/>
    <polygon class="fil5 str10" points="901620 1035640 1176190 1002300 1190170 1118450 915600 1151790"/>
   
   
    
     <path class="fil9" d="m801420 30440 233590-28360c5430-670 10400 3240 11060 8670l470 3960c660 5430-3250 10410-8680 11070l-233590 28360c-5430 660-10400-3240-11050-8670l-480-3970c-660-5420 3250-10410 8680-11060z"/>
     <path id="1" class="fil12" d="m1035490 6060-233590 28360-960-7970 233590-28360 960 7970zm14530 4210-7900 960-100-600-160-560-100-270-110-270-120-260-140-250-150-240-160-240-170-230-180-220-400-420-220-190-210-180-230-170-250-170-240-150-250-130-270-130-270-110-260-100-280-90-280-70-290-60-290-50-290-30-290-20h-310l-300 10-310 30-960-7970 710-70 700-30h700l690 40 690 80 680 100 670 140 650 170 650 210 630 230 620 270 600 280 590 330 570 340 550 380 530 390 530 430 490 450 470 470 450 490 430 530 410 540 370 550 360 580 320 610 300 620 270 640 240 650 200 670 170 680 140 700 110 710zm-7420 4920-480-3960 7900-960 470 3960-7890 960zm-4260 14580-960-7980 310-50 300-60 290-70 280-90 280-100 270-110 260-130 260-140 250-150 240-160 230-170 220-190 210-190 210-210 190-210 180-220 180-240 160-240 150-240 140-250 120-260 110-260 100-280 90-270 70-270 60-290 50-280 30-280 10-300 10-290-40-600 7890-960 70 710 30 710v710l-40 700-80 690-110 690-140 660-170 670-210 650-240 630-260 620-290 610-320 590-360 570-370 550-400 540-420 520-450 490-470 470-500 450-510 430-540 400-560 380-580 360-590 320-620 300-630 260-650 240-670 200-670 170-690 140-710 110zm-234550 20380 233590-28360 960 7980-233590 28360-960-7980zm-14520-4200 7890-960 50 300 60 290 70 290 80 270 100 280 110 260 130 260 280 500 160 230 180 230 180 220 190 210 210 210 210 190 220 180 230 180 240 160 250 150 250 140 260 120 270 120 260 90 280 90 290 80 280 60 290 40 290 30 300 20h300l300-10 310-30 960 7980-700 60-710 40-690-10-700-40-690-70-680-110-670-140-650-170-640-200-640-240-610-260-610-290-590-320-570-350-550-370-530-400-520-430-500-450-470-470-450-490-430-520-400-540-380-560-360-580-320-600-300-620-270-640-230-650-210-680-170-680-140-690-100-710zm7420-4930 470 3970-7890 960-480-3970 7900-960zm4250-14570 960 7970-300 50-300 60-300 70-280 90-280 100-270 120-260 120-260 140-240 150-240 160-240 180-220 180-420 400-190 220-180 220-180 230-160 240-150 240-130 250-130 260-110 260-100 280-90 270-70 270-60 290-50 280-30 290-10 290v300l10 290 30 300-7900 960-70-710-30-710 10-700 40-700 70-700 110-680 140-670 180-660 200-660 240-630 260-620 290-600 330-600 350-570 370-550 400-530 420-520 450-500 470-470 500-450 520-430 530-400 560-380 580-350 600-330 610-290 630-270 660-240 660-200 680-170 690-140 700-100z"/>
    
    <path class="fil9 str10" d="m787920 173980 294250-35730c5410-660 10370 3250 11020 8680l480 3960c650 5430-3240 10410-8640 11060l-294250 35730c-5410 660-10370-3250-11020-8680l-480-3960c-650-5430 3240-10410 8640-11060z"/>
    <path class="fil9 str10" d="m804760 313840 294250-35730c5410-660 10360 3250 11010 8680l480 3960c660 5430-3230 10410-8640 11060l-294250 35730c-5400 650-10360-3250-11020-8680l-470-3960c-660-5430 3230-10410 8640-11060z"/>
    <path class="fil9 str10" d="m821590 453690 294250-35720c5410-660 10370 3250 11020 8680l480 3960c650 5420-3240 10400-8640 11060l-294260 35730c-5400 650-10360-3250-11010-8680l-480-3960c-650-5430 3230-10410 8640-11070z"/>
    <path class="fil9 str10" d="m838430 593550 294250-35720c5400-660 10360 3250 11010 8670l480 3960c650 5430-3240 10410-8640 11070l-294250 35720c-5410 660-10370-3240-11020-8670l-480-3960c-650-5430 3240-10410 8650-11070z"/>
    <path class="fil9 str10" d="m855260 733410 294250-35730c5410-650 10360 3250 11020 8680l470 3960c660 5430-3230 10410-8640 11070l-294250 35720c-5400 660-10360-3240-11020-8670l-470-3970c-660-5430 3230-10400 8640-11060z"/>
    <path class="fil9 str10" d="m872090 873270 294250-35730c5410-650 10370 3250 11020 8680l480 3960c650 5430-3240 10410-8640 11070l-294250 35720c-5410 660-10370-3250-11020-8680l-480-3960c-650-5430 3240-10410 8640-11060z"/>
    <path class="fil9 str10" d="m888930 1013130 294250-35730c5410-660 10360 3250 11010 8680l480 3960c660 5430-3230 10410-8640 11060l-294250 35730c-5400 660-10360-3250-11020-8680l-470-3960c-660-5430 3230-10410 8640-11060z"/>
   
   
    <path class="fil9 str10" d="m850450 166380 23210-2810-10630-88360c-770-6380-6620-10970-13000-10190h-10c-6380 780-10970 6630-10200 13010l10630 88350z"/>
    <path class="fil9 str10" d="m839350 309630 23210-2810-10630-88360c-770-6380-6620-10970-13000-10190h-10c-6380 780-10970 6630-10200 13010l10630 88350z"/>
    <path class="fil9 str10" d="m856190 449490 23200-2810-10630-88360c-770-6380-6620-10970-13000-10190-6380 770-10980 6630-10210 13010l10640 88350z"/>
    <path class="fil9 str10" d="m873020 589350 23210-2820-10640-88350c-760-6380-6610-10970-13000-10190-6380 770-10970 6630-10200 13010l10630 88350z"/>
    <path class="fil9 str10" d="m889850 729210 23210-2820-10630-88350c-770-6380-6620-10970-13000-10190-6380 770-10980 6630-10210 13010l10630 88350z"/>
    <path class="fil9 str10" d="m906690 869070 23210-2820-10640-88350c-770-6380-6620-10970-13000-10200-6380 780-10970 6630-10210 13020l10640 88350z"/>
    <path class="fil9 str10" d="m923520 1008930 23210-2820-10630-88350c-770-6380-6620-10970-13000-10200h-10c-6380 780-10970 6630-10200 13010l10630 88360z"/>
    <path class="fil9 str10" d="m940360 1148790 23200-2820-10630-88350c-770-6390-6620-10970-13000-10200-6380 780-10980 6630-10210 13010l10640 88360z"/>
    <path class="fil9 str10" d="m1001700 148020 23210-2820-10630-88350c-770-6380-6620-10970-13000-10190-6390 770-10980 6630-10210 13010l10630 88350z"/>
    <path class="fil9 str10" d="m990600 291270 23210-2820-10630-88350c-770-6380-6620-10970-13000-10190h-10c-6380 770-10970 6630-10200 13010l10630 88350z"/>
    <path class="fil9 str10" d="m1007440 431130 23210-2820-10640-88350c-770-6380-6620-10970-13000-10200-6380 780-10970 6640-10210 13020l10640 88350z"/>
    <path class="fil9 str10" d="m1024270 570990 23210-2820-10640-88350c-760-6380-6610-10970-12990-10200h-10c-6380 780-10970 6630-10200 13020l10630 88350z"/>
    <path class="fil9 str10" d="m1041110 710850 23200-2820-10630-88350c-770-6390-6620-10970-13000-10200-6380 780-10980 6630-10210 13010l10640 88360z"/>
    <path class="fil9 str10" d="m1057940 850700 23210-2810-10640-88350c-770-6390-6610-10980-13000-10200-6380 780-10970 6630-10210 13010l10640 88350z"/>
    <path class="fil9 str10" d="m1074770 990560 23210-2810-10630-88360c-770-6380-6620-10970-13000-10190h-10c-6380 770-10970 6630-10200 13010l10630 88350z"/>
    <path class="fil9 str10" d="m1091610 1130420 23210-2820-10640-88350c-770-6380-6620-10970-13000-10190-6380 770-10970 6630-10210 13010l10640 88350z"/>
    <path class="fil9 str10" d="m1041740 285060 23210-2820-10630-88350c-770-6380-6620-10970-13000-10190h-10c-6380 770-10970 6630-10200 13010l10630 88350z"/>
    <path class="fil9 str10" d="m1058580 424920 23200-2820-10630-88350c-770-6380-6620-10970-13000-10190-6380 770-10980 6630-10210 13010l10640 88350z"/>
    <path class="fil9 str10" d="m1075410 564780 23210-2820-10640-88350c-760-6380-6610-10970-13000-10200-6380 780-10970 6640-10200 13020l10630 88350z"/>
    <path class="fil9 str10" d="m1092240 704640 23210-2820-10630-88350c-770-6380-6620-10970-13000-10200h-10c-6380 780-10970 6630-10200 13020l10630 88350z"/>
    <path class="fil9 str10" d="m1109080 844500 23210-2820-10640-88350c-770-6390-6620-10970-13000-10200-6380 780-10970 6630-10210 13010l10640 88360z"/>
    <path class="fil9 str10" d="m1125910 984350 23210-2810-10630-88350c-770-6390-6620-10980-13000-10200h-10c-6380 770-10970 6630-10200 13010l10630 88350z"/>
    <path class="fil9 str10" d="m1142750 1124210 23200-2810-10630-88360c-770-6380-6620-10970-13000-10190-6380 770-10980 6630-10210 13010l10640 88350z"/>
    <path class="fil9 str10" d="m950570 154230 23200-2820-10630-88350c-770-6380-6620-10970-13000-10200-6380 780-10980 6640-10210 13020l10640 88350z"/>
    <path class="fil9 str10" d="m939470 297480 23200-2820-10630-88350c-770-6380-6620-10970-13000-10200-6380 780-10980 6640-10210 13020l10640 88350z"/>
    <path class="fil9 str10" d="m956300 437340 23210-2820-10640-88350c-770-6380-6620-10970-13000-10200-6380 780-10970 6630-10210 13020l10640 88350z"/>
    <path class="fil9 str10" d="m973130 577200 23210-2820-10630-88350c-770-6390-6620-10970-13000-10200-6390 780-10980 6630-10210 13020l10630 88350z"/>
    <path class="fil9 str10" d="m989970 717060 23210-2820-10640-88350c-770-6390-6620-10970-13000-10200-6380 780-10980 6630-10210 13010l10640 88360z"/>
    <path class="fil9 str10" d="m1006800 856910 23210-2810-10630-88360c-770-6380-6620-10970-13000-10190h-10c-6380 770-10970 6630-10200 13010l10630 88350z"/>
    <path class="fil9 str10" d="m1023640 996770 23200-2820-10630-88350c-770-6380-6620-10970-13000-10190-6380 770-10980 6630-10210 13010l10640 88350z"/>
    <path class="fil9 str10" d="m1040470 1136630 23210-2820-10640-88350c-770-6380-6620-10970-13000-10190-6380 770-10970 6630-10200 13010l10630 88350z"/>
    <path class="fil9 str10" d="m899430 160440 23210-2820-10640-88350c-770-6380-6620-10970-13000-10200-6380 780-10980 6630-10210 13020l10640 88350z"/>
    <path class="fil9 str10" d="m888330 303690 23210-2820-10640-88350c-770-6380-6620-10970-13000-10200-6380 780-10980 6630-10210 13020l10640 88350z"/>
    <path class="fil9 str10" d="m905160 443550 23210-2820-10630-88350c-770-6380-6620-10970-13000-10200h-10c-6380 780-10970 6630-10200 13020l10630 88350z"/>
    <path class="fil9 str10" d="m922000 583410 23200-2820-10630-88350c-770-6390-6620-10970-13000-10200-6380 780-10980 6630-10210 13010l10640 88360z"/>
    <path class="fil9 str10" d="m938830 723260 23210-2810-10640-88360c-760-6380-6610-10970-13000-10190-6380 770-10970 6630-10200 13010l10630 88350z"/>
    <path class="fil9 str10" d="m955660 863120 23210-2820-10630-88350c-770-6380-6620-10970-13000-10190h-10c-6380 770-10970 6630-10200 13010l10630 88350z"/>
    <path class="fil9 str10" d="m972500 1002980 23210-2820-10640-88350c-770-6380-6620-10970-13000-10190-6380 770-10980 6630-10210 13010l10640 88350z"/>
    <path class="fil9 str10" d="m989330 1142840 23210-2820-10630-88350c-770-6380-6620-10970-13000-10200h-10c-6380 780-10970 6640-10200 13020l10630 88350z"/>
   
  
  <line class="fil3 str11" x1="1741290" x2="1793940" y1="1204640" y2="1204820"/>
  
   <path class="fil13 str12" d="m1682600 1570540h-21940v18090c60 3890-9560 3710-9550 6490v12750h31490v-37330z"/>
   <path class="fil13 str12" d="m1746300 1568010h21940v18090c-60 3900 9560 3710 9560 6490v12760h-31500v-37340z"/>
   <path class="fil14 str12" d="m1660660 1571840c-1960-700-2660-3920-2910-5940-8610-68750-11230-158960-6560-236570 42600 270 85210 530 127810 790 2e3 60180 10 185330-5990 232270-260 2020-2740 5300-4770 5620h-21940c-2020-590-4610-3740-5110-5610-11960-44940-22320-91090-29450-139670-6700 48210-15460 95740-25760 142740-410 1880-1020 5130-3380 6030-8740 270-13200 80-21940 340z"/>
   <path class="fil15 str12" d="m1649270 1276000c-5970-3560-11940-7120-17910-10690-9230-7650-19310-16030-17900-24780 12320-56480 36540-101590 75960-132160 19910-3540 38890-720 58160 940 35260 31950 58160 70930 67620 121020 4520 12880-5240 23080-16200 31580-5160-3400-8150-3400-13310-6800-1930 7770-3870 15550-5800 23320 320 15390 640 30780 970 46160 240 4420-2550 7490-7260 7780-37740 480-75470 970-113210 1450-7900 0-12170-6560-12090-14570 320-14420 640-28830 970-43250z"/>
   <path class="fil13 str12" d="m1727590 1140290c-9280-1670-21350 1040-30630-630-6610-8140-10840-17420-10680-28790 170-3660 2770-6350 6340-7340 17370-4670 31140-3340 49660-530 4060 1130 6070 4030 5300 6310-5420 13530-8880 18790-19990 30980z"/>
   <path class="fil13 str12" d="m1736430 1065990c-14350 440-28690 880-43040 1330-2950-6730-6e3 -13300-5350-25290 2030-9660 6230-15500 12580-17250 9030-3080 18670-2390 28540-1220 9840 3120 14600 11220 13550 17740-350 12130-3030 19040-6280 24690z"/>
   <path class="fil13 str12" d="m1757230 1124400c-3020 70150 8580 90610 19280 104060 2230 2460 8910 30 10570-2520-8190-14910-19720-32270-14610-92320 10690 19250 21380 38490 32070 57740 14310-7420 19170-29900 11710-39750-9270-13360-24350-29390-37250-36440-7750-5430-16940 3480-21770 9230z"/>
   <path class="fil5 str12" d="m1659630 1246590-26160 19980 37770 26910c16250 8340 20040-6650 13180-15550-7660-11100-15820-20380-24790-31340z"/>
   <path class="fil5 str12" d="m1772830 1241930c8720 6660 17450 13320 26170 19980-12590 8970-25190 17940-37780 26910-16240 8340-20030-6640-13180-15550 7660-11100 15820-20380 24790-31340z"/>
   <path class="fil5 str12" d="m1736850 1115660-8480-280v-26560h-26860v25690l-9050-300c-4720-850-3340 4880-2180 8740 3630 15550 14510 30830 22740 30980 9120 110 15330-16750 24310-29280 1890-3240 2090-8300-480-8990z"/>
   <path class="fil5 str12" d="m1699310 1092050c-4810-12590-6800-26120-6770-40330-60-3420 3630-7390 7260-6620 10870 2500 20890 2680 29510-970 3620-1360 8890 1050 8700 4670-1130 17020-3040 33040-8700 44220-1690 2730-12220 10200-15970 10200-3280-110-12560-7050-14030-11170z"/>
   <path class="fil3 str12" d="m1772830 1241930c5120-5450 11640-11680 14920-17040"/>
   <line class="fil3 str12" x1="1659630" x2="1649850" y1="1246590" y2="1234730"/>
   <path class="fil16 str13" d="m1665510 1298850c32230 7050 65170 5680 98460 0-9150-7990-15850-16940-16900-28100-22230 4250-43840 4580-64670 0-2080 10950-8470 19980-16890 28100z"/>
  
  <polygon class="fil17 str14" points="979940 1655460 1012930 1748010 1366860 1543000 1374130 1.47e6 1047450 1609590"/>
  <path class="fil5 str15" d="m143320 1486950c400-87640 12680-143890 38230-165050 48930-47750 104980-91530 170780-129640 119890-187240 232610-321620 328660-365240 40900-16930 282460-43150 421990-39640 14840 160 26150 670 37730 3990 121390 40680 234330 88590 343800 139240 13580 6560 17700 16730 21600 32290 40020 137620 40140 275240 29780 412850-2090 19890-22320 35200-49640 53850-139670 73800-279340 147600-419020 221390-70390 30930-140770 61860-211160 92790-4060 1720-18700 6250-29810 7260-167220 20060-341680 17550-631240-96930-44270-20430-68890-98010-67650-148860 1750-4730 13210-14440 15950-18300z"/>
  <path class="fil18" d="m1166060 800010c108550 37620 214190 82360 318450 130600 13580 6560 17700 16730 21600 32290 40020 137620 40140 275240 29780 412850-2090 19890-22320 35200-49640 53850-139670 73800-279340 147600-419020 221390-21030-57710-42070-115430-63110-173140-4290-26320-18030-47270-40590-63220 21950-160570 44170-317500 110480-494260 18890-60470 64820-123010 92050-120360z"/>
  <path class="fil3 str16" d="m868950 1538670c68290-152850 143270-165480 183930-59220"/>
  <path class="fil13 str17" d="m922570 1542660c-30880 63700-59370 205940-95710 208310-173010 22420-331560 21860-631840-96860-44270-20430-68890-98010-67650-148860 1750-4730 13210-14440 15950-18300 96430 52120 220770 82690 386050 81630 57620 1730 115210 3410 172770 4990 38530 290 69780-5350 96310-12960 23500-7320 47000-14630 70500-21940 17870 1330 35750 2660 53620 3990z"/>
  <line class="fil3 str16" x1="586810" x2="629590" y1="1447280" y2="1445570"/>
  <line class="fil3 str16" x1="196960" x2="184900" y1="1405630" y2="1404510"/>
  <path class="fil19" d="m196960 1407510c0-10810 120-18370 5950-18950 126460 1980 252510 16800 378310 39390 7440 80 9680 11260 4470 21940-21900 44190-46930 81500-83410 93740-102900 2290-197140-10940-281490-41890-24080-24930-22210-57860-23830-94230z"/>
  <g clip-path="url(#c)">
   
    <path id="1" class="fil13 str7" d="m197820 1430600c-260-6910-510-13830-760-20740 121400 19540 251190 34020 385840 45580-3120 5830-6240 11660-9360 17490-126970-10070-252730-22950-375720-42330z"/>
    <path class="fil13 str7" d="m205380 1477400c-1740-6710-3470-13430-5210-20140 116760 20050 234250 35630 352330 47690-4560 5130-9110 10250-13660 15380-114330-9210-225760-23090-333460-42930z"/>
   
  </g>
  <path class="fil3" d="m196960 1407510c0-10810 120-18370 5950-18950 126460 1980 252510 16800 378310 39390 7440 80 9680 11260 4470 21940-21900 44190-46930 81500-83410 93740-102900 2290-197140-10940-281490-41890-24080-24930-22210-57860-23830-94230z"/>
  <path class="fil20 str18" d="m1208330 949140c-6320-2300-15570 50-13900 7480 12250 83110 24500 166210 36740 249310 1860 9680 6080 18740 16380 17450 88370-10300 176740-20600 265110-30910 3380-890 4300-1690 3980-5480-5130-52360-10260-104720-15390-157070-250-4490-4470-10470-10430-11970-94160-22930-188320-45870-282490-68810z"/>
  <path class="fil14 str16" d="m1097510 950440c15720-830 31440-1660 47160-2490 5760 470 11710 3510 11920 9470 5780 61330 7130 122660 6950 183990 410 18840-50240 72920-97800 85770-13740-28090-27470-56180-41210-84270 15890-57670 31770-115350 47660-173020 3700-12720 14210-17990 25320-19450z"/>
  <path class="fil3 str16" d="m1016930 1253710c11390 12420 10370 27340 10350 179380"/>
  <polygon class="fil13 str19" points="1024530 1142910 982050 1277020 1051800 1230400 1065740 1227180"/>
  <path class="fil19 str20" d="m1062970 1234640c-12660-250-4460-132640 5960-143610 7700-5650 49520-3440 53620 2500 28920 38160 27550 79840-7080 136620-4050 5070-36650 6150-52500 4490z"/>
  <path class="fil3 str16" d="m1429340 1353990c13730-50300 36190-62270 49930-21600 370 1110 1980 7120 2350 8310"/>
  <path class="fil13 str16" d="m1036990 1503380c9010-7740 13500-15850 15890-23930 125440-41720 251020-83750 376460-125460 4750 3080 11260 3220 18970 4050-3970 15700-7940 31410-11920 47120-3170 250-6750-10-10670-500l-358440 153570c-4230 3980-9520 6010-15390 6980-4970-20610-9930-41220-14900-61830z"/>
  <path class="fil13 str17" d="m1479130 1382580c-2060-11550-4130-23100-6200-34650 3230-2320 7170-6220 7440-12090 20100-7050 39210-13470 59310-20520-750 12850-1490 25710-2230 38560-19440 9570-38880 19140-58320 28700z"/>
  <path class="fil19" d="m1448310 1358040c-1990 7850-3970 15700-5960 23560 8180 36930 16370 73860 24550 110790 260 3490 10020-1110 11220-6720 3820-34360 5140-68720 1010-103090-880-11250-2960-23920-6200-34650-5900-12010-16780-11540-24620 10110z"/>
  <path class="fil3 str21" d="m1489380 1427460c-4710 3730-7810 8510-7710 220 30-15030-730-30070-2540-45100-880-11250-2960-23920-6200-34650-5900-12010-16780-11540-24620 10110-1990 7850-3970 15700-5960 23560"/>
  <path class="fil13 str22" d="m1444690 1372330c-2160 8550-5680 21800-8300 32830-5880 24800-10730 50120-23240 63060l-56980 29860c410 10430 2050 22120 5160 35340 1920 8910 2720 9220 5530 9580 23260 4960 56230 7920 74270 1740 21710-11720 29510-64790 31680-98900 910-36830-5180-65280-28120-73510z"/>
  <path class="fil3 str21" d="m1444690 1372330c-2160 8550-5680 21800-8300 32830-5880 24800-10730 50120-23240 63060l-56980 29860"/>
  <ellipse class="fil21 str23" transform="matrix(.95196 .048908 -.048696 .9561 1448480 1461910)" rx="12630" ry="54830"/>
  <path class="fil19 str21" d="m1020850 1671370c-32760-42900-65520-85810-98280-128710 49560-82690 84730-77650 114420-39280 13330 51350 22580 98630 30240 147610-16460 7330-29910 13060-46380 20380z"/>
  <path class="fil13 str22" d="m922570 1542660c-29990 55450-54260 204530-95710 208310-28450 3470-40150 4760-62290 6940 1400 27100 8940 54590 23670 81950 1280 3470 7790 10010 12350 11960 43570 14680 100580 19520 138330 9230 42240-18890 81570-101690 81610-167030 2500-44460-6750-106920-21350-131640-18330-16710-45050-21620-76610-19720z"/>
  <path class="fil3 str24" d="m127370 1505250c112670 64870 330900 86740 580120 98360 16180 210 35210-1080 48780-3990 66250-9290 118590-31040 166300-56960"/>
  <path class="fil3 str21" d="m922570 1542660c-29990 55450-54260 204530-95710 208310-28450 3470-40150 4760-62290 6940"/>
  <path class="fil3 str25" d="m938920 1861050c-52290-25710-61710-106950-43510-181490"/>
  <path class="fil3 str25" d="m1441130 1544740c-11090-18240-16910-40690-17810-66970"/>
  
   <path class="fil22" d="m1032560 946190c-34750 88420-51410 158940-86160 247360-196910-3200-383310-7660-580220-10860 52220-83010 99850-143150 161020-214080 3230-3740 14210-8260 25280-9640 156460-19250 304770-24280 472140-26740 8460 1550 10080 6750 7940 13960z"/>
   <path id="1" class="fil13" d="m366180 1182690c52220-83010 99850-143150 161020-214080 3230-3740 14210-8260 25280-9640 156460-19250 304770-24280 472140-26740 8460 1550 10080 6750 7940 13960-34750 88420-51410 158940-86160 247360-196910-3200-383310-7660-580220-10860zm608760-117480c12300-38010 24590-76010 40660-117590-79800 1230-155490 3110-230360 6940-76920 3940-152720 9990-230900 19600-4110 520-8190 1590-11580 2880-2500 950-3990 1540-4020 1560-30310 35160-57310 67680-83260 101790-20910 27480-41070 55910-61680 87500 89090 1500 175880 3240 262670 4970 92520 1850 185050 3700 279530 5260 15400-40140 27180-76530 38940-112910z"/>
  
  <path class="fil3 str26" d="m1032560 946190c-34750 88420-51410 158940-86160 247360-196910-3200-383310-7660-580220-10860 52300-83140 1e5 -143340 161310-214420 5370-5390 10600-6670 23010-9060 157180-19450 306040-24510 474120-26980 8460 1550 10080 6750 7940 13960z"/>
  <path class="fil3 str16" d="m1541640 1228650c-175720 22030-321280 76030-449340 148600"/>
  <path class="fil3 str16" d="m1013850 1126940c58400-232640 51090-207260 108470-208200 92980 6750 210670 38680 397640 98780"/>
  <path class="fil3 str16" d="m1065930 940920c25600-63000 31850-102390 80130-93460 127300 33460 247310 78810 364010 129560"/>
  <path class="fil19" d="m537210 1606850c-121050-12950-240030-30920-354470-59830 11590 19220 26180 36550 46710 50120 11620 6640 163100 36310 254150 48110 22050 3590 38850-13390 53610-38400z"/>
  <rect class="fil19 str20" x="1034020" y="1173680" width="22960" height="47350"/>
  
   <path class="fil20" d="m974130 1607050c21540 2540 32760 48160 25080 101910-7690 53750-31370 95270-52900 92730-21530-2530-32760-48160-25070-101900 7680-53750 31360-95270 52890-92740z"/>
   <path id="f" class="fil2 str5" d="m974130 1607050c21540 2540 32760 48160 25080 101910-7690 53750-31370 95270-52900 92730-21530-2530-32760-48160-25070-101900 7680-53750 31360-95270 52890-92740z"/>
  
  <path class="fil22 str16" d="m181550 1321900c-18980 17380-33690 51460-37300 128910 8730 13170 24440 22030 41800 29870-5220-52920 3950-110590-4500-158780z"/>
  <path class="fil22 str16" d="m586320 1537400c-3400-90-11710 1040-9930-3490 65310-143550 146650-171350 266600-168530 8230 40 11560 1270 9430 7970-56740 150960-45470 162590-266100 164050z"/>
  <path class="fil3 str21" d="m826260 1751040c-167220 20060-341680 17550-631240-96930-44270-20430-68890-98010-67650-148860 1750-4730 13210-14440 15950-18300 400-87640 12680-143890 38230-165050 48930-47750 104980-91530 170780-129640 119890-187240 232610-321620 328660-365240 40900-16930 282460-43150 421990-39640 14840 160 26150 670 37730 3990 121390 40680 234330 88590 343800 139240 13580 6560 17700 16730 21600 32290 40020 137620 40140 275240 29780 412850-2090 19890-22320 35200-49640 53850m-75090 39680c-3110 1640-6220 3290-9330 4930-111530 58920-223060 117850-334600 176780"/>
  <path class="fil3 str16" d="m780110 1367510c52640-58040 98380-130610 160290-182000"/>
  <path class="fil3 str27" d="m1410190 1316100c-7530-23110-11980-48390-13350-67470"/>
  <ellipse class="fil23 str28" cx="1367390" cy="1832960" rx="125060" ry="36070"/>
  <ellipse class="fil23 str28" cx="1573470" cy="1826390" rx="74200" ry="25070"/>
  <path class="fil23 str29" d="m1969520 1293010c17100 0 30950-6280 30950-14020h-61900c0 7740 13860 14020 30950 14020z"/>
  <path class="fil3 str30" d="m1435000 1384260c13520-49520 35640-61300 49160-21260 370 1090 1960 7010 2310 8180"/>
  <path class="fil5 str31" d="m1306970 1488180h67760c-330 41270-7060 78780-17250 114280-2110 9230-1740 2e4 620 27220 21750 65610 16430 123870-1240 178770-5750-620-11490-1240-17240-1860-1840-46700-3940-93470-21560-143510-4320-11180-10470-19430-11090-34020-1560-46960-2550-93920 0-140880z"/>
  <path class="fil13 str31" d="m1335660 1818350c6990 3880 12620 3640 17560 2160 1600 7230 1790 14310 1540 21340-19400-100-38800-200-58200-310-700-2880 1230-7630 4610-8660 26590-2520 26540-14020 34490-14530z"/>
  <path class="fil5 str31" d="m1341690 1806810c4310 470 8610 930 12920 1390-460 4110-930 8210-1390 12310-5460 6e3 -10560 6220-15200-980 1220-4240 2450-8480 3670-12720z"/>
  <path class="fil5 str31" d="m1364530 1488180h67750c-330 41270-7060 78780-17240 114280-2110 9230-1750 2e4 610 27220 21760 65610 16440 123870-1230 178770-5750-620-11490-1240-17250-1860-1840-46700-3930-93470-21550-143510-4320-11180-10470-19430-11090-34020-1560-46960-2550-93920 0-140880z"/>
  <path class="fil13 str31" d="m1393220 1818350c6990 3880 12620 3640 17560 2160 1600 7230 1780 14310 1530 21340-19390-100-38800-200-58200-310-690-2880 1240-7630 4620-8660 26590-2520 26540-14020 34490-14530z"/>
  <path class="fil5 str31" d="m1399250 1806810c4310 470 8610 930 12920 1390-460 4110-930 8210-1390 12310-5460 6e3 -10560 6220-15200-980 1220-4240 2450-8480 3670-12720z"/>
  <path class="fil15 str32" d="m1302140 1488180c45730 410 91720 410 137970 0 11080-1550 12010-12680 9230-25980-8750-48270-22180-97010-39150-146100-12590 23350-47770 29960-111480 15460-4600 48490-9210 96990-13810 145490-870 6960 8260 9890 17240 11130z"/>
  <path class="fil13 str31" d="m1410190 1316100c6370 21970 13540 43600 22790 64330 2870 6340 6060 12960 12320 12370 13550-2890 27100-5770 40650-8660 5030-1390 1740-11600 1230-22270-3350-34760-35060-117380-51740-152170-7140-12340-16460-21480-28950-25980-8160-3350-19400-2530-27710-4950 820-5770 3650-17080-1690-16200-16000 6120-26480 9330-44330 11940-4310 1240-3250 6730-3870 9830-8490 3550-18500 4300-26300 7780-5220 3110-6430 12920-8190 24380-3830 28130-3900 50980-1850 74850-2810 40030-11020 71080-1680 72980l3200-33730c22990 4380 49240 10500 77320 7140 16630-3490 29560-10720 38800-21640z"/>
  <path class="fil5 str31" d="m1336360 1173960c10980-2830 21960-5660 32940-8490 230-7040 470-14080 700-21110 3690-10 6470-1130 8310-3400 930-10110 1850-20210 2780-30310-7600-15250-22580-26620-47430-32790-6670-1520-12010 1320-15400 10520-300 7730-530 16690-840 24430-1330 2680-3590 6290-4230 9200-660 2330 2080 1720 3e3 3170 310 4430 620 10720 930 15160 460 4760 3850 7140 6540 7420 4010 0 7930-1240 11940-1240 280 10180 470 17270 760 27440z"/>
  <path class="fil13 str31" d="m1377150 1116270c570 5180 140 9980-930 14540-950 4130-6980 5780-7240 10520-50 4500 28850 4230 32650 1230 2560-1540 4670-2700 4460-5560-3690-18660-7390-37330-11080-55990-2110-7460-10220-12510-24330-15150-13990-2e3 -28850-3820-42500-310-10120 3560-14240 6800-14160 13300 340 12810 690 25630 1040 38450 5270-14670 60-30100 12110-39350 3380-1750 5640-2610 6490-90 5010 19070 12200 29340 21310 31920 7390 2160 20480-2630 22180 6490z"/>
  <line class="fil3 str33" x1="1518520" x2="1488740" y1="1561760" y2="1466030"/>
  <path class="fil5 str31" d="m1450880 1391610c6140-1310 12290-2620 18430-3930 9540 22110 19080 44220 28620 66320 2880 6340 15510 23260-3080 25980-20110 4070-13290-21250-16010-26600-9320-20590-18640-41180-27960-61770z"/>
  <rect class="fil13 str34" transform="matrix(-5.1567 1.6177 2.0135 6.4742 1609190 1533320)" width="25000" height="38000" rx="3750" ry="3750"/>
  <path class="fil3 str31" d="m1292550 1291350c4760 12170 5490 25810 6160 40210"/>
  <path class="fil3 str31" d="m1410190 1316100c-7530-23110-11980-48390-13350-67470"/>
  
   <line class="fil3 str35" x1="1969520" x2="1969520" y1="834190" y2="1264450"/>
   <ellipse class="fil9 str7" cx="1969520" cy="834190" rx="9540" ry="9590"/>
   <path class="fil13 str35" d="m1973310 1240660h-7580c-2980 0-5420 2430-5420 5420v27620h18430v-27620c0-2990-2450-5420-5430-5420z"/>
   <path class="fil5" d="m2143600 984880c1960-36730 9740-72780 8200-109550-50-4970-2220-5870-6900-5950-60720-2130-116520 22550-175380 6280v117980c52700 6430 109500-5910 163770-1370 6990 860 9820 1060 10310-7390z"/>
   <g clip-path="url(#b)">
    
     <path class="fil24" d="m2159480 854100c5990 5010 8230 53230 8230 62840 0 33990 5140 39590-13550 70970-5370 9010-30510 9960-41240 12170-8980 1840-29510-3620-24920-16140 2440-6680 7090-64940 5430-74410-2140-12210-10780-58800-4570-66250 11500-13780 60070-18860 70180 10330l440 490z"/>
     <path class="fil25" d="m2024580 868800c0 35640 20360 101120 4440 135210-3100 6630-60070 4790-73290-11140-16050-19330-23440-60930-28070-85780-7460-39960 36550-52570 67520-48780 8080 990 29400 3820 29400 10490z"/>
    
   </g>
   <path class="fil3" d="m2143600 984880c1960-36730 9740-72780 8200-109550-50-4970-2220-5870-6900-5950-60720-2130-116520 22550-175380 6280v117980c52700 6430 109500-5910 163770-1370 6990 860 9820 1060 10310-7390z"/>
   <line class="fil3 str36" x1="1938570" x2="2000480" y1="1278990" y2="1278990"/>
  
  <path class="fil5 str36" d="m153730 1227650c21220-320 42440-1890 63650 60 3120 0 5670 2560 5670 5690-1330 10250 2140 19020 0 29770 0 3130-2550 5690-5670 5690h-70620c-3110 0-5660-2560-5660-5690-690-8640 1470-15230 810-24020-290-5340 6380-10980 11820-11500z"/>
  <path class="fil5 str36" d="m28170 1200720c43480-670 86960-3870 130440 120 6380 0 11600 5240 11600 11650-2710 21020 4400 38980 0 61020 0 6410-5220 11660-11600 11660h-144730c-6380 0-11600-5250-11600-11660-1400-17710 3010-31210 1670-49220-600-10940 13080-22510 24220-23570z"/>
  <path class="fil13 str37" d="m120880 1198880c-4070 10-8130 20-12190 40-3610 6330-15690 16070-14050 23000 1970 7570 7670 22780 11000 30090-2090-7420-1970-23260-2880-30430 1360-8100 13210-16040 18120-22700z"/>
  <path class="fil5 str36" d="m68870 1260800c25610-390 51220-2270 76830 70 3760 0 6830 3090 6830 6870-1590 12380 2590 22960 0 35940 0 3770-3070 6860-6830 6860h-85240c-3760 0-6840-3090-6840-6860-820-10430 1780-18380 990-28990-350-6450 7700-13260 14260-13890z"/>
  <path class="fil13 str37" d="m147450 1262730c1040 1830 2090 3670 3130 5500-1890 3260-3110 11220-6630 12280-3880 1070-12150 2440-16270 2830 3850-980 10890-5130 14320-6580 3270-2710 3740-10090 5450-14030z"/>
  <line class="fil3 str38" x1="1663310" x2="1587630" y1="1785000" y2="1541700"/>
  <line class="fil3 str38" x1="1574050" x2="1498370" y1="1813000" y2="1569700"/>
  <line class="fil3 str38" x1="1618680" x2="1543000" y1="1799000" y2="1555700"/>
  <circle class="fil5 str39" cx="1559080" cy="1811370" r="29080"/>
  <ellipse class="fil3 str39" cx="1559080" cy="1811370" rx="11860" ry="11910"/>
 
</svg>
