<?xml version="1.0" encoding="UTF-8"?>
<!DOCTYPE svg PUBLIC "-//W3C//DTD SVG 1.1//EN" "http://www.w3.org/Graphics/SVG/1.1/DTD/svg11.dtd">
<!-- Creator: CorelDRAW 2020 (64-Bit) -->
<svg xmlns="http://www.w3.org/2000/svg" xml:space="preserve" width="370px" height="500px" version="1.1" style="shape-rendering:geometricPrecision; text-rendering:geometricPrecision; image-rendering:optimizeQuality; fill-rule:evenodd; clip-rule:evenodd"
viewBox="0 0 370000 500000"
 xmlns:xlink="http://www.w3.org/1999/xlink"
 xmlns:xodm="http://www.corel.com/coreldraw/odm/2003">
 <defs>
  <style type="text/css">
   <![CDATA[
    .str0 {stroke:#414D54;stroke-width:5000;stroke-miterlimit:2.61313}
    .fil7 {fill:#414D54}
    .fil9 {fill:#999999}
    .fil2 {fill:#B3B3B3}
    .fil0 {fill:#CEDAED}
    .fil8 {fill:#E6E6E6}
    .fil4 {fill:#F6F6F6}
    .fil6 {fill:white}
    .fil11 {fill:#253138;fill-rule:nonzero}
    .fil10 {fill:#3E7DFF;fill-rule:nonzero}
    .fil5 {fill:#414D54;fill-rule:nonzero}
    .fil3 {fill:#B3B3B3;fill-rule:nonzero}
    .fil1 {fill:white;fill-rule:nonzero}
   ]]>
  </style>
    <mask id="id0">
  <linearGradient id="id1" gradientUnits="userSpaceOnUse" x1="185000" y1="500000" x2="185000" y2="0">
   <stop offset="0" style="stop-opacity:0; stop-color:white"/>
   <stop offset="0.2" style="stop-opacity:1; stop-color:white"/>
   <stop offset="0.501961" style="stop-opacity:1; stop-color:white"/>
   <stop offset="0.8" style="stop-opacity:1; stop-color:white"/>
   <stop offset="1" style="stop-opacity:0; stop-color:white"/>
  </linearGradient>
     <rect style="fill:url(#id1)" width="370000" height="500000"/>
    </mask>
    <clipPath id="id2">
     <path d="M172460 156200l121870 0 0 121950 -121870 0 0 -121950z"/>
    </clipPath>
    <clipPath id="id3">
     <path d="M245770 215480l-131670 0 0 87290 131670 0 0 -87290z"/>
    </clipPath>
    <clipPath id="id4">
     <path d="M53720 325390l121400 0 0 -90630 -121400 0 0 90630z"/>
    </clipPath>
    <clipPath id="id5">
     <path d="M114100 350460l121400 0 0 -70060 -121400 0 0 70060z"/>
    </clipPath>
    <clipPath id="id6">
     <path d="M53720 325390l-30810 -6490 0 -87360 30810 3220 0 90630z"/>
    </clipPath>
    <clipPath id="id7">
     <path d="M114100 280400l121400 0 -4600 -5340 -112120 0 -4680 5340z"/>
    </clipPath>
 </defs>
 <g id="Layer_x0020_1">
  <metadata id="CorelCorpID_0Corel-Layer"/>
  <g id="_1719438580768">
   <polygon class="fil0" style="mask:url(#id0)" points="0,0 370000,0 370000,500000 0,500000 "/>
   <g>
    <path class="fil1" d="M308330 150420l-149860 0 0 -16450 149860 0 2500 390 -2500 16060zm0 -16450c4530,0 8220,3690 8220,8230 0,4540 -3690,8220 -8220,8220l0 -16450zm20590 23470l-23100 -7410 5010 -15670 23100 7410 5720 7830 -10730 7840zm5010 -15670c4330,1380 6710,6020 5320,10340 -1380,4330 -6010,6710 -10330,5330l5010 -15670zm-10720 101830l0 -94000 16440 0 0 94000 -8220 8220 -8220 -8220zm16440 0c0,4540 -3680,8220 -8220,8220 -4540,0 -8220,-3680 -8220,-8220l16440 0zm7280 8220l-15500 0 0 -16450 15500 0 8220 8230 -8220 8220zm0 -16450c4540,0 8220,3680 8220,8230 0,4540 -3680,8220 -8220,8220l0 -16450zm-8220 87450l0 -79220 16440 0 0 79220 -6560 8060 -9880 -8060zm16440 0c0,4540 -3680,8230 -8220,8230 -4540,0 -8220,-3690 -8220,-8230l16440 0zm-41030 -1630l31150 -6430 3320 16120 -31140 6420 -1670 170 -1660 -16280zm3330 16110c-4450,920 -8800,-1940 -9720,-6390 -910,-4450 1950,-8800 6390,-9720l3330 16110zm-1670 -8050l0 0 0 0 0 0 0 8220 0 -8220zm1670 8050c-4450,920 -8800,-1940 -9720,-6390 -910,-4450 1950,-8800 6390,-9720l3330 16110zm-71680 -16280l70010 0 0 16450 -70010 0 -8220 -8220 8220 -8230zm0 16450c-4540,0 -8220,-3680 -8220,-8220 0,-4550 3680,-8230 8220,-8230l0 16450zm-8220 20700l0 -28920 16440 0 0 28920 -8220 8230 -8220 -8230zm16440 0c0,4540 -3680,8230 -8220,8230 -4540,0 -8220,-3690 -8220,-8230l16440 0zm-73090 -8230l64870 0 0 16460 -64870 0 -8220 -8230 8220 -8230zm0 16460c-4540,0 -8220,-3690 -8220,-8230 0,-4540 3680,-8230 8220,-8230l0 16460zm8220 -15940l0 7710 -16440 0 0 -7710 8220 -8230 8220 8230zm-16440 0c0,-4540 3680,-8230 8220,-8230 4540,0 8220,3690 8220,8230l-16440 0zm-58580 -8230l66800 0 0 16460 -66800 0 -8220 -8230 8220 -8230zm0 16460c-4540,0 -8220,-3690 -8220,-8230 0,-4540 3680,-8230 8220,-8230l0 16460zm8220 -33300l0 25070 -16440 0 0 -25070 8220 -8230 8220 8230zm-16440 0c0,-4540 3680,-8230 8220,-8230 4540,0 8220,3690 8220,8230l-16440 0zm-52160 -8230l60380 0 0 16460 -60380 0 -1690 -180 1690 -16280zm0 16460c-4540,0 -8220,-3690 -8220,-8230 0,-4540 3680,-8230 8220,-8230l0 16460zm0 -8230l0 0 0 0 0 0 -1690 8050 1690 -8050zm0 8230c-4540,0 -8220,-3690 -8220,-8230 0,-4540 3680,-8230 8220,-8230l0 16460zm-29110 -22770l30810 6490 -3390 16100 -30810 -6490 -6530 -8050 9920 -8050zm-3390 16100c-4440,-930 -7280,-5300 -6350,-9740 930,-4450 5300,-7290 9740,-6360l-3390 16100zm9920 -95410l0 87360 -16450 0 0 -87360 8400 -8230 8050 8230zm-16450 0c0,-4550 3690,-8230 8220,-8230 4540,0 8230,3680 8230,8230l-16450 0zm99240 10150l-91190 -1930 350 -16450 91180 1930 8050 8230 -8390 8220zm340 -16450c4540,100 8140,3860 8050,8400 -100,4540 -3860,8150 -8390,8050l340 -16450zm8050 -9760l0 17990 -16440 0 0 -17990 8220 -8230 8220 8230zm-16440 0c0,-4540 3680,-8230 8220,-8230 4540,0 8220,3690 8220,8230l-16440 0zm52590 8220l-44370 0 0 -16450 44370 0 8220 8230 -8220 8220zm0 -16450c4540,0 8220,3690 8220,8230 0,4540 -3680,8220 -8220,8220l0 -16450zm8220 -65050l0 73280 -16440 0 0 -73280 8220 -8230 8220 8230zm-16440 0c0,-4540 3680,-8230 8220,-8230 4540,0 8220,3690 8220,8230l-16440 0z"/>
   </g>
   <g>
    <path class="fil2" d="M180900 377540c-95560,0 -173030,-21420 -173030,-47860 0,-26430 77470,-47860 173030,-47860 95560,0 173030,21430 173030,47860 0,26440 -77470,47860 -173030,47860z"/>
    <path id="1" class="fil3" d="M7760 329680l220 0 0 0 220 2450 670 2410 1090 2380 1510 2350 1930 2300 2320 2270 2720 2210 3090 2170 3460 2120 3810 2060 4170 2000 4490 1940 4820 1880 5140 1810 5430 1730 5730 1660 6010 1590 6270 1500 6540 1420 6780 1340 7020 1240 7240 1150 7460 1060 7660 960 7860 850 8040 760 8210 640 8370 540 8510 420 8660 300 8790 180 8900 70 0 210 -8910 -60 -8780 -180 -8660 -310 -8530 -420 -8370 -530 -8210 -650 -8040 -750 -7860 -860 -7670 -960 -7460 -1060 -7250 -1150 -7020 -1240 -6790 -1340 -6540 -1420 -6280 -1500 -6010 -1590 -5730 -1660 -5440 -1740 -5140 -1810 -4830 -1880 -4500 -1940 -4170 -2010 -3830 -2060 -3470 -2130 -3100 -2170 -2730 -2230 -2340 -2280 -1940 -2330 -1530 -2370 -1110 -2410 -670 -2440 -230 -2490 0 0zm173140 -47960l0 210 0 0 -8900 60 -8790 190 -8660 300 -8510 420 -8370 540 -8210 640 -8040 760 -7860 850 -7660 960 -7460 1060 -7240 1150 -7020 1240 -6780 1340 -6540 1420 -6270 1500 -6010 1590 -5730 1660 -5430 1730 -5140 1810 -4820 1870 -4490 1940 -4170 2010 -3810 2060 -3460 2110 -3090 2170 -2720 2220 -2320 2270 -1930 2300 -1510 2350 -1090 2380 -670 2410 -220 2440 -220 0 230 -2480 670 -2450 1110 -2410 1530 -2360 1940 -2330 2340 -2280 2730 -2230 3100 -2180 3470 -2120 3830 -2060 4170 -2010 4500 -1940 4830 -1880 5140 -1810 5440 -1740 5730 -1660 6010 -1590 6280 -1500 6540 -1420 6790 -1340 7020 -1240 7250 -1160 7460 -1050 7670 -960 7860 -860 8040 -750 8210 -650 8370 -530 8530 -420 8660 -310 8780 -180 8910 -60 0 0zm173140 47960l-220 0 0 0 -220 -2440 -670 -2410 -1090 -2380 -1510 -2350 -1930 -2300 -2320 -2270 -2720 -2220 -3090 -2170 -3460 -2110 -3820 -2060 -4160 -2010 -4490 -1940 -4830 -1870 -5130 -1810 -5430 -1730 -5730 -1660 -6010 -1590 -6270 -1500 -6540 -1420 -6780 -1340 -7020 -1240 -7240 -1150 -7460 -1060 -7660 -960 -7860 -850 -8040 -760 -8210 -640 -8360 -540 -8520 -420 -8660 -300 -8790 -190 -8900 -60 0 -210 8910 60 8780 180 8670 310 8520 420 8370 530 8210 650 8040 750 7860 860 7670 960 7460 1050 7250 1160 7020 1240 6790 1340 6540 1420 6280 1500 6010 1590 5730 1660 5440 1740 5140 1810 4830 1880 4500 1940 4170 2010 3830 2060 3470 2120 3100 2180 2730 2230 2340 2280 1940 2330 1530 2360 1110 2410 670 2450 230 2480 0 0zm-173140 47970l0 -210 0 0 8900 -70 8790 -180 8660 -300 8520 -420 8360 -540 8210 -640 8040 -760 7860 -850 7660 -960 7460 -1060 7240 -1150 7020 -1240 6780 -1340 6540 -1420 6270 -1500 6010 -1590 5730 -1660 5430 -1730 5130 -1810 4830 -1880 4490 -1940 4160 -2000 3820 -2060 3460 -2120 3090 -2170 2720 -2210 2320 -2270 1930 -2300 1510 -2350 1090 -2380 670 -2410 220 -2450 220 0 -230 2490 -670 2440 -1110 2410 -1530 2370 -1940 2330 -2340 2280 -2730 2230 -3100 2170 -3470 2130 -3830 2060 -4170 2010 -4500 1940 -4830 1880 -5140 1810 -5440 1740 -5730 1660 -6010 1590 -6280 1500 -6540 1420 -6790 1340 -7020 1240 -7250 1150 -7460 1060 -7670 960 -7860 860 -8040 750 -8210 650 -8370 530 -8520 420 -8670 310 -8780 180 -8910 60 0 0z"/>
   </g>
   <g>
    <polygon class="fil4" points="158470,142200 308330,142200 308330,292160 158470,292160 "/>
    <path id="1" class="fil5" d="M308330 143020l-149860 0 0 -1650 149860 0 820 830 -820 820zm0 -1650l820 0 0 830 -820 -830zm-830 150790l0 -149960 1650 0 0 149960 -820 820 -830 -820zm1650 0l0 820 -820 0 820 -820zm-150680 -830l149860 0 0 1650 -149860 0 -820 -820 820 -830zm0 1650l-820 0 0 -820 820 820zm820 -150780l0 149960 -1640 0 0 -149960 820 -830 820 830zm-1640 0l0 -830 820 0 -820 830z"/>
   </g>
   <polygon class="fil6" points="172460,156200 294330,156200 294330,278150 172460,278150 "/>
   <g style="clip-path:url(#id2)">
    <g>
     <g>
      <rect class="fil7 str0" transform="matrix(0.103077 -0.103149 0.103077 0.103149 154441 152606)" width="140000" height="1392000"/>
      <rect class="fil7 str0" transform="matrix(0.103077 0.103149 -0.103077 0.103149 297924 138165)" width="140000" height="1392000"/>
     </g>
    </g>
   </g>
   <g>
    <path class="fil5" d="M294330 157030l-121870 0 0 -1650 121870 0 820 820 -820 830zm0 -1650l820 0 0 820 -820 -820zm-820 122770l0 -121950 1640 0 0 121950 -820 830 -820 -830zm1640 0l0 830 -820 0 820 -830zm-122690 -820l121870 0 0 1650 -121870 0 -820 -830 820 -820zm0 1650l-820 0 0 -830 820 830zm830 -122780l0 121950 -1650 0 0 -121950 820 -820 830 820zm-1650 0l0 -820 820 0 -820 820z"/>
   </g>
   <g>
    <polygon class="fil8" points="308330,142200 331430,149600 331430,299560 308330,292160 "/>
    <path id="1" class="fil5" d="M331170 150370l-23100 -7410 510 -1530 23100 7410 570 760 -1080 770zm510 -1530l570 180 0 580 -570 -760zm-1080 150720l0 -149960 1650 0 0 149960 -1080 770 -570 -770zm1650 0l0 1110 -1080 -340 1080 -770zm-23670 -8170l23100 7410 -510 1530 -23100 -7410 -570 -760 1080 -770zm-510 1530l-570 -180 0 -580 570 760zm1080 -150720l0 149960 -1650 0 0 -149960 1080 -770 570 770zm-1650 0l0 -1110 1080 340 -1080 770z"/>
   </g>
   <polygon class="fil4" points="245770,215480 114100,215480 114100,302770 245770,302770 "/>
   <g style="clip-path:url(#id3)">
    <g>
     <rect class="fil9" x="193080" y="215480" width="10370" height="15130"/>
    </g>
   </g>
   <g>
    <path class="fil5" d="M114100 214660l131670 0 0 1640 -131670 0 -820 -820 820 -820zm-820 820l0 -820 820 0 -820 820zm0 87290l0 -87290 1640 0 0 87290 -820 820 -820 -820zm820 820l-820 0 0 -820 820 820zm131670 0l-131670 0 0 -1640 131670 0 820 820 -820 820zm820 -820l0 820 -820 0 820 -820zm0 -87290l0 87290 -1640 0 0 -87290 820 -820 820 820zm-820 -820l820 0 0 820 -820 -820z"/>
   </g>
   <polygon class="fil8" points="53720,325390 175120,325390 175120,234760 53720,234760 "/>
   <g style="clip-path:url(#id4)">
    <g>
     <rect class="fil9" x="108340" y="234760" width="12190" height="16710"/>
    </g>
   </g>
   <g>
    <path class="fil5" d="M175120 326210l-121400 0 0 -1640 121400 0 820 820 -820 820zm820 -820l0 820 -820 0 820 -820zm0 -90630l0 90630 -1640 0 0 -90630 820 -820 820 820zm-820 -820l820 0 0 820 -820 -820zm-121400 0l121400 0 0 1640 -121400 0 -820 -820 820 -820zm-820 820l0 -820 820 0 -820 820zm0 90630l0 -90630 1640 0 0 90630 -820 820 -820 -820zm820 820l-820 0 0 -820 820 820z"/>
   </g>
   <g>
    <polygon class="fil4" points="315780,245690 164840,245690 164840,329250 315780,329250 "/>
    <path id="1" class="fil5" d="M164840 244870l150940 0 0 1640 -150940 0 -820 -820 820 -820zm-820 820l0 -820 820 0 -820 820zm0 83560l0 -83560 1640 0 0 83560 -820 820 -820 -820zm820 820l-820 0 0 -820 820 820zm150940 0l-150940 0 0 -1640 150940 0 830 820 -830 820zm830 -820l0 820 -830 0 830 -820zm0 -83560l0 83560 -1650 0 0 -83560 820 -820 830 820zm-830 -820l830 0 0 820 -830 -820z"/>
   </g>
   <polygon class="fil4" points="114100,350460 235500,350460 235500,280400 114100,280400 "/>
   <g style="clip-path:url(#id5)">
    <g>
     <rect class="fil9" x="169000" y="280400" width="11900" height="17350"/>
    </g>
   </g>
   <g>
    <path class="fil5" d="M235500 351280l-121400 0 0 -1640 121400 0 820 820 -820 820zm820 -820l0 820 -820 0 820 -820zm0 -70060l0 70060 -1650 0 0 -70060 830 -830 820 830zm-820 -830l820 0 0 830 -820 -830zm-121400 0l121400 0 0 1650 -121400 0 -820 -820 820 -830zm-820 830l0 -830 820 0 -820 830zm0 70060l0 -70060 1640 0 0 70060 -820 820 -820 -820zm820 820l-820 0 0 -820 820 820z"/>
   </g>
   <g>
    <path class="fil5" d="M132730 332520l-12850 0 0 -1410 12850 0 700 710 -700 700zm0 -1410l700 0 0 710 -700 -710zm-710 13560l0 -12850 1410 0 0 12850 -700 710 -710 -710zm1410 0l0 710 -700 0 700 -710zm-13550 -700l12850 0 0 1410 -12850 0 -700 -710 700 -700zm0 1410l-700 0 0 -710 700 710zm710 -13560l0 12850 -1410 0 0 -12850 700 -710 710 710zm-1410 0l0 -710 700 0 -700 710z"/>
   </g>
   <g>
    <path class="fil5" d="M73630 306170l-14130 0 0 -1410 14130 0 710 710 -710 700zm0 -1410l710 0 0 710 -710 -710zm-700 14850l0 -14140 1410 0 0 14140 -710 700 -700 -700zm1410 0l0 700 -710 0 710 -700zm-14840 -710l14130 0 0 1410 -14130 0 -700 -700 700 -710zm0 1410l-700 0 0 -700 700 700zm710 -14840l0 14140 -1410 0 0 -14140 700 -710 710 710zm-1410 0l0 -710 700 0 -700 710z"/>
   </g>
   <g>
    <path class="fil5" d="M295070 311310l-12200 0 0 -1410 12200 0 700 710 -700 700zm0 -1410l700 0 0 710 -700 -710zm-700 12920l0 -12210 1400 0 0 12210 -700 700 -700 -700zm1400 0l0 700 -700 0 700 -700zm-12900 -710l12200 0 0 1410 -12200 0 -710 -700 710 -710zm0 1410l-710 0 0 -700 710 700zm700 -12910l0 12210 -1410 0 0 -12210 710 -710 700 710zm-1410 0l0 -710 710 0 -710 710z"/>
   </g>
   <g>
    <polygon class="fil6" points="217800,343390 228720,343390 228720,354310 217800,354310 "/>
    <path id="1" class="fil10" d="M228720 344210l-10920 0 0 -1640 10920 0 820 820 -820 820zm0 -1640l820 0 0 820 -820 -820zm-820 11740l0 -10920 1640 0 0 10920 -820 830 -820 -830zm1640 0l0 830 -820 0 820 -830zm-11740 -820l10920 0 0 1650 -10920 0 -820 -830 820 -820zm0 1650l-820 0 0 -830 820 830zm820 -11750l0 10920 -1640 0 0 -10920 820 -820 820 820zm-1640 0l0 -820 820 0 -820 820z"/>
   </g>
   <g>
    <path class="fil5" d="M147500 332520l-12850 0 0 -1410 12850 0 710 710 -710 700zm0 -1410l710 0 0 710 -710 -710zm-710 13560l0 -12850 1420 0 0 12850 -710 710 -710 -710zm1420 0l0 710 -710 0 710 -710zm-13560 -700l12850 0 0 1410 -12850 0 -700 -710 700 -700zm0 1410l-700 0 0 -710 700 710zm710 -13560l0 12850 -1410 0 0 -12850 700 -710 710 710zm-1410 0l0 -710 700 0 -700 710z"/>
   </g>
   <g>
    <path class="fil5" d="M89880 306170l-14130 0 0 -1410 14130 0 710 710 -710 700zm0 -1410l710 0 0 710 -710 -710zm-700 14850l0 -14140 1410 0 0 14140 -710 700 -700 -700zm1410 0l0 700 -710 0 710 -700zm-14840 -710l14130 0 0 1410 -14130 0 -700 -700 700 -710zm0 1410l-700 0 0 -700 700 700zm710 -14840l0 14140 -1410 0 0 -14140 700 -710 710 710zm-1410 0l0 -710 700 0 -700 710z"/>
   </g>
   <g>
    <path class="fil5" d="M309100 311310l-12200 0 0 -1410 12200 0 710 710 -710 700zm0 -1410l710 0 0 710 -710 -710zm-700 12920l0 -12210 1410 0 0 12210 -710 700 -700 -700zm1410 0l0 700 -710 0 710 -700zm-12910 -710l12200 0 0 1410 -12200 0 -700 -700 700 -710zm0 1410l-700 0 0 -700 700 700zm700 -12910l0 12210 -1400 0 0 -12210 700 -710 700 710zm-1400 0l0 -710 700 0 -700 710z"/>
   </g>
   <g>
    <polygon class="fil6" points="230360,343390 241280,343390 241280,354310 230360,354310 "/>
    <path id="1" class="fil10" d="M241280 344210l-10920 0 0 -1640 10920 0 820 820 -820 820zm0 -1640l820 0 0 820 -820 -820zm-830 11740l0 -10920 1650 0 0 10920 -820 830 -830 -830zm1650 0l0 830 -820 0 820 -830zm-11740 -820l10920 0 0 1650 -10920 0 -820 -830 820 -820zm0 1650l-820 0 0 -830 820 830zm820 -11750l0 10920 -1640 0 0 -10920 820 -820 820 820zm-1640 0l0 -820 820 0 -820 820z"/>
   </g>
   <g>
    <polygon class="fil5" points="128870,343450 123730,343450 123730,342040 128870,342040 "/>
   </g>
   <g>
    <polygon class="fil5" points="69390,318190 63740,318190 63740,316780 69390,316780 "/>
   </g>
   <g>
    <polygon class="fil5" points="291410,321690 286530,321690 286530,320280 291410,320280 "/>
   </g>
   <g>
    <polygon class="fil10" points="225440,353500 221080,353500 221080,351850 225440,351850 "/>
   </g>
   <g>
    <polygon class="fil5" points="125720,335030 125720,341460 124310,341460 124310,335030 "/>
   </g>
   <g>
    <polygon class="fil5" points="65860,309000 65860,316070 64450,316070 64450,309000 "/>
   </g>
   <g>
    <polygon class="fil5" points="288450,313660 288450,319770 287040,319770 287040,313660 "/>
   </g>
   <g>
    <polygon class="fil10" points="222990,346120 222990,351580 221350,351580 221350,346120 "/>
   </g>
   <g>
    <polygon class="fil5" points="128300,335030 128300,341460 126880,341460 126880,335030 "/>
   </g>
   <g>
    <polygon class="fil5" points="68690,309000 68690,316070 67280,316070 67280,309000 "/>
   </g>
   <g>
    <polygon class="fil5" points="290890,313660 290890,319770 289490,319770 289490,313660 "/>
   </g>
   <g>
    <polygon class="fil10" points="225180,346120 225180,351580 223530,351580 223530,346120 "/>
   </g>
   <g>
    <polygon class="fil5" points="142360,343450 139150,343450 139150,342040 142360,342040 "/>
   </g>
   <g>
    <polygon class="fil5" points="84230,318190 80700,318190 80700,316780 84230,316780 "/>
   </g>
   <g>
    <polygon class="fil5" points="304220,321690 301170,321690 301170,320280 304220,320280 "/>
   </g>
   <g>
    <polygon class="fil10" points="236910,353500 234180,353500 234180,351850 236910,351850 "/>
   </g>
   <g>
    <polygon class="fil5" points="140050,342740 140050,337600 141460,337600 141460,342740 "/>
   </g>
   <g>
    <polygon class="fil5" points="81760,317480 81760,311830 83170,311830 83170,317480 "/>
   </g>
   <g>
    <polygon class="fil5" points="302000,320990 302000,316100 303400,316100 303400,320990 "/>
   </g>
   <g>
    <polygon class="fil10" points="234720,352680 234720,348310 236370,348310 236370,352680 "/>
   </g>
   <g>
    <path class="fil5" d="M142360 335090l-3210 0 0 -1410 3210 0 710 710 -710 700zm0 -1410l710 0 0 710 -710 -710zm-700 4570l0 -3860 1410 0 0 3860 0 0 -1410 0zm-900 1580l-10 -1410 0 0 50 0 40 0 50 -10 40 0 50 -10 50 -10 50 -20 50 -10 50 -10 50 -20 50 -20 40 -20 50 -20 50 -30 30 -20 40 -20 40 -30 40 -20 30 -20 30 -20 20 -20 20 -20 20 -10 10 -10 0 -10 10 -10 0 0 -10 20 -10 20 -10 40 -20 60 0 80 1410 0 -10 130 -30 130 -40 100 -40 90 -50 80 -50 80 -50 60 -60 70 -60 60 -60 60 -60 60 -70 50 -60 50 -70 50 -70 50 -70 40 -80 40 -80 50 -80 40 -70 30 -100 40 -80 40 -90 30 -90 30 -90 30 -100 20 -90 20 -100 20 -100 10 -100 20 -100 0 -110 0 0 0zm-2320 -1580l1410 0 0 0 0 -80 -10 -40 -10 -40 -20 -30 0 -10 0 0 -10 -10 10 10 20 20 20 20 10 10 20 20 30 20 30 20 40 30 30 20 40 20 40 20 40 20 50 20 40 20 50 20 50 20 40 10 50 20 50 10 50 10 50 10 50 10 50 0 50 0 40 0 10 1410 -110 0 -100 0 -100 -10 -110 -20 -90 -20 -100 -20 -90 -20 -100 -20 -100 -40 -80 -30 -90 -30 -90 -40 -80 -40 -80 -40 -80 -40 -70 -40 -80 -50 -70 -50 -70 -50 -60 -50 -70 -50 -70 -60 -60 -60 -50 -60 -50 -60 -60 -80 -50 -70 -40 -80 -50 -110 -30 -100 -20 -110 -20 -130 0 0zm1410 -3860l0 3860 -1410 0 0 -3860 710 -710 700 710zm-1410 0l0 -710 710 0 -710 710z"/>
   </g>
   <g>
    <path class="fil5" d="M84230 309000l-3530 0 0 -1410 3530 0 710 700 -710 710zm0 -1410l710 0 0 700 -710 -700zm-700 4950l0 -4250 1410 0 0 4250 0 0 -1410 0zm-1060 1670l-10 -1410 0 0 50 0 60 0 50 -10 50 -10 60 -10 50 -10 60 -10 60 -20 60 -20 50 -20 50 -20 60 -20 50 -30 40 -20 50 -30 50 -30 50 -20 30 -30 40 -30 40 -20 20 -20 30 -20 20 -30 20 -10 10 -10 0 -10 0 0 0 10 -10 30 -20 30 -10 50 0 80 1410 0 -10 140 -30 120 -40 100 -50 110 -40 80 -60 80 -50 70 -60 70 -70 70 -50 50 -70 60 -80 60 -70 50 -70 60 -80 50 -80 50 -70 40 -90 50 -90 40 -90 40 -80 40 -100 40 -100 40 -100 30 -90 20 -100 30 -100 20 -110 30 -110 10 -110 10 -110 10 -110 0 0 0zm-2480 -1670l1410 0 0 0 0 -60 -10 -60 -10 -30 -10 -20 -10 -20 0 0 10 10 10 10 10 20 20 20 20 10 30 30 40 30 30 20 40 30 40 20 50 30 40 30 50 20 50 20 60 30 40 20 60 10 60 20 50 20 60 10 60 20 50 10 60 0 50 10 60 0 50 0 10 1410 -110 0 -110 -10 -110 -10 -120 -10 -100 -20 -110 -20 -100 -30 -100 -30 -90 -30 -110 -30 -90 -40 -90 -40 -90 -40 -90 -40 -90 -50 -80 -50 -70 -50 -80 -50 -80 -50 -70 -60 -60 -50 -80 -70 -60 -60 -60 -60 -60 -80 -50 -70 -50 -70 -50 -100 -50 -90 -30 -110 -30 -130 -10 -120 0 0zm1410 -4250l0 4250 -1410 0 0 -4250 710 -700 700 700zm-1410 0l0 -700 710 0 -710 700z"/>
   </g>
   <g>
    <path class="fil5" d="M304220 313750l-3050 0 0 -1410 3050 0 710 710 -710 700zm0 -1410l710 0 0 710 -710 -710zm-700 4370l0 -3660 1410 0 0 3660 0 0 -1410 0zm-820 1550l-10 -1410 0 0 40 0 50 -10 40 0 40 -10 50 -10 40 -10 50 -10 40 -10 50 -20 50 -10 40 -20 40 -20 40 -20 50 -20 30 -20 40 -20 30 -20 40 -30 30 -20 20 -10 30 -30 10 -10 20 -10 10 -20 0 0 10 -10 -10 10 -10 20 -10 30 -10 40 -10 50 -10 80 1410 0 -10 140 -30 120 -30 90 -40 100 -50 80 -60 80 -40 60 -60 70 -60 50 -50 60 -70 50 -50 50 -70 60 -70 40 -60 40 -80 50 -70 40 -80 40 -70 40 -80 40 -80 30 -90 40 -80 20 -80 30 -90 30 -100 20 -90 30 -90 10 -100 20 -100 10 -100 0 -100 10 0 0zm-2230 -1550l1410 0 0 0 -10 -60 -10 -60 -10 -50 -10 -20 -10 -10 0 -10 -10 0 10 10 10 10 10 10 20 20 20 10 30 20 30 30 20 20 30 10 50 30 30 20 40 20 40 20 50 20 40 10 40 20 50 10 40 20 50 10 40 10 50 0 50 10 40 10 40 0 40 0 10 1410 -100 0 -100 -10 -100 -10 -100 -10 -90 -20 -100 -20 -90 -20 -90 -30 -80 -20 -90 -40 -90 -30 -80 -30 -80 -40 -80 -40 -80 -40 -60 -40 -80 -50 -70 -50 -60 -40 -70 -50 -60 -60 -60 -50 -60 -60 -60 -60 -50 -60 -50 -70 -50 -80 -40 -80 -40 -80 -40 -120 -20 -110 -10 -130 0 0zm1410 -3660l0 3660 -1410 0 0 -3660 700 -710 710 710zm-1410 0l0 -710 700 0 -700 710z"/>
   </g>
   <g>
    <path class="fil6" d="M234180 345570l2730 0 0 3280c0,270 -690,750 -1360,750 -700,10 -1370,-470 -1370,-750l0 -3280z"/>
    <path id="1" class="fil10" d="M236910 346400l-2730 0 0 -1650 2730 0 820 820 -820 830zm0 -1650l820 0 0 820 -820 -820zm-820 4100l0 -3280 1640 0 0 3280 0 0 -1640 0zm-540 1580l-10 -1650 0 0 30 0 30 0 30 -10 30 0 30 -10 40 0 30 -10 30 -10 40 -20 40 -10 30 -10 30 -20 40 -10 30 -20 30 -20 20 -10 30 -10 30 -20 20 -20 10 -10 20 -10 10 -10 0 0 10 -10 0 0 0 10 -10 10 -20 30 -20 50 -20 50 -20 70 0 100 1640 0 -10 150 -30 130 -30 100 -50 110 -60 90 -40 70 -60 80 -50 50 -50 60 -70 60 -60 50 -60 50 -60 50 -70 50 -50 40 -80 40 -70 50 -80 30 -70 40 -70 30 -80 40 -80 30 -80 30 -80 30 -90 20 -90 20 -80 20 -90 20 -100 20 -100 10 -90 0 -100 10 0 0zm-2190 -1580l1640 0 0 0 -10 -100 -10 -60 -20 -50 -10 -50 -10 -10 -10 -20 -20 -20 0 0 0 0 10 10 20 10 10 10 10 10 20 20 20 10 30 20 20 10 30 20 30 10 40 20 30 10 30 20 40 10 20 10 40 10 40 10 30 10 40 0 30 10 30 0 30 0 30 0 10 1650 -100 -10 -90 0 -110 -10 -90 -10 -90 -20 -100 -20 -80 -20 -80 -20 -90 -30 -90 -30 -80 -40 -80 -30 -70 -30 -80 -40 -70 -40 -70 -40 -70 -50 -60 -40 -70 -50 -70 -50 -60 -50 -50 -50 -60 -60 -60 -60 -50 -60 -60 -80 -50 -80 -50 -80 -40 -100 -30 -100 -30 -130 -10 -150 0 0zm1640 -3280l0 3280 -1640 0 0 -3280 820 -820 820 820zm-1640 0l0 -820 820 0 -820 820z"/>
   </g>
   <g>
    <polygon class="fil4" points="180900,358170 245770,358170 245770,312540 180900,312540 "/>
    <path id="1" class="fil5" d="M245770 358990l-64870 0 0 -1640 64870 0 820 820 -820 820zm820 -820l0 820 -820 0 820 -820zm0 -45630l0 45630 -1640 0 0 -45630 820 -830 820 830zm-820 -830l820 0 0 830 -820 -830zm-64870 0l64870 0 0 1650 -64870 0 -820 -820 820 -830zm-820 830l0 -830 820 0 -820 830zm0 45630l0 -45630 1640 0 0 45630 -820 820 -820 -820zm820 820l-820 0 0 -820 820 820z"/>
   </g>
   <polygon class="fil6" points="53720,325390 22910,318900 22910,231540 53720,234760 "/>
   <g style="clip-path:url(#id6)">
    <g>
     <rect class="fil9" transform="matrix(0.64231 0.0847594 -0 0.642759 35354.5 232838)" width="8090" height="26110"/>
    </g>
   </g>
   <g>
    <path class="fil5" d="M23080 318100l30810 6490 -340 1610 -30800 -6490 -660 -810 990 -800zm-330 1610l-660 -140 0 -670 660 810zm990 -88170l0 87360 -1650 0 0 -87360 910 -820 740 820zm-1650 0l0 -920 910 100 -910 820zm31550 4040l-30810 -3220 170 -1640 30810 3220 730 820 -900 820zm170 -1640l730 80 0 740 -730 -820zm-910 91450l0 -90630 1640 0 0 90630 -990 810 -650 -810zm1640 0l0 1010 -990 -200 990 -810z"/>
   </g>
   <g>
    <polygon class="fil6" points="53720,234760 175120,234760 22910,231540 "/>
    <path id="1" class="fil5" d="M175120 235580l-121400 0 0 -1640 121400 0 20 0 -20 1640zm-152190 -4870l152210 3230 -40 1640 -152200 -3220 -70 0 100 -1650zm30710 4870l-30810 -3220 170 -1640 30810 3220 -90 1640 -80 0zm80 0l-50 0 -30 0 80 0z"/>
   </g>
   <polygon class="fil6" points="114100,280400 235500,280400 230900,275060 118780,275060 "/>
   <g style="clip-path:url(#id7)">
    <g>
     <polygon id="1" class="fil9" points="169000,280400 180900,280400 179690,275060 169750,275060 "/>
    </g>
   </g>
   <g>
    <path class="fil5" d="M235500 281220l-121400 0 0 -1650 121400 0 620 290 -620 1360zm620 -1360l1170 1360 -1790 0 620 -1360zm-4600 -5340l4600 5340 -1250 1070 -4600 -5340 630 -1360 620 290zm-620 -290l370 0 250 290 -620 -290zm-112120 0l112120 0 0 1650 -112120 0 -620 -1370 620 -280zm-620 280l250 -280 370 0 -620 280zm-4680 5340l4680 -5340 1240 1090 -4680 5340 -620 280 -620 -1370zm620 1370l-1810 0 1190 -1370 620 1370z"/>
   </g>
   <g>
    <polygon class="fil6" points="245770,312540 180900,312540 183990,305100 241840,305100 "/>
    <path id="1" class="fil5" d="M180900 311710l64870 0 0 1650 -64870 0 -760 -1140 760 -510zm0 1650l-1230 0 470 -1140 760 1140zm3850 -7940l-3090 7430 -1520 -630 3100 -7430 750 -510 760 1140zm-1510 -630l210 -510 540 0 -750 510zm58600 1140l-57850 0 0 -1650 57850 0 730 440 -730 1210zm0 -1650l500 0 230 440 -730 -440zm3210 8640l-3930 -7430 1450 -770 3930 7430 -730 1210 -720 -440zm1450 -770l640 1210 -1370 0 730 -1210z"/>
   </g>
   <g>
    <polygon class="fil8" points="315780,245690 346930,243600 346930,322820 315780,329250 "/>
    <path id="1" class="fil5" d="M346990 244420l-31150 2090 -110 -1640 31150 -2100 870 830 -760 820zm-110 -1650l870 -50 0 880 -870 -830zm-770 80050l0 -79220 1640 0 0 79220 -650 810 -990 -810zm1640 0l0 670 -650 140 650 -810zm-32130 5620l31150 -6430 330 1620 -31150 6420 -990 -800 660 -810zm330 1610l-990 210 0 -1010 990 800zm660 -84360l0 83560 -1650 0 0 -83560 770 -820 880 820zm-1650 0l0 -770 770 -50 -770 820z"/>
   </g>
   <g>
    <polygon class="fil6" points="315780,245690 346930,243600 175120,243600 164840,245690 "/>
    <path id="1" class="fil5" d="M346990 244420l-31150 2090 -110 -1640 31150 -2100 50 0 60 1650zm-171870 -1650l171810 0 0 1650 -171810 0 -170 -1630 170 -20zm-170 20l90 -20 80 0 -170 20zm-10270 2090l10270 -2090 330 1610 -10270 2090 -170 20 -160 -1630zm151100 1630l-150940 0 0 -1640 150940 0 60 1640 -60 0zm60 0l-20 0 -40 0 60 0z"/>
   </g>
   <g>
    <path class="fil11" d="M308330 143140l-149860 0 0 -1880 149860 0 280 40 -280 1840zm0 -1880l140 0 140 40 -280 -40zm22810 9240l-23100 -7410 570 -1790 23100 7410 660 890 -1230 900zm570 -1790l660 210 0 680 -660 -890zm-1220 94890l0 -94000 1880 0 0 94000 -940 940 -940 -940zm940 940l-940 0 0 -940 940 940zm15500 0l-15500 0 0 -1880 15500 0 940 940 -940 940zm0 -1880l940 0 0 940 -940 -940zm-940 80160l0 -79220 1880 0 0 79220 -750 920 -1130 -920zm1880 0l0 770 -750 150 750 -920zm-32280 5510l31150 -6430 380 1840 -31140 6430 -200 20 -190 -1860zm390 1840l-100 20 -100 0 200 -20zm-200 -920l0 0 0 0 0 0 0 940 0 -940zm200 920l-100 20 -100 0 200 -20zm-70210 -1860l70010 0 0 1880 -70010 0 -940 -940 940 -940zm-940 940l0 -940 940 0 -940 940zm0 28920l0 -28920 1880 0 0 28920 -940 940 -940 -940zm1880 0l0 940 -940 0 940 -940zm-65810 -940l64870 0 0 1880 -64870 0 -940 -940 940 -940zm0 1880l-940 0 0 -940 940 940zm940 -8650l0 7710 -1880 0 0 -7710 940 -940 940 940zm-940 -940l940 0 0 940 -940 -940zm-66800 0l66800 0 0 1880 -66800 0 -940 -940 940 -940zm0 1880l-940 0 0 -940 940 940zm940 -26010l0 25070 -1880 0 0 -25070 940 -940 940 940zm-940 -940l940 0 0 940 -940 -940zm-60380 0l60380 0 0 1880 -60380 0 -190 -20 190 -1860zm0 1880l-100 0 -90 -20 190 20zm0 -940l0 0 0 0 0 0 -190 920 190 -920zm0 940l-100 0 -90 -20 190 20zm-30610 -8350l30810 6490 -390 1840 -30810 -6490 -740 -920 1130 -920zm-390 1840l-740 -160 0 -760 740 920zm1130 -88280l0 87360 -1870 0 0 -87360 950 -940 920 940zm-1870 0l0 -960 950 20 -950 940zm92100 2870l-91190 -1930 40 -1880 91190 1930 920 940 -960 940zm960 -940l0 960 -960 -20 960 -940zm0 -17990l0 17990 -1880 0 0 -17990 940 -940 940 940zm-1880 0l0 -940 940 0 -940 940zm45310 940l-44370 0 0 -1880 44370 0 940 940 -940 940zm940 -940l0 940 -940 0 940 -940zm0 -73280l0 73280 -1880 0 0 -73280 940 -940 940 940zm-1880 0l0 -940 940 0 -940 940z"/>
   </g>
  </g>
 </g>
</svg>
