<?xml version="1.0" encoding="UTF-8"?>
<!DOCTYPE svg  PUBLIC '-//W3C//DTD SVG 1.1//EN'  'http://www.w3.org/Graphics/SVG/1.1/DTD/svg11.dtd'>
<svg width="370px" height="500px" clip-rule="evenodd" fill-rule="evenodd" image-rendering="optimizeQuality" shape-rendering="geometricPrecision" text-rendering="geometricPrecision" version="1.1" viewBox="0 0 3.7e5 5e5" xml:space="preserve" xmlns="http://www.w3.org/2000/svg">
 <defs>
  <style type="text/css">
   
    .str20 {stroke:#414D54;stroke-width:1230;stroke-miterlimit:2.61313}
    .str21 {stroke:#808A94;stroke-width:1230;stroke-miterlimit:2.61313}
    .str22 {stroke:#414D54;stroke-width:1230;stroke-miterlimit:2.61313}
    .str18 {stroke:white;stroke-width:17260;stroke-miterlimit:2.61313}
    .str24 {stroke:#414D54;stroke-width:960;stroke-miterlimit:2.61313}
    .str23 {stroke:#B3B3B3;stroke-width:1920;stroke-miterlimit:2.61313}
    .str8 {stroke:#414D54;stroke-width:8000;stroke-miterlimit:2.61313}
    .str1 {stroke:#B3B3B3;stroke-width:210;stroke-miterlimit:2.61313}
    .str2 {stroke:#999999;stroke-width:210;stroke-miterlimit:2.61313}
    .str9 {stroke:#414D54;stroke-width:1230;stroke-linecap:round;stroke-miterlimit:2.61313}
    .str13 {stroke:#999999;stroke-width:1020;stroke-linecap:round;stroke-miterlimit:2.61313}
    .str15 {stroke:#E6E6E6;stroke-width:1020;stroke-linecap:round;stroke-miterlimit:2.61313}
    .str12 {stroke:#253138;stroke-width:1640;stroke-linecap:round;stroke-miterlimit:2.61313}
    .str5 {stroke:#3E7DFF;stroke-width:1640;stroke-linecap:round;stroke-miterlimit:2.61313}
    .str6 {stroke:#414D54;stroke-width:1640;stroke-linecap:round;stroke-miterlimit:2.61313}
    .str16 {stroke:#999999;stroke-width:1640;stroke-linecap:round;stroke-miterlimit:2.61313}
    .str17 {stroke:white;stroke-width:1640;stroke-linecap:round;stroke-miterlimit:2.61313}
    .str0 {stroke:white;stroke-width:16770;stroke-linecap:round;stroke-miterlimit:2.61313}
    .str19 {stroke:#414D54;stroke-width:1690;stroke-linecap:round;stroke-miterlimit:2.61313}
    .str4 {stroke:#252525;stroke-width:180;stroke-linecap:round;stroke-miterlimit:2.61313}
    .str11 {stroke:#253138;stroke-width:180;stroke-linecap:round;stroke-miterlimit:2.61313}
    .str7 {stroke:#414D54;stroke-width:180;stroke-linecap:round;stroke-miterlimit:2.61313}
    .str3 {stroke:gray;stroke-width:180;stroke-linecap:round;stroke-miterlimit:2.61313}
    .str14 {stroke:#999999;stroke-width:180;stroke-linecap:round;stroke-miterlimit:2.61313}
    .str10 {stroke:#414D54;stroke-width:1640;stroke-linecap:round;stroke-linejoin:round;stroke-miterlimit:2.61313}
    .fil1 {fill:none}
    .fil5 {fill:#252525}
    .fil9 {fill:#253138}
    .fil8 {fill:#414D54}
    .fil4 {fill:gray}
    .fil13 {fill:#808A94}
    .fil3 {fill:#999999}
    .fil2 {fill:#B3B3B3}
    .fil10 {fill:#CCCCCC}
    .fil0 {fill:#CEDAED}
    .fil11 {fill:#D9D9D9}
    .fil12 {fill:#F6F6F6}
    .fil6 {fill:white}
    .fil7 {fill:url(#a)}
   
  </style>
   <mask id="d">
  <linearGradient id="c" x1="185000" x2="185000" y1="5e5" gradientUnits="userSpaceOnUse">
   <stop stop-color="#fff" stop-opacity="0" offset="0"/>
   <stop stop-color="#fff" offset=".2"/>
   <stop stop-color="#fff" offset=".50196"/>
   <stop stop-color="#fff" offset=".8"/>
   <stop stop-color="#fff" stop-opacity="0" offset="1"/>
  </linearGradient>
    <rect width="3.7e5" height="5e5" fill="url(#c)"/>
   </mask>
   <clipPath id="b">
    <path d="m30380 251770c0-2310 30-3930 1280-4050 27160 420 54240 3590 81260 8430 1600 20 2080 2410 960 4690-4710 9460-10080 17450-17920 20070-22100 490-42340-2350-60460-8970-5170-5330-4770-12380-5120-20170z"/>
   </clipPath>
  <linearGradient id="a" x1="318640" x2="195620" y1="244300" y2="181330" gradientUnits="userSpaceOnUse">
   <stop stop-color="#E6E6E6" offset="0"/>
   <stop stop-color="#F2F2F2" offset=".67059"/>
   <stop stop-color="#fff" offset="1"/>
  </linearGradient>
 </defs>
 
  
  <polygon class="fil0" points="0 0 3.7e5 0 3.7e5 5e5 0 5e5" mask="url(#d)"/>
  <path class="fil1 str0" d="m165550 325290c-35920 4300-73390 3760-135590-20740-9510-4370-14790-20970-14530-31860 380-1010 2840-3090 3430-3920 80-18750 2720-30790 8210-35320 10510-10220 22550-19590 36680-27740 25750-40080 49970-68840 70600-78170 8780-3620 60670-9230 90640-8480 3190 30 5620 140 8100 850 26080 8710 50340 18960 73850 29800 2920 1400 3800 3580 4640 6910 8600 29450 8620 58900 6400 88360-450 4250-4800 7530-10660 11520m-16130 8490c-670 350-1340 710-2010 1060-23950 12610-47910 25220-71870 37830"/>
  <path class="fil2 str1" d="m172830 220730c45860-11490 182070 43550 185130 79760 3060 33630-3890 54680-136490 75880-93040 14880-206470-7310-209820-48080-3340-40770 68820-88930 161180-107560z"/>
  <ellipse class="fil3 str2" cx="280340" cy="337850" rx="27280" ry="7840"/>
  <ellipse class="fil3 str2" cx="325300" cy="336420" rx="16190" ry="5450"/>
  <path class="fil4 str3" d="m29960 304550c27490 8940 97840 2730 125320 11670 15880 5160 11490 19930 4760 30640-62220 8530-105570 210-135940-19720-8950-6550-4250-14330 5860-22590z"/>
  <polygon class="fil5 str4" points="198560 304840 205650 324650 281670 280770 283230 265140 213060 295020"/>
  <path class="fil6 str5" d="m18860 268770c80-18750 2720-30790 8210-35320 10510-10220 22550-19590 36680-27740 25750-40080 49970-68840 70600-78170 8780-3620 60670-9230 90640-8480 3190 30 5620 140 8100 850 26080 8710 50340 18960 73850 29800 2920 1400 3800 3580 4640 6910 8600 29450 8620 58900 6400 88360-450 4250-4800 7530-10660 11520-30010 15800-60010 31590-90010 47380l-45360 19860c-870 370-4010 1340-6400 1550-35920 4300-73390 3760-135590-20740-9510-4370-14790-20970-14530-31860 380-1010 2840-3090 3430-3920z"/>
  <path class="fil7" d="m238540 121760c23320 8050 46010 17630 68400 27950 2920 1400 3800 3580 4640 6910 8600 29450 8620 58900 6400 88360-450 4250-4800 7530-10660 11520-30010 15800-60010 31590-90010 47380-4520-12350-9040-24700-13550-37050-930-5630-3880-10120-8720-13530 4710-34370 9480-67950 23730-105780 4050-12940 13920-26330 19770-25760z"/>
  <path class="fil1 str6" d="m174720 279840c14670-32710 30780-35410 39510-12670"/>
  <path class="fil8 str7" d="m186240 280700c-6630 13630-12750 44070-20560 44580-37160 4800-71220 4680-135720-20730-9510-4370-14790-20970-14530-31860 380-1010 2840-3090 3430-3920 20710 11160 47420 17700 82920 17480 12380 370 24750 720 37110 1060 8280 60 14990-1140 20690-2770 5050-1570 10090-3130 15140-4700 3840 290 7680 570 11520 860z"/>
  <line class="fil1 str6" x1="114120" x2="123310" y1="260280" y2="259920"/>
  <line class="fil1 str6" x1="30380" x2="27790" y1="251370" y2="251130"/>
  <path class="fil9" d="m30380 251770c0-2310 30-3930 1280-4050 27160 420 54240 3590 81260 8430 1600 20 2080 2410 960 4690-4710 9460-10080 17450-17920 20070-22100 490-42340-2350-60460-8970-5170-5330-4770-12380-5120-20170z"/>
  <g clip-path="url(#b)">
   
    <path id="e" class="fil8 str8" d="m30560 256720c-50-1480-100-2960-160-4440 26080 4180 53960 7280 82880 9750-670 1250-1340 2500-2010 3740-27270-2150-54290-4910-80710-9050z"/>
    <path class="fil8 str8" d="m32190 266730c-370-1430-750-2870-1120-4310 25080 4290 50320 7630 75680 10210-980 1100-1960 2190-2940 3290-24550-1970-48490-4940-71620-9190z"/>
   
  </g>
  <path class="fil1" d="m30380 251770c0-2310 30-3930 1280-4050 27160 420 54240 3590 81260 8430 1600 20 2080 2410 960 4690-4710 9460-10080 17450-17920 20070-22100 490-42340-2350-60460-8970-5170-5330-4770-12380-5120-20170z"/>
  <path class="fil10 str9" d="m247620 153680c-1360-500-3350 10-2990 1600 2630 17780 5260 35570 7890 53350 410 2080 1310 4010 3520 3740 18990-2210 37970-4410 56950-6620 720-190 920-360 850-1170-1100-11210-2200-22410-3300-33620-60-960-960-2240-2240-2560-20230-4910-40450-9820-60680-14720z"/>
  <path class="fil11 str6" d="m223820 153950c3370-170 6750-350 10130-530 1230 100 2510 750 2560 2030 1240 13120 1530 26250 1490 39370 90 4040-10790 15610-21010 18360-2950-6010-5900-12020-8850-18040 3410-12340 6820-24680 10240-37020 790-2730 3050-3850 5440-4170z"/>
  <path class="fil1 str6" d="m206510 218860c2440 2660 2230 5850 2220 38390"/>
  <polygon class="fil8 str10" points="208140 195140 199010 223850 214000 213870 216990 213180"/>
  <path class="fil9 str11" d="m216400 214780c-2720-60-960-28390 1280-30740 1650-1210 10630-730 11510 540 6220 8160 5920 17080-1520 29240-870 1080-7870 1310-11270 960z"/>
  <path class="fil1 str6" d="m295090 240320c2950-10760 7770-13330 10730-4620 80 230 420 1520 500 1780"/>
  <path class="fil8 str6" d="m210820 272290c1930-1660 2900-3390 3410-5120 26940-8930 53920-17920 80860-26850 1020 660 2420 690 4080 870-860 3360-1710 6720-2560 10080-690 50-1450 0-2300-110-25660 10960-51320 21910-76990 32870-910 850-2040 1290-3300 1500-1070-4420-2140-8830-3200-13240z"/>
  <path class="fil8 str7" d="m305790 246440c-450-2470-890-4950-1340-7420 700-490 1540-1330 1600-2590 4320-1500 8420-2880 12740-4390-160 2750-320 5500-480 8260-4170 2040-8350 4090-12520 6140z"/>
  <path class="fil9" d="m299170 241190c-430 1680-860 3360-1280 5040 1750 7900 3510 15810 5270 23710 60 750 2150-240 2410-1440 820-7350 1100-14710 220-22060-190-2410-640-5120-1340-7420-1260-2570-3600-2470-5280 2170z"/>
  <path class="fil1 str12" d="m307990 256040c-1010 800-1680 1820-1660 50 10-3220-160-6430-540-9650-190-2410-640-5120-1340-7420-1260-2570-3600-2470-5280 2170-430 1680-860 3360-1280 5040"/>
  <path class="fil8 str13" d="m298390 244250c-460 1820-1220 4660-1780 7020-1270 5310-2310 10730-5e3 13500l-12230 6390c80 2230 430 4730 1100 7560 420 1910 590 1970 1190 2050 5e3 1060 12080 1690 15950 370 4670-2500 6340-13860 6810-21160 190-7890-1110-13970-6040-15730z"/>
  <path class="fil1 str12" d="m298390 244250c-460 1820-1220 4660-1780 7020-1270 5310-2310 10730-5e3 13500l-12230 6390"/>
  <ellipse class="fil2 str14" transform="matrix(.20448 .010467 -.01046 .20462 299202 263417)" rx="12630" ry="54830"/>
  <path class="fil9 str12" d="m207350 308240c-7040-9180-14080-18360-21110-27540 10640-17700 18200-16620 24580-8410 2860 10990 4850 21110 6490 31590-3530 1570-6420 2800-9960 4360z"/>
  <path class="fil8 str13" d="m186240 280700c-6440 11870-11660 43770-20560 44580-6110 740-8620 1020-13380 1490 300 5790 1920 11680 5080 17530 280 750 1680 2150 2660 2560 9360 3150 21600 4180 29710 1980 9070-4040 17520-21760 17530-35750 540-9510-1450-22880-4590-28170-3930-3580-9670-4630-16450-4220z"/>
  <path class="fil1 str15" d="m15430 272690c24200 13890 71080 18570 124610 21050 3470 50 7560-230 10480-850 14230-1990 25470-6650 35720-12190"/>
  <path class="fil1 str12" d="m186240 280700c-6440 11870-11660 43770-20560 44580-6110 740-8620 1020-13380 1490"/>
  <path class="fil1 str16" d="m189750 348840c-11230-5500-13260-22890-9350-38840"/>
  <path class="fil1 str16" d="m297620 281140c-2380-3900-3630-8710-3820-14330"/>
  
   <path class="fil12" d="m209860 153040c-7460 18930-11040 34020-18500 52940-42300-680-82340-1640-124630-2320 11590-18370 22140-31500 35930-47370 35120-4540 68090-5680 105500-6230 1820 330 2160 1440 1700 2980z"/>
   <path class="fil8" d="m209860 153040c-7460 18930-11040 34020-18500 52940-42300-680-82340-1640-124630-2320 11590-18370 22140-31500 35930-47370 35120-4540 68090-5680 105500-6230 1820 330 2160 1440 1700 2980zm-12360 25460c2630-8100 5260-16200 8730-25150-17870 270-34780 700-51510 1590-16850 900-33410 2270-50410 4430-6510 7510-12300 14440-17840 21650-4700 6120-9210 12430-13820 19470 19150 320 37800 690 56460 1060 19870 400 39740 800 60020 1130 3290-8540 5830-16360 8370-24180z"/>
  
  <path class="fil1 str17" d="m209860 153040c-7460 18930-11040 34020-18500 52940-42300-680-82340-1640-124630-2320 11590-18370 22140-31500 35930-47370 35120-4540 68090-5680 105500-6230 1820 330 2160 1440 1700 2980z"/>
  <path class="fil1 str6" d="m319210 213500c-37740 4710-69010 16270-96510 31800"/>
  <path class="fil1 str6" d="m205850 191730c12540-49790 10970-44360 23290-44560 19980 1440 45250 8280 85420 21140"/>
  <path class="fil1 str6" d="m217030 151920c5500-13490 6840-21920 17210-2e4 27350 7150 53120 16860 78190 27720"/>
  <path class="fil9" d="m103470 294440c-26010-2780-51560-6620-76140-12810 2490 4110 5620 7820 10030 10730 2500 1420 35030 7770 54590 10290 4740 770 8340-2860 11520-8210z"/>
  <rect class="fil9 str11" x="210180" y="201730" width="4930" height="10130"/>
  <ellipse class="fil10 str14" transform="matrix(.22479 .026352 -.029154 .20318 194326 315307)" rx="37250" ry="102510"/>
  <path class="fil12 str6" d="m27070 233450c-4080 3720-7240 11020-8010 27590 1880 2820 5250 4720 8980 6390-1120-11320 850-23660-970-33980z"/>
  <path class="fil12 str6" d="m114010 279570c-730-20-2510 230-2130-740 14030-30730 31500-36680 57260-36070 1770 10 2490 270 2030 1700-12190 32310-9760 34800-57160 35110z"/>
  <path class="fil1 str12" d="m165550 325290c-35920 4300-73390 3760-135590-20740-9510-4370-14790-20970-14530-31860 380-1010 2840-3090 3430-3920 80-18750 2720-30790 8210-35320 10510-10220 22550-19590 36680-27740 25750-40080 49970-68840 70600-78170 8780-3620 60670-9230 90640-8480 3190 30 5620 140 8100 850 26080 8710 50340 18960 73850 29800 2920 1400 3800 3580 4640 6910 8600 29450 8620 58900 6400 88360-450 4250-4800 7530-10660 11520m-16130 8490c-670 350-1340 710-2010 1060-23950 12610-47910 25220-71870 37830"/>
  <path class="fil1 str6" d="m155640 243210c11310-12420 21130-27950 34430-38950"/>
  <path class="fil1 str18" d="m289960 221930c-1700-5170-2700-10830-3e3 -15100"/>
  <ellipse class="fil3 str2" cx="280340" cy="337620" rx="28090" ry="8070"/>
  <ellipse class="fil3 str2" cx="326640" cy="336150" rx="16670" ry="5610"/>
  <path class="fil1 str19" d="m295530 237190c3040-11080 8e3 -13720 11040-4760 80 240 440 1570 520 1830"/>
  <path class="fil6 str20" d="m266770 260450h15220c-70 9240-1590 17630-3880 25580-470 2060-390 4470 140 6090 4890 14680 3700 27720-270 40010-1290-140-2590-270-3880-410-410-10460-880-20920-4840-32120-970-2510-2350-4350-2490-7620-350-10510-570-21020 0-31530z"/>
  <path class="fil8 str20" d="m273210 334350c1570 870 2840 810 3950 480 360 1620 400 3200 340 4780-4350-20-8710-50-13070-70-160-650 280-1710 1040-1940 5970-560 5960-3140 7740-3250z"/>
  <path class="fil6 str20" d="m274570 331770c970 100 1930 200 2900 310-100 910-210 1830-310 2750-1230 1340-2370 1390-3420-220 280-950 550-1900 830-2840z"/>
  <path class="fil6 str20" d="m279700 260450h15220c-70 9240-1590 17630-3880 25580-470 2060-390 4470 140 6090 4890 14680 3700 27720-270 40010-1290-140-2590-270-3880-410-410-10460-880-20920-4840-32120-970-2510-2350-4350-2490-7620-350-10510-570-21020 0-31530z"/>
  <path class="fil8 str20" d="m286140 334350c1570 870 2840 810 3950 480 360 1620 400 3200 340 4780-4350-20-8710-50-13070-70-160-650 280-1710 1040-1940 5970-560 5960-3140 7740-3250z"/>
  <path class="fil6 str20" d="m287500 331770c970 100 1930 200 2900 310-100 910-210 1830-310 2750-1230 1340-2370 1390-3420-220 280-950 550-1900 830-2840z"/>
  <path class="fil13 str21" d="m265680 260450c10280 90 20610 90 31000 0 2490-350 2690-2840 2070-5820-1970-10800-4980-21710-8790-32700-2830 5230-10730 6710-25050 3460-1030 10860-2060 21710-3100 32570-200 1550 1860 2210 3870 2490z"/>
  <path class="fil8 str20" d="m289960 221930c1430 4920 3040 9760 5120 14400 640 1420 1360 2900 2760 2770 3050-650 6090-1290 9130-1940 1130-310 400-2590 280-4980-750-7780-7880-26270-11620-34060-1610-2760-3700-4810-6500-5820-1840-750-4360-560-6230-1100 180-1300 820-3830-380-3630-3590 1370-5950 2090-9960 2670-970 280-730 1510-870 2200-1900 800-4150 970-5900 1740-1180 700-1450 2900-1840 5460-870 6300-880 11410-420 16750-630 8960-2480 15910-380 16340l720-7550c5170 980 11060 2350 17370 1600 3730-790 6640-2400 8720-4850z"/>
  <path class="fil6 str20" d="m273370 190120c2470-630 4930-1270 7400-1900 50-1580 110-3150 160-4730 830 0 1450-250 1870-760 200-2260 410-4520 620-6780-1710-3420-5070-5960-10660-7340-1500-340-2690 300-3450 2350-70 1730-120 3740-190 5470-300 600-810 1410-950 2060-150 520 460 390 670 710 70 990 140 2400 210 3390 100 1070 860 1600 1470 1660 900 0 1780-270 2680-270 60 2280 110 3860 170 6140z"/>
  <path class="fil8 str20" d="m282530 177210c130 1160 40 2230-200 3250-220 920-1570 1290-1630 2350-10 1010 6480 950 7330 280 580-340 1050-600 1010-1240l-2490-12540c-480-1670-2300-2800-5470-3390-3140-440-6480-850-9550-70-2270 800-3200 1530-3180 2980l240 8610c1180-3280 10-6740 2720-8810 760-390 1260-580 1450-20 1130 4270 2750 6570 4790 7140 1660 490 4600-590 4980 1460z"/>
  <line class="fil1 str20" x1="314290" x2="307600" y1="276920" y2="255490"/>
  <path class="fil6 str20" d="m299100 238830c1380-290 2760-580 4140-880 2140 4950 4280 9900 6430 14850 640 1420 3480 5200-700 5810-4510 910-2980-4750-3590-5950-2100-4610-4190-9220-6280-13830z"/>
  <rect class="fil8 str22" transform="matrix(-1.1584 .36208 .4523 1.4491 334659 270552)" width="25000" height="38000" rx="3750" ry="3750"/>
  <line class="fil1 str23" x1="310040" x2="327230" y1="278250" y2="333310"/>
  <line class="fil1 str23" x1="320180" x2="337370" y1="275080" y2="330140"/>
  <line class="fil1 str23" x1="347500" x2="330310" y1="326970" y2="271910"/>
  <path class="fil6 str20" d="m325490 339460c3690-1150 5740-5070 4590-8760-1160-3690-5070-5750-8760-4590-3690 1150-5740 5070-4590 8760s5070 5750 8760 4590z"/>
  <path class="fil1 str20" d="m263530 216390c1070 2730 1230 5780 1380 9e3"/>
  <path class="fil1 str20" d="m289960 221930c-1700-5170-2700-10830-3e3 -15100"/>
  <ellipse class="fil1 str24" cx="323400" cy="332780" rx="2660" ry="2670"/>
 
</svg>
