<?xml version="1.0" encoding="UTF-8"?>
<!DOCTYPE svg PUBLIC "-//W3C//DTD SVG 1.1//EN" "http://www.w3.org/Graphics/SVG/1.1/DTD/svg11.dtd">
<!-- Creator: CorelDRAW 2020 (64-Bit) -->
<svg xmlns="http://www.w3.org/2000/svg" xml:space="preserve" width="160px" height="90px" version="1.1" style="shape-rendering:geometricPrecision; text-rendering:geometricPrecision; image-rendering:optimizeQuality; fill-rule:evenodd; clip-rule:evenodd"
viewBox="0 0 1117980 555290"
 xmlns:xlink="http://www.w3.org/1999/xlink"
 xmlns:xodm="http://www.corel.com/coreldraw/odm/2003">
 <defs>
  <style type="text/css">
   <![CDATA[
    .fil4 {fill:#0047E0}
    .fil2 {fill:#253138}
    .fil3 {fill:#3E7DFF}
    .fil1 {fill:#414D54}
    .fil0 {fill:#0047E0;fill-rule:nonzero}
   ]]>
  </style>
 </defs>
 <g id="Layer_x0020_1">
  <metadata id="CorelCorpID_0Corel-Layer"/>
  <path class="fil0" d="M462390 185900l18460 0 36790 154130 -26080 0 -19940 -101020 -19940 101020 -26050 0 36760 -154130zm-11760 105580l41980 0 0 24600 -41980 0 0 -24600z"/>
  <path id="1" class="fil0" d="M539680 198850l26270 0 0 141180 -26270 0 0 -141180zm-25440 -12950l77180 0 0 25220 -77180 0 0 -25220z"/>
  <path id="2" class="fil0" d="M634730 341620c-7600,0 -14220,-1550 -19760,-4590 -5540,-3080 -9770,-7560 -12660,-13390 -2900,-5820 -4340,-12810 -4340,-20910l0 -116830 26370 0 0 117550c0,3760 940,6660 2790,8760 1810,2100 4370,3110 7600,3110 3320,0 5930,-1010 7810,-3110 1880,-2100 2790,-5000 2790,-8760l0 -117550 26410 0 0 116830c0,8100 -1480,15090 -4420,20910 -2930,5830 -7160,10310 -12700,13390 -5570,3040 -12190,4590 -19890,4590z"/>
  <path id="3" class="fil0" d="M721670 341620c-7780,0 -14400,-1550 -19940,-4590 -5500,-3080 -9730,-7560 -12660,-13420 -2930,-5870 -4380,-12960 -4380,-21210l0 -78870c0,-8250 1450,-15340 4380,-21210 2930,-5860 7160,-10310 12660,-13380 5540,-3080 12160,-4630 19940,-4630 7780,0 14440,1550 19970,4630 5570,3070 9770,7560 12700,13460 2900,5890 4340,12990 4340,21230l0 12420 -26630 0 0 -12420c0,-2600 -360,-4880 -1150,-6760 -760,-1920 -1960,-3400 -3550,-4420 -1590,-1010 -3470,-1510 -5680,-1510 -2100,0 -3940,470 -5500,1480 -1560,980 -2750,2420 -3550,4340 -830,1920 -1230,4160 -1230,6770l0 78870c0,2610 400,4850 1230,6730 800,1880 1990,3290 3550,4310 1560,970 3400,1480 5500,1480 2280,0 4160,-510 5720,-1480 1550,-1020 2750,-2430 3510,-4310 790,-1880 1150,-4160 1150,-6840l0 -12410 26630 0 0 12410c0,8290 -1440,15340 -4340,21240 -2930,5940 -7130,10420 -12700,13500 -5530,3040 -12190,4590 -19970,4590z"/>
  <path id="4" class="fil0" d="M806260 341620c-7600,0 -14220,-1550 -19750,-4590 -5540,-3080 -9770,-7560 -12670,-13390 -2890,-5820 -4340,-12810 -4340,-20910l0 -116830 26380 0 0 117550c0,3760 940,6660 2780,8760 1810,2100 4380,3110 7600,3110 3330,0 5940,-1010 7820,-3110 1880,-2100 2780,-5000 2780,-8760l0 -117550 26420 0 0 116830c0,8100 -1490,15090 -4420,20910 -2930,5830 -7160,10310 -12700,13390 -5570,3040 -12190,4590 -19900,4590z"/>
  <polygon class="fil1" points="315250,507300 165510,507300 374690,0 726670,0 666510,145260 464260,145260 "/>
  <polygon class="fil2" points="318040,137380 374690,0 374690,137380 "/>
  <polygon class="fil2" points="214300,507300 367450,137380 374690,137380 374690,362760 315250,507300 "/>
  <path class="fil0" d="M399630 425110l27790 0c2240,0 4200,-370 5860,-1120 1660,-730 2930,-1780 3760,-3160 870,-1380 1270,-3060 1270,-4970l0 -15620c0,-2110 -400,-3950 -1270,-5490 -830,-1550 -2100,-2700 -3760,-3520 -1660,-790 -3620,-1190 -5860,-1190l-27790 0 0 -22960 26200 0c8320,0 15450,1250 21340,3720 5900,2470 10430,6120 13500,10890 3110,4800 4670,10520 4670,17200l0 16380c0,6880 -1560,12760 -4670,17700 -3070,4900 -7600,8650 -13570,11210 -5930,2570 -13020,3850 -21270,3850l-26200 0 0 -22920zm-11760 -58030l25760 0 0 140220 -25760 0 0 -140220zm33180 76610l24060 -4410 24570 68020 -28190 0 -20440 -63610z"/>
  <path id="1" class="fil0" d="M509950 367180l18450 0 36800 140120 -26090 0 -19930 -91830 -19940 91830 -26050 0 36760 -140120zm-11760 95980l41970 0 0 22370 -41970 0 0 -22370z"/>
  <polygon id="2" class="fil0" points="576630,367180 597290,367180 633550,460660 630690,464410 630690,367180 654640,367180 654640,507210 633760,507210 597940,419120 600690,415270 600690,507210 576630,507210 "/>
  <path id="3" class="fil0" d="M710070 508750c-8030,0 -14980,-1380 -20770,-4110 -5790,-2730 -10200,-6680 -13280,-11840 -3070,-5170 -4630,-11380 -4630,-18650l0 -7500 26200 -200 0 7500c0,3550 1080,6320 3290,8360 2170,2000 5210,3020 9120,3020 3800,0 6770,-980 8830,-2990 2100,-1970 3140,-4700 3140,-8190l0 -12240c0,-2560 -790,-4800 -2380,-6670 -1600,-1910 -3660,-3560 -6150,-4940 -2540,-1380 -5940,-3020 -10240,-4970 -290,-130 -550,-260 -800,-390 -250,-100 -510,-230 -800,-360l-1370 -590c-5720,-2630 -10600,-5370 -14620,-8230 -4050,-2860 -7380,-6640 -10090,-11350 -2680,-4670 -4020,-10450 -4020,-17330l0 -7240c0,-7100 1520,-13220 4520,-18350 3010,-5100 7350,-9010 13070,-11710 5750,-2700 12620,-4040 20690,-4040 7820,0 14580,1340 20230,4040 5680,2700 9980,6650 12950,11810 2970,5160 4450,11380 4450,18650l0 7890 -26200 300 0 -7990c0,-3590 -1010,-6420 -3000,-8420 -2020,-2040 -4850,-3060 -8430,-3060 -3830,0 -6760,920 -8860,2760 -2100,1840 -3110,4340 -3110,7570l0 9340c0,2630 750,4900 2270,6840 1520,1940 3410,3550 5720,4870 2280,1310 5500,2890 9590,4770 760,330 1550,650 2390,1050 790,390 1620,790 2490,1150 150,70 260,130 360,200 110,60 220,130 370,200 5860,2820 10600,5460 14220,7860 3580,2400 6650,5790 9220,10160 2540,4370 3800,9970 3800,16770l0 11650c0,7270 -1480,13480 -4480,18650 -3010,5160 -7390,9110 -13100,11840 -5720,2730 -12590,4110 -20590,4110z"/>
  <path id="4" class="fil0" d="M777300 430010l27240 0c2100,0 3940,-430 5500,-1350 1560,-890 2750,-2200 3580,-3950 870,-1710 1300,-3780 1300,-6150l0 -16480c0,-2500 -430,-4670 -1230,-6480 -830,-1770 -1990,-3160 -3540,-4080 -1560,-920 -3440,-1380 -5610,-1410l-27240 0 0 -22930 27970 0c7630,0 14180,1220 19600,3690 5430,2430 9590,6020 12420,10720 2820,4740 4230,10390 4230,17000l0 23620c0,6480 -1450,12040 -4310,16610 -2860,4610 -7020,8130 -12440,10530 -5430,2400 -11940,3620 -19500,3620l-27970 0 0 -22960zm-12300 -62830l26260 0 0 140120 -26260 0 0 -140120z"/>
  <path id="5" class="fil0" d="M897170 508750c-8290,0 -15380,-1310 -21280,-3910 -5900,-2600 -10380,-6350 -13490,-11250 -3110,-4930 -4670,-10860 -4670,-17800l0 -77100c0,-6940 1560,-12860 4670,-17820 3110,-4940 7590,-8690 13490,-11290 5900,-2560 12990,-3840 21280,-3840 8250,0 15340,1280 21230,3840 5900,2600 10430,6350 13540,11290 3070,4960 4630,10880 4630,17820l0 77100c0,6940 -1560,12870 -4630,17800 -3110,4900 -7640,8650 -13540,11250 -5890,2600 -12980,3910 -21230,3910zm0 -23910c2670,0 4990,-460 6910,-1450 1950,-950 3430,-2330 4410,-4140 980,-1780 1480,-3980 1480,-6550l0 -71110c0,-2500 -500,-4640 -1480,-6450 -980,-1810 -2460,-3190 -4410,-4140 -1920,-960 -4240,-1450 -6910,-1450 -2720,0 -5000,490 -6920,1450 -1910,950 -3360,2330 -4340,4140 -970,1810 -1480,3950 -1480,6450l0 71110c0,2570 510,4770 1480,6550 980,1810 2430,3190 4340,4140 1920,990 4200,1450 6920,1450z"/>
  <path id="6" class="fil0" d="M965120 425110l27780 0c2250,0 4200,-370 5860,-1120 1670,-730 2940,-1780 3770,-3160 870,-1380 1260,-3060 1260,-4970l0 -15620c0,-2110 -390,-3950 -1260,-5490 -830,-1550 -2100,-2700 -3770,-3520 -1660,-790 -3610,-1190 -5860,-1190l-27780 0 0 -22960 26190 0c8320,0 15450,1250 21350,3720 5900,2470 10420,6120 13490,10890 3120,4800 4670,10520 4670,17200l0 16380c0,6880 -1550,12760 -4670,17700 -3070,4900 -7590,8650 -13560,11210 -5940,2570 -13030,3850 -21280,3850l-26190 0 0 -22920zm-11760 -58030l25760 0 0 140220 -25760 0 0 -140220zm33180 76610l24060 -4410 24560 68020 -28180 0 -20440 -63610z"/>
  <path id="7" class="fil0" d="M1066240 378960l26270 0 0 128340 -26270 0 0 -128340zm-25430 -11780l77170 0 0 22930 -77170 0 0 -22930z"/>
  <path class="fil3" d="M202250 555290l-149730 0 149010 -362040 -201530 0 60160 -145260 351990 0c-70050,169120 -140100,337710 -209900,507300z"/>
  <polygon class="fil4" points="0,193250 60160,47990 60160,193250 "/>
  <polygon class="fil4" points="52520,555290 201530,193250 201530,555290 "/>
 </g>
</svg>
