<?xml version="1.0" encoding="UTF-8"?>
<!DOCTYPE svg PUBLIC "-//W3C//DTD SVG 1.1//EN" "http://www.w3.org/Graphics/SVG/1.1/DTD/svg11.dtd">
<!-- Creator: CorelDRAW 2020 (64-Bit) -->
<svg xmlns="http://www.w3.org/2000/svg" xml:space="preserve" width="970px" height="320px" version="1.1" style="shape-rendering:geometricPrecision; text-rendering:geometricPrecision; image-rendering:optimizeQuality; fill-rule:evenodd; clip-rule:evenodd"
viewBox="0 0 970000 320000"
 xmlns:xlink="http://www.w3.org/1999/xlink"
 xmlns:xodm="http://www.corel.com/coreldraw/odm/2003">
 <defs>
  <style type="text/css">
   <![CDATA[
    .str0 {stroke:#414D54;stroke-width:900;stroke-miterlimit:2.61313}
    .str1 {stroke:#4D4D4D;stroke-width:900;stroke-miterlimit:2.61313}
    .fil8 {fill:none;fill-rule:nonzero}
    .fil7 {fill:#414D54}
    .fil0 {fill:#CEDAED}
    .fil1 {fill:#CEDAED}
    .fil2 {fill:white}
    .fil5 {fill:#253138;fill-rule:nonzero}
    .fil6 {fill:#414D54;fill-rule:nonzero}
    .fil4 {fill:#CEDAED;fill-rule:nonzero}
    .fil3 {fill:white;fill-rule:nonzero}
   ]]>
  </style>
    <mask id="id0">
  <linearGradient id="id1" gradientUnits="userSpaceOnUse" x1="0" y1="160000" x2="116450" y2="160000">
   <stop offset="0" style="stop-opacity:0; stop-color:white"/>
   <stop offset="1" style="stop-opacity:1; stop-color:white"/>
  </linearGradient>
     <rect style="fill:url(#id1)" width="116450" height="320000"/>
    </mask>
    <mask id="id2">
  <linearGradient id="id3" gradientUnits="userSpaceOnUse" x1="970000" y1="160000" x2="853550" y2="160000">
   <stop offset="0" style="stop-opacity:0; stop-color:white"/>
   <stop offset="1" style="stop-opacity:1; stop-color:white"/>
  </linearGradient>
     <rect style="fill:url(#id3)" x="853550" width="116450" height="320000"/>
    </mask>
    <clipPath id="id4">
     <path d="M633330 199970l49840 0c4740,0 8610,3880 8610,8610l0 49850c0,4730 -3870,8600 -8610,8600l-49840 0c-4740,0 -8610,-3870 -8610,-8600l0 -49850c0,-4730 3870,-8610 8610,-8610z"/>
    </clipPath>
 </defs>
 <g id="Layer_x0020_1">
  <metadata id="CorelCorpID_0Corel-Layer"/>
  <g id="_2177524930928">
   <rect class="fil0" x="114950" width="740090" height="320000"/>
   <polygon class="fil0" style="mask:url(#id0)" points="0,0 116450,0 116450,320000 0,320000 "/>
   <polygon class="fil0" style="mask:url(#id2)" points="970000,320000 853550,320000 853550,0 970000,0 "/>
   <path class="fil1" d="M633330 199970l49840 0c4740,0 8610,3880 8610,8610l0 49850c0,4730 -3870,8600 -8610,8600l-49840 0c-4740,0 -8610,-3870 -8610,-8600l0 -49850c0,-4730 3870,-8610 8610,-8610z"/>
   <g style="clip-path:url(#id4)">
    <g>
     <g>
      <g>
       <polygon id="1" class="fil2" points="666860,221840 659010,239060 651160,256270 666860,256270 682560,256270 674710,239060 "/>
       <path id="2" class="fil3" d="M657260 238260l7850 -17220 3500 1590 -7850 17220 0 0 -3500 -1590zm-7840 17220l7840 -17220 3500 1590 -7850 17220 -1750 1120 -1740 -2710zm1740 2710l-2980 0 1240 -2710 1740 2710zm15700 0l-15700 0 0 -3840 15700 0 0 0 0 3840zm15700 0l-15700 0 0 -3840 15700 0 1740 1130 -1740 2710zm1740 -2710l1240 2710 -2980 0 1740 -2710zm-7850 -17220l7850 17220 -3490 1590 -7850 -17220 0 0 3490 -1590zm-7840 -17220l7840 17220 -3490 1590 -7850 -17220 0 -1590 3500 0zm-3500 0l1750 -3830 1750 3830 -3500 0z"/>
      </g>
      <g>
       <path class="fil4" d="M635940 240760l6770 -12810 10100 5420 -6770 12800 -10100 -5410zm-6770 12810l6770 -12810 10100 5410 -6770 12810 -5050 3050 -5050 -8460zm5050 8460l-9530 0 4480 -8460 5050 8460zm13540 0l-13540 0 0 -11520 13540 0 0 0 0 11520zm13540 0l-13540 0 0 -11520 13540 0 5050 3060 -5050 8460zm5050 -8460l4470 8460 -9520 0 5050 -8460zm-6770 -12810l6770 12810 -10100 5410 -6770 -12810 0 0 10100 -5410zm-6770 -12810l6770 12810 -10100 5410 -6770 -12800 0 -5420 10100 0zm-10100 0l5050 -9550 5050 9550 -10100 0z"/>
      </g>
      <g>
       <path class="fil2" d="M649830 212650c2260,0 4080,1820 4080,4070 0,2250 -1820,4080 -4080,4080 -2250,0 -4070,-1830 -4070,-4080 0,-2250 1820,-4070 4070,-4070z"/>
       <path id="1" class="fil3" d="M655830 216720l-3840 0 0 0 0 -110 -10 -110 -10 -110 -20 -100 -30 -110 -20 -100 -40 -100 -40 -100 -40 -90 -50 -100 -50 -80 -60 -90 -50 -80 -70 -90 -70 -80 -70 -70 -70 -70 -80 -70 -90 -70 -80 -60 -90 -50 -90 -50 -90 -50 -100 -50 -90 -30 -100 -40 -100 -30 -110 -20 -100 -20 -120 -10 -100 -10 -120 0 0 -3850 310 10 310 30 290 30 300 60 290 60 290 90 280 90 270 110 270 120 250 130 260 140 240 160 240 170 220 180 210 180 220 200 200 210 180 220 180 220 170 240 150 240 150 250 130 260 120 270 110 270 90 280 80 290 70 290 50 290 40 300 30 310 0 300 0 0zm-6000 6000l0 -3840 0 0 120 0 100 -10 120 -10 100 -20 110 -30 100 -30 100 -30 100 -40 90 -40 90 -50 90 -50 90 -60 90 -60 80 -60 80 -70 70 -70 70 -70 70 -80 60 -90 60 -80 60 -90 50 -90 50 -100 40 -90 40 -90 40 -110 20 -100 30 -100 20 -100 10 -120 10 -100 0 -120 3840 0 0 310 -30 310 -40 290 -50 300 -70 290 -80 290 -90 280 -110 270 -120 270 -130 250 -150 250 -150 250 -170 230 -180 230 -180 210 -200 210 -210 200 -220 190 -230 180 -230 170 -240 150 -250 140 -260 140 -280 120 -260 110 -280 90 -290 80 -290 70 -300 50 -290 40 -310 20 -310 10 0 0zm-5990 -6000l3840 0 0 0 0 120 10 100 10 120 20 100 30 100 20 100 40 110 40 100 40 80 50 100 50 90 60 90 60 90 60 80 70 70 70 80 80 70 70 70 80 60 90 60 90 60 90 50 90 50 90 40 100 40 100 30 100 30 110 30 100 20 110 10 110 10 110 0 0 3840 -300 -10 -310 -20 -300 -40 -290 -50 -290 -70 -290 -80 -280 -90 -270 -110 -270 -120 -260 -140 -250 -140 -240 -160 -230 -160 -230 -180 -220 -190 -210 -200 -190 -200 -190 -220 -180 -230 -170 -230 -150 -250 -150 -250 -130 -250 -120 -280 -110 -260 -90 -280 -80 -290 -70 -290 -50 -300 -40 -290 -30 -310 0 -310 0 0zm5990 -6000l0 3850 0 0 -110 0 -110 10 -110 10 -100 20 -110 20 -100 30 -100 40 -90 30 -100 50 -100 50 -80 50 -90 50 -80 60 -90 70 -80 70 -70 70 -70 70 -70 80 -60 80 -60 90 -60 90 -50 90 -50 90 -40 90 -40 100 -40 100 -20 100 -30 110 -20 100 -10 110 -10 110 0 110 -3840 0 0 -300 30 -310 40 -300 50 -290 70 -290 80 -290 90 -280 110 -270 120 -270 130 -260 150 -250 150 -240 170 -240 180 -220 180 -220 200 -210 210 -200 220 -180 230 -180 230 -170 240 -160 260 -140 250 -130 270 -120 270 -110 280 -90 290 -80 290 -70 290 -60 300 -30 310 -30 300 -10 0 0z"/>
      </g>
      <g>
       <polygon class="fil2" points="647760,230660 640990,243470 634220,256270 647760,256270 661300,256270 654530,243470 "/>
       <path id="1" class="fil3" d="M639300 242560l6780 -12800 3360 1800 -6770 12810 -3370 -1810zm-6770 12810l6770 -12810 3370 1810 -6770 12810 -1680 1010 -1690 -2820zm1690 2820l-3180 0 1490 -2820 1690 2820zm13540 0l-13540 0 0 -3840 13540 0 0 0 0 3840zm13540 0l-13540 0 0 -3840 13540 0 1680 1020 -1680 2820zm1680 -2820l1490 2820 -3170 0 1680 -2820zm-6770 -12810l6770 12810 -3360 1810 -6770 -12810 0 0 3360 -1810zm-6770 -12800l6770 12800 -3360 1810 -6770 -12810 0 -1800 3360 0zm-3360 0l1680 -3180 1680 3180 -3360 0z"/>
      </g>
     </g>
    </g>
   </g>
   <g>
    <path class="fil3" d="M683170 205370l-49840 0 0 -10800 49840 0 0 0 0 10800zm14010 3210l-10800 0 0 0 0 -160 -20 -170 -20 -150 -20 -150 -40 -160 -40 -150 -50 -150 -60 -130 -60 -150 -80 -140 -70 -130 -90 -130 -90 -130 -100 -130 -100 -110 -110 -120 -110 -110 -120 -100 -120 -100 -130 -90 -130 -80 -140 -80 -140 -70 -140 -70 -140 -50 -140 -50 -150 -40 -160 -40 -150 -30 -150 -20 -170 -10 -170 -10 0 -10800 720 20 700 60 710 90 690 120 680 160 660 190 660 220 640 250 620 290 600 310 580 330 570 370 550 390 530 410 500 440 490 460 460 490 440 510 420 520 390 550 360 570 340 590 310 600 280 620 250 640 230 660 190 660 150 670 130 700 90 700 50 710 20 710 0 0zm-10800 49850l0 -49850 10800 0 0 49850 0 0 -10800 0zm-3210 14000l0 -10790 0 0 170 -10 170 -10 150 -20 150 -30 160 -40 150 -40 140 -50 140 -50 140 -70 140 -70 140 -80 130 -80 130 -90 120 -100 120 -100 110 -110 110 -120 100 -110 100 -130 90 -130 90 -130 70 -130 80 -140 60 -150 60 -140 50 -140 40 -150 40 -160 20 -150 20 -150 20 -170 0 -160 10800 0 -20 710 -50 710 -90 700 -130 700 -150 670 -190 660 -230 660 -250 640 -280 620 -310 600 -340 590 -360 570 -390 550 -420 520 -440 510 -460 480 -490 470 -500 440 -530 410 -550 390 -570 370 -580 330 -600 310 -620 280 -640 260 -660 220 -660 190 -680 160 -690 120 -710 90 -700 60 -720 10 0 0zm-49840 -10790l49840 0 0 10790 -49840 0 0 0 0 -10790zm-14010 -3210l10800 0 0 0 0 160 20 170 10 150 30 150 40 160 40 150 50 140 60 140 60 150 70 140 80 130 90 130 90 130 90 130 110 110 110 120 110 110 120 100 120 100 130 90 130 80 130 80 140 70 150 70 140 50 140 50 150 40 160 40 150 30 150 20 170 10 170 10 0 10790 -720 -10 -700 -60 -710 -90 -700 -120 -670 -160 -660 -190 -660 -220 -640 -260 -620 -280 -600 -310 -590 -330 -560 -370 -550 -390 -530 -410 -510 -440 -480 -470 -460 -480 -440 -510 -420 -520 -390 -550 -360 -570 -340 -590 -310 -600 -280 -620 -260 -640 -220 -660 -190 -660 -150 -670 -130 -700 -90 -700 -50 -710 -20 -710 0 0zm10800 -49850l0 49850 -10800 0 0 -49850 0 0 10800 0zm3210 -14010l0 10800 0 0 -170 10 -170 10 -150 20 -150 30 -160 40 -150 40 -140 50 -140 50 -150 70 -140 70 -130 80 -130 80 -130 90 -120 100 -120 100 -110 110 -110 120 -110 110 -90 130 -90 130 -90 130 -80 130 -70 140 -60 150 -60 130 -50 150 -40 150 -40 160 -30 150 -10 150 -20 170 0 160 -10800 0 20 -710 50 -710 90 -700 130 -700 150 -670 190 -660 220 -660 260 -640 280 -620 310 -600 340 -590 360 -570 390 -550 420 -520 440 -510 460 -490 480 -460 510 -440 530 -410 550 -390 560 -370 590 -330 600 -310 620 -290 640 -250 660 -220 660 -190 670 -160 700 -120 710 -90 700 -60 720 -20 0 0z"/>
   </g>
   <g>
    <path class="fil3" d="M716840 55840l-76180 0 0 -10800 76180 0 0 0 0 10800zm18550 7750l-10800 0 0 0 -10 -400 -30 -390 -50 -390 -60 -370 -90 -370 -100 -370 -130 -360 -130 -340 -160 -350 -170 -340 -190 -320 -200 -310 -220 -310 -240 -300 -240 -280 -260 -270 -270 -260 -290 -250 -290 -230 -310 -220 -310 -200 -330 -190 -330 -170 -350 -160 -350 -130 -360 -130 -360 -100 -370 -90 -370 -60 -390 -50 -390 -30 -400 -10 0 -10800 950 20 930 70 930 120 920 160 900 210 880 260 860 290 850 330 820 380 790 410 790 450 750 480 720 520 700 550 670 580 640 610 620 650 580 670 550 690 520 730 480 750 450 780 410 800 380 820 330 840 290 870 260 880 200 900 170 920 120 930 70 930 20 950 0 0zm-10800 76180l0 -76180 10800 0 0 76180 0 0 -10800 0zm-7750 18550l0 -10800 0 0 400 -10 390 -30 390 -50 370 -60 370 -90 360 -100 360 -130 350 -140 350 -150 330 -170 330 -190 310 -200 310 -220 300 -240 280 -240 270 -260 260 -270 240 -290 240 -290 220 -310 200 -320 190 -320 170 -330 150 -340 140 -360 130 -360 100 -360 90 -370 60 -370 50 -390 30 -390 10 -400 10800 0 -20 950 -70 940 -120 920 -170 920 -200 900 -260 880 -290 860 -330 850 -380 820 -410 800 -450 780 -480 750 -520 720 -550 700 -580 670 -610 650 -650 610 -670 580 -700 550 -720 520 -750 480 -790 450 -790 410 -820 370 -850 340 -860 290 -880 250 -900 210 -920 170 -930 120 -930 70 -950 20 0 0zm-76180 -10800l76180 0 0 10800 -76180 0 0 0 0 -10800zm-18550 -7750l10800 0 0 0 10 400 30 390 50 390 60 370 90 370 100 360 130 360 140 360 150 340 170 330 190 320 200 320 220 310 230 290 250 290 260 270 270 260 280 240 300 240 310 220 310 200 320 190 340 170 350 150 350 140 360 130 360 100 370 90 370 60 390 50 390 30 400 10 0 10800 -950 -20 -940 -70 -920 -120 -920 -170 -900 -210 -880 -250 -860 -290 -850 -340 -820 -370 -800 -410 -780 -450 -750 -480 -730 -520 -690 -550 -670 -580 -650 -610 -610 -650 -580 -670 -550 -700 -520 -720 -480 -750 -450 -780 -410 -800 -380 -820 -330 -850 -290 -860 -260 -880 -210 -900 -160 -920 -120 -920 -70 -940 -20 -950 0 0zm10800 -76180l0 76180 -10800 0 0 -76180 0 0 10800 0zm7750 -18550l0 10800 0 0 -400 10 -390 30 -390 50 -370 60 -370 90 -360 100 -360 130 -350 130 -350 160 -340 170 -320 190 -310 200 -310 220 -290 230 -290 250 -270 260 -260 270 -250 280 -230 300 -220 310 -200 310 -190 320 -170 340 -160 350 -130 340 -130 360 -100 370 -90 370 -60 370 -50 390 -30 390 -10 400 -10800 0 20 -950 70 -930 120 -930 160 -920 210 -900 260 -880 290 -870 330 -840 380 -820 410 -800 450 -780 480 -750 520 -730 550 -690 580 -670 610 -650 650 -610 670 -580 690 -550 730 -520 750 -480 780 -450 800 -410 820 -380 850 -330 860 -290 880 -260 900 -210 920 -160 920 -120 940 -70 950 -20 0 0z"/>
   </g>
   <g>
    <path class="fil2" d="M657770 106690c-1800,3410 -3600,6810 -5400,10220 -1790,3380 -3580,6770 -5370,10160 -5940,11230 -6940,9410 4920,9410 3600,0 7200,0 10800,0 3580,0 7160,0 10740,0 11880,0 10940,1860 5010,-9360 -1800,-3410 -3600,-6810 -5400,-10210 -1800,-3390 -3590,-6780 -5380,-10170 -5930,-11230 -3990,-11270 -9920,-50z"/>
    <path id="1" class="fil3" d="M654050 117810l-3360 -1810 0 0 170 -320 170 -320 170 -320 160 -310 170 -320 170 -320 170 -320 170 -320 170 -320 170 -320 170 -320 160 -310 170 -330 170 -320 170 -320 170 -310 170 -320 170 -320 170 -320 160 -320 170 -320 170 -320 170 -320 170 -320 170 -320 170 -320 160 -320 170 -310 170 -320 170 -320 170 -320 170 -320 3360 1800 -160 320 -170 320 -170 320 -170 320 -170 320 -170 320 -170 320 -170 320 -160 320 -170 320 -170 310 -170 320 -170 320 -170 320 -170 320 -170 320 -160 320 -170 320 -170 310 -170 330 -170 320 -170 320 -170 310 -170 320 -160 320 -170 320 -170 320 -170 320 -170 320 -170 320 -170 320 -170 320 0 0zm-5370 10160l-3360 -1800 -10 0 170 -320 170 -320 170 -320 170 -320 160 -310 170 -320 170 -320 170 -310 170 -320 170 -320 160 -320 170 -310 170 -320 160 -320 170 -320 170 -320 170 -310 170 -320 170 -320 160 -320 170 -310 170 -320 170 -320 160 -320 170 -310 170 -320 170 -320 170 -320 170 -320 160 -310 170 -320 170 -320 3360 1810 -160 310 -170 320 -170 320 -170 320 -170 320 -160 310 -170 320 -170 320 -160 310 -170 320 -170 320 -170 320 -170 320 -160 310 -170 320 -170 320 -170 320 -170 310 -160 320 -170 320 -170 320 -170 320 -170 310 -160 320 -170 320 -170 310 -170 320 -170 320 -170 320 -160 310 -170 320 -170 320 0 0zm3240 6590l0 3840 0 0 -1060 0 -990 10 -910 20 -850 20 -790 20 -730 20 -670 10 -620 10 -570 -10 -540 -30 -510 -50 -500 -80 -520 -150 -550 -260 -560 -430 -460 -630 -240 -720 -50 -660 70 -570 130 -520 180 -490 210 -490 240 -500 280 -540 310 -580 350 -630 380 -680 410 -730 440 -800 470 -860 510 -930 540 -1000 3360 1800 -550 1030 -510 950 -490 880 -450 810 -410 740 -370 660 -330 600 -290 540 -240 460 -190 390 -130 310 -80 220 -30 110 0 -40 -20 -200 -110 -330 -220 -310 -220 -170 -90 -40 40 10 180 20 290 30 390 20 470 10 560 -10 630 -10 710 -20 790 -20 870 -20 930 -10 1020 -20 1090 0 0 0zm10800 0l0 3840 0 0 -340 0 -340 0 -330 0 -340 0 -340 0 -340 0 -330 0 -340 0 -340 0 -340 0 -330 0 -340 0 -340 0 -340 0 -330 0 -340 0 -340 0 -340 0 -330 0 -340 0 -340 0 -340 0 -330 0 -340 0 -340 0 -340 0 -330 0 -340 0 -340 0 -340 0 -330 0 -340 0 0 -3840 340 0 330 0 340 0 340 0 340 0 330 0 340 0 340 0 340 0 330 0 340 0 340 0 340 0 330 0 340 0 340 0 340 0 330 0 340 0 340 0 340 0 330 0 340 0 340 0 340 0 330 0 340 0 340 0 340 0 330 0 340 0 340 0 0 0zm10740 0l0 3840 0 0 -330 0 -340 0 -330 0 -340 0 -330 0 -340 0 -340 0 -330 0 -340 0 -330 0 -340 0 -340 0 -330 0 -340 0 -330 0 -340 0 -330 0 -340 0 -340 0 -330 0 -340 0 -330 0 -340 0 -340 0 -330 0 -340 0 -330 0 -340 0 -330 0 -340 0 -340 0 -330 0 0 -3840 330 0 340 0 340 0 330 0 340 0 330 0 340 0 330 0 340 0 340 0 330 0 340 0 330 0 340 0 340 0 330 0 340 0 330 0 340 0 330 0 340 0 340 0 330 0 340 0 330 0 340 0 340 0 330 0 340 0 330 0 340 0 330 0 0 0zm3320 -6540l3370 -1800 0 0 530 1000 510 930 470 860 440 790 410 740 380 670 340 630 310 580 280 540 240 500 210 490 170 490 130 520 70 570 -60 680 -260 720 -470 610 -560 420 -550 250 -520 140 -500 90 -520 40 -530 30 -580 0 -620 0 -670 -20 -730 -10 -790 -30 -850 -20 -920 -20 -990 -10 -1060 0 0 -3840 1100 0 1010 20 950 10 860 30 790 20 720 20 640 10 560 0 470 0 400 -20 290 -30 190 -30 50 -10 -90 50 -210 160 -220 290 -130 340 -20 220 10 40 -30 -100 -80 -210 -130 -310 -190 -390 -230 -460 -280 -530 -330 -600 -370 -660 -410 -740 -450 -800 -480 -880 -520 -950 -550 -1030 0 0zm-5400 -10210l3370 -1810 0 0 170 320 170 320 170 320 170 320 160 320 170 320 170 320 170 320 170 310 170 320 170 320 170 330 160 310 170 320 170 320 170 320 170 320 170 320 170 320 170 320 160 320 170 310 170 320 170 320 170 320 170 320 170 320 170 320 160 320 170 320 170 320 170 320 -3370 1800 -170 -320 -170 -320 -170 -320 -160 -320 -170 -310 -170 -320 -170 -320 -170 -320 -170 -320 -170 -320 -170 -320 -160 -320 -170 -320 -170 -320 -170 -320 -170 -320 -170 -320 -170 -310 -170 -320 -160 -320 -170 -320 -170 -320 -170 -320 -170 -320 -170 -320 -170 -320 -170 -320 -160 -320 -170 -310 -170 -320 -170 -320 -170 -320 0 0zm-5370 -10170l3370 -1800 0 0 160 320 170 320 170 310 170 320 170 320 160 320 170 310 170 320 170 320 160 310 170 320 170 320 170 320 170 320 160 310 170 320 170 320 170 320 170 320 160 310 170 320 170 310 170 320 170 320 160 320 170 320 170 320 170 310 170 320 160 320 170 320 170 310 -3370 1810 -170 -320 -160 -320 -170 -310 -170 -320 -170 -320 -170 -320 -160 -320 -170 -320 -170 -310 -160 -320 -170 -310 -170 -320 -170 -320 -170 -320 -170 -320 -160 -310 -170 -320 -170 -320 -170 -320 -170 -310 -160 -320 -170 -320 -170 -320 -170 -320 -170 -310 -160 -320 -170 -320 -170 -310 -170 -320 -170 -320 -160 -320 -170 -320 0 0zm-6560 -50l-3360 -1800 0 0 530 -1010 480 -940 440 -880 410 -810 380 -760 350 -690 320 -640 310 -580 290 -530 280 -480 280 -450 310 -410 360 -400 470 -380 640 -320 810 -130 810 140 620 330 470 390 350 390 300 420 280 440 290 490 280 530 310 590 320 640 350 690 380 760 410 820 440 880 490 940 530 1010 -3370 1800 -540 -1030 -500 -970 -450 -890 -420 -830 -380 -760 -340 -690 -310 -610 -280 -540 -250 -460 -210 -370 -180 -280 -130 -180 -60 -70 70 60 240 120 440 80 440 -70 260 -130 70 -50 -50 60 -120 170 -180 270 -210 370 -250 450 -280 540 -310 610 -340 680 -380 760 -420 820 -450 900 -490 960 -550 1030 0 0z"/>
   </g>
   <g>
    <path class="fil2" d="M686680 95320c-2260,4950 -4510,9900 -6770,14840 -2230,4900 -4460,9800 -6690,14700 -6310,13830 -7410,11620 5160,11620 4510,0 9020,0 13530,0 4460,0 8930,0 13390,0 12610,0 11650,2310 5370,-11480 -2260,-4940 -4510,-9890 -6770,-14840 -2230,-4900 -4460,-9790 -6700,-14690 -6300,-13830 -4240,-13940 -10520,-150z"/>
    <path id="1" class="fil3" d="M681660 110960l-3490 -1590 0 0 210 -470 210 -460 210 -470 210 -460 210 -460 220 -470 210 -460 210 -460 210 -470 210 -460 210 -470 210 -460 220 -460 210 -470 210 -460 210 -460 210 -470 210 -460 210 -460 210 -470 220 -460 210 -460 210 -470 210 -460 210 -470 210 -460 210 -460 220 -470 210 -460 210 -470 210 -460 210 -460 3490 1590 -210 470 -210 460 -210 460 -210 470 -210 460 -210 460 -220 470 -210 460 -210 460 -210 470 -210 460 -210 470 -210 460 -210 460 -220 470 -210 460 -210 460 -210 470 -210 460 -210 470 -210 460 -220 460 -210 470 -210 460 -210 460 -210 470 -210 460 -210 460 -210 470 -220 460 -210 470 -210 460 0 0zm-6700 14690l-3490 -1590 0 0 210 -460 210 -460 210 -460 210 -450 210 -460 210 -460 200 -460 210 -460 210 -460 210 -460 210 -460 210 -460 210 -460 210 -460 210 -460 210 -460 210 -460 210 -450 210 -460 200 -460 210 -460 210 -460 210 -460 210 -460 210 -460 210 -460 210 -460 210 -460 210 -460 210 -460 210 -460 210 -450 3490 1590 -210 460 -210 460 -210 460 -210 460 -200 460 -220 460 -200 450 -210 460 -210 460 -210 460 -210 460 -210 460 -210 460 -210 460 -210 460 -210 460 -210 450 -210 460 -210 470 -210 460 -200 450 -210 460 -210 460 -210 460 -210 460 -210 460 -210 460 -210 460 -210 460 -210 460 -210 450 -210 460 0 0zm3420 8910l0 3840 0 0 -1120 0 -1040 20 -970 20 -910 30 -830 20 -770 20 -710 10 -660 10 -610 -20 -580 -30 -550 -60 -560 -110 -560 -200 -590 -320 -550 -500 -410 -670 -210 -710 -30 -660 70 -590 120 -560 180 -550 210 -580 260 -600 290 -660 330 -710 360 -760 400 -840 440 -900 470 -990 510 -1060 540 -1150 570 -1240 3490 1590 -580 1270 -550 1170 -510 1080 -480 990 -440 910 -390 830 -360 740 -310 670 -260 580 -210 500 -150 410 -100 320 -50 210 -10 70 -10 -80 -70 -230 -160 -260 -200 -180 -100 -70 20 10 170 30 290 30 400 30 500 10 580 -10 670 -10 750 -20 840 -20 910 -30 1000 -20 1070 -20 1160 0 0 0zm13530 0l0 3840 0 0 -420 0 -430 0 -420 0 -420 0 -430 0 -420 0 -420 0 -420 0 -430 0 -420 0 -420 0 -420 0 -430 0 -420 0 -420 0 -430 0 -420 0 -420 0 -420 0 -430 0 -420 0 -420 0 -430 0 -420 0 -420 0 -420 0 -430 0 -420 0 -420 0 -420 0 -430 0 -420 0 0 -3840 420 0 430 0 420 0 420 0 420 0 430 0 420 0 420 0 420 0 430 0 420 0 420 0 430 0 420 0 420 0 420 0 430 0 420 0 420 0 430 0 420 0 420 0 420 0 430 0 420 0 420 0 420 0 430 0 420 0 420 0 430 0 420 0 0 0zm13390 0l0 3840 0 0 -410 0 -420 0 -420 0 -420 0 -420 0 -420 0 -420 0 -410 0 -420 0 -420 0 -420 0 -420 0 -420 0 -420 0 -420 0 -410 0 -420 0 -420 0 -420 0 -420 0 -420 0 -420 0 -410 0 -420 0 -420 0 -420 0 -420 0 -420 0 -420 0 -410 0 -420 0 -420 0 0 -3840 420 0 420 0 410 0 420 0 420 0 420 0 420 0 420 0 420 0 410 0 420 0 420 0 420 0 420 0 420 0 420 0 410 0 420 0 420 0 420 0 420 0 420 0 420 0 420 0 410 0 420 0 420 0 420 0 420 0 420 0 420 0 410 0 0 0zm3620 -8760l3490 -1590 0 0 570 1230 540 1150 500 1060 470 970 430 910 400 830 360 760 320 700 290 650 250 610 210 570 160 550 120 570 60 600 -60 670 -230 700 -430 650 -570 480 -590 300 -560 180 -560 100 -550 60 -580 30 -610 0 -670 0 -710 -20 -780 -20 -830 -30 -910 -30 -980 -20 -1040 -20 -1130 0 0 -3840 1170 0 1080 20 1000 20 920 30 840 30 760 20 680 20 600 0 500 0 420 -20 300 -30 180 -30 50 -20 -100 60 -190 160 -170 260 -80 240 -10 100 -10 -50 -40 -190 -90 -300 -150 -410 -200 -490 -260 -580 -300 -650 -350 -740 -390 -820 -430 -910 -480 -980 -510 -1080 -540 -1160 -580 -1260 0 0zm-6760 -14840l3490 -1590 0 0 210 460 210 460 210 470 220 460 210 460 210 470 210 460 210 470 210 460 210 460 220 470 210 460 210 470 210 460 210 460 210 470 210 460 210 460 220 470 210 460 210 460 210 470 210 460 210 470 210 460 220 460 210 470 210 460 210 460 210 470 210 460 210 470 -3490 1590 -210 -470 -210 -460 -220 -460 -210 -470 -210 -460 -210 -460 -210 -470 -210 -460 -210 -470 -210 -460 -220 -460 -210 -470 -210 -460 -210 -460 -210 -470 -210 -460 -210 -460 -220 -470 -210 -470 -210 -460 -210 -460 -210 -460 -210 -470 -210 -460 -210 -460 -220 -470 -210 -460 -210 -470 -210 -460 -210 -460 -210 -470 -210 -460 0 0zm-6700 -14700l3490 -1590 0 0 210 460 210 460 210 460 210 460 210 460 210 460 210 450 210 460 210 470 210 460 200 450 210 460 210 460 210 460 210 460 210 460 210 460 210 460 210 460 210 460 210 450 210 460 210 460 210 460 200 460 210 460 210 460 210 460 210 460 210 460 210 460 210 460 -3490 1590 -210 -460 -210 -460 -210 -460 -210 -460 -210 -460 -210 -450 -210 -470 -210 -460 -210 -450 -210 -460 -210 -460 -210 -460 -210 -460 -200 -460 -210 -460 -210 -460 -210 -460 -210 -460 -210 -460 -210 -450 -210 -460 -210 -460 -210 -460 -210 -460 -210 -460 -210 -460 -210 -460 -210 -460 -200 -460 -210 -450 -210 -470 -210 -460 0 0zm-7040 -140l-3490 -1590 0 0 560 -1240 520 -1160 470 -1080 430 -1010 400 -930 370 -850 350 -770 320 -710 300 -640 290 -580 290 -520 310 -480 360 -460 470 -440 690 -390 930 -150 910 200 650 400 450 450 350 460 300 480 290 530 290 590 300 640 320 720 340 780 370 860 400 940 440 1010 470 1080 520 1170 560 1240 -3490 1590 -570 -1270 -530 -1180 -480 -1100 -440 -1030 -400 -930 -370 -850 -330 -760 -300 -670 -270 -580 -240 -480 -200 -370 -160 -260 -80 -110 30 30 250 140 510 120 530 -90 290 -160 60 -50 -80 100 -150 240 -200 360 -230 460 -270 570 -300 660 -330 750 -360 840 -400 920 -440 1020 -480 1090 -520 1190 -580 1260 0 0z"/>
   </g>
   <g>
    <path class="fil2" d="M653200 69800c3440,0 6230,2790 6230,6230 0,3450 -2790,6230 -6230,6230 -3440,0 -6230,-2780 -6230,-6230 0,-3440 2790,-6230 6230,-6230z"/>
    <path id="1" class="fil3" d="M661350 76030l-3840 0 0 0 -10 -220 -10 -220 -30 -220 -40 -210 -40 -210 -60 -200 -70 -200 -80 -200 -80 -190 -100 -180 -100 -180 -120 -180 -110 -170 -130 -160 -140 -160 -140 -150 -150 -140 -160 -140 -160 -120 -170 -120 -170 -120 -190 -100 -180 -90 -190 -90 -200 -80 -200 -70 -200 -50 -210 -50 -210 -40 -220 -30 -220 -10 -220 -10 0 -3840 420 10 410 30 410 50 400 80 390 90 390 110 380 130 370 140 360 160 360 190 340 190 330 210 320 230 310 250 290 250 280 270 270 280 260 300 240 300 230 320 210 340 200 340 180 350 160 360 150 370 120 380 110 390 100 390 70 400 50 410 30 420 10 410 0 0zm-8150 8160l0 -3850 0 0 220 0 220 -20 220 -30 210 -30 210 -50 200 -60 200 -70 200 -70 190 -90 180 -90 190 -110 170 -110 170 -120 160 -130 160 -140 150 -140 140 -150 140 -160 130 -160 110 -170 120 -170 100 -180 100 -190 80 -190 80 -200 70 -190 60 -210 40 -210 40 -210 30 -210 10 -220 10 -230 3840 0 -10 420 -30 410 -50 410 -70 400 -100 400 -100 380 -130 390 -150 370 -160 360 -180 350 -200 340 -210 330 -230 320 -240 310 -260 290 -270 290 -280 270 -290 250 -310 240 -320 230 -330 210 -340 200 -360 180 -360 160 -370 150 -380 130 -390 110 -390 90 -400 70 -410 50 -410 30 -420 20 0 0zm-8150 -8160l3840 0 0 0 0 230 20 220 30 210 30 210 50 210 60 210 70 190 70 200 90 190 100 190 100 180 110 170 120 170 130 160 140 160 140 150 150 140 160 140 160 130 170 120 170 110 180 110 190 90 190 90 200 70 200 70 200 60 210 50 210 30 220 30 210 20 230 0 0 3850 -420 -20 -410 -30 -410 -50 -400 -70 -400 -90 -390 -110 -380 -130 -370 -150 -360 -160 -350 -180 -340 -200 -330 -210 -320 -230 -310 -240 -290 -250 -290 -270 -270 -290 -250 -290 -240 -310 -230 -320 -210 -330 -200 -340 -180 -350 -160 -360 -150 -370 -130 -390 -110 -380 -90 -400 -70 -400 -50 -410 -30 -410 -10 -420 0 0zm8150 -8150l0 3840 0 0 -230 10 -210 10 -220 30 -210 40 -210 50 -200 50 -200 70 -200 80 -190 90 -190 90 -180 100 -170 120 -170 120 -160 120 -160 140 -150 140 -140 150 -140 160 -130 160 -120 170 -110 180 -100 180 -100 180 -90 190 -70 200 -70 200 -60 200 -50 210 -30 210 -30 220 -20 220 0 220 -3840 0 10 -410 30 -420 50 -410 70 -400 90 -390 110 -390 130 -380 150 -370 160 -360 180 -350 200 -340 210 -340 230 -320 240 -300 250 -300 270 -280 290 -270 290 -260 310 -240 320 -230 330 -210 340 -190 350 -190 360 -160 370 -140 380 -130 390 -110 400 -90 400 -80 410 -50 410 -30 420 -10 0 0z"/>
   </g>
   <path class="fil5" d="M220770 97010l0 33260c0,5790 -1090,10800 -3260,14980 -2160,4170 -5290,7380 -9440,9600 -4120,2190 -9050,3310 -14820,3310 -5870,0 -10880,-1070 -15050,-3210 -4170,-2140 -7380,-5240 -9600,-9340 -2220,-4070 -3310,-8920 -3310,-14580l0 -57630c0,-5970 1070,-11090 3230,-15390 2170,-4300 5320,-7590 9450,-9860 4120,-2270 9070,-3420 14810,-3420 5660,0 10520,1100 14590,3290 4040,2190 7120,5370 9260,9550 2160,4200 3230,9180 3230,15000l0 8550 -19510 0 0 -8550c0,-1800 -290,-3340 -910,-4650 -600,-1270 -1490,-2270 -2640,-2970 -1150,-680 -2480,-1020 -4020,-1020 -1670,0 -3130,370 -4380,1150 -1250,760 -2190,1850 -2870,3290 -650,1410 -990,3100 -990,5030l0 57630c0,1560 340,2970 1040,4170 680,1180 1700,2110 3000,2740 1330,630 2900,970 4670,970 1830,0 3420,-340 4780,-1000 1350,-670 2370,-1640 3100,-2920 710,-1280 1070,-2790 1070,-4590l0 -15210 -9340 0 0 -18180 27910 0z"/>
   <path id="1" class="fil5" d="M250960 45880l13300 0 26530 111130 -18810 0 -14370 -72830 -14370 72830 -18790 0 26510 -111130zm-8480 76120l30260 0 0 17740 -30260 0 0 -17740z"/>
   <path id="2" class="fil5" d="M299040 45880l18930 0 0 111130 -18930 0 0 -111130zm7800 92950l40040 0 0 18180 -40040 0 0 -18180z"/>
   <path id="3" class="fil5" d="M356660 45880l18940 0 0 111130 -18940 0 0 -111130zm8400 92630l40960 0 0 18500 -40960 0 0 -18500zm0 -45930l37150 0 0 18410 -37150 0 0 -18410zm0 -46700l40960 0 0 18500 -40960 0 0 -18500z"/>
   <path id="4" class="fil5" d="M424300 91820l20040 0c1620,0 3030,-290 4230,-890 1200,-570 2110,-1410 2710,-2500 620,-1100 910,-2430 910,-3940l0 -12390c0,-1670 -290,-3130 -910,-4360 -600,-1230 -1510,-2140 -2710,-2790 -1200,-630 -2610,-940 -4230,-940l-20040 0 0 -18210 18890 0c6000,0 11140,990 15390,2950 4250,1960 7520,4850 9730,8630 2250,3810 3370,8350 3370,13650l0 12990c0,5450 -1120,10120 -3370,14030 -2210,3890 -5480,6860 -9780,8900 -4280,2030 -9390,3050 -15340,3050l-18890 0 0 -18180zm-8470 -46020l18570 0 0 111210 -18570 0 0 -111210zm23920 60760l17350 -3500 17710 53950 -20320 0 -14740 -50450z"/>
   <polygon id="5" class="fil5" points="503950,157010 484980,157010 484980,45880 503950,45880 "/>
   <path id="6" class="fil5" d="M516030 45880l18940 0 0 111130 -18940 0 0 -111130zm8400 92630l40950 0 0 18500 -40950 0 0 -18500zm0 -45930l37140 0 0 18410 -37140 0 0 -18410zm0 -46700l40950 0 0 18500 -40950 0 0 -18500z"/>
   <path class="fil6" d="M366010 181710l15780 0 0 92600 -15780 0 0 -92600zm7060 39870l30960 0 0 15150 -30960 0 0 -15150zm0 -39870l34130 0 0 15150 -34130 0 0 -15150z"/>
   <path id="1" class="fil6" d="M437790 275270c-4980,0 -9240,-870 -12780,-2590 -3550,-1710 -6240,-4190 -8110,-7430 -1870,-3260 -2810,-7170 -2810,-11760l0 -50960c0,-4580 940,-8500 2810,-11780 1870,-3260 4560,-5740 8110,-7460 3540,-1690 7800,-2540 12780,-2540 4960,0 9220,850 12760,2540 3540,1720 6260,4200 8130,7460 1850,3280 2780,7200 2780,11780l0 50960c0,4590 -930,8500 -2780,11760 -1870,3240 -4590,5720 -8130,7430 -3540,1720 -7800,2590 -12760,2590zm0 -15800c1610,0 3000,-310 4150,-960 1180,-630 2070,-1540 2650,-2740 590,-1170 900,-2630 900,-4330l0 -47000c0,-1650 -310,-3060 -900,-4260 -580,-1190 -1470,-2100 -2650,-2730 -1150,-630 -2540,-960 -4150,-960 -1630,0 -3000,330 -4150,960 -1150,630 -2020,1540 -2610,2730 -590,1200 -890,2610 -890,4260l0 47000c0,1700 300,3160 890,4330 590,1200 1460,2110 2610,2740 1150,650 2520,960 4150,960z"/>
   <path id="2" class="fil6" d="M481720 189490l15790 0 0 84820 -15790 0 0 -84820zm-15280 -7780l46370 0 0 15150 -46370 0 0 -15150z"/>
   <path id="3" class="fil6" d="M541460 275270c-4970,0 -9230,-870 -12780,-2590 -3540,-1710 -6240,-4190 -8110,-7430 -1870,-3260 -2800,-7170 -2800,-11760l0 -50960c0,-4580 930,-8500 2800,-11780 1870,-3260 4570,-5740 8110,-7460 3550,-1690 7810,-2540 12780,-2540 4960,0 9220,850 12760,2540 3550,1720 6270,4200 8130,7460 1850,3280 2790,7200 2790,11780l0 50960c0,4590 -940,8500 -2790,11760 -1860,3240 -4580,5720 -8130,7430 -3540,1720 -7800,2590 -12760,2590zm0 -15800c1610,0 3000,-310 4160,-960 1170,-630 2060,-1540 2650,-2740 590,-1170 890,-2630 890,-4330l0 -47000c0,-1650 -300,-3060 -890,-4260 -590,-1190 -1480,-2100 -2650,-2730 -1160,-630 -2550,-960 -4160,-960 -1630,0 -3000,330 -4150,960 -1150,630 -2020,1540 -2610,2730 -580,1200 -890,2610 -890,4260l0 47000c0,1700 310,3160 890,4330 590,1200 1460,2110 2610,2740 1150,650 2520,960 4150,960z"/>
   <g>
    <path class="fil7" d="M251310 194390l81550 0c7210,0 13100,5890 13100,13090l0 49110c0,7200 -5890,13090 -13100,13090l-81550 0c-7200,0 -13090,-5890 -13090,-13090l0 -49110c0,-7200 5890,-13090 13090,-13090z"/>
    <path id="1" class="fil8 str0" d="M251310 194390l81550 0c7210,0 13100,5890 13100,13090l0 49110c0,7200 -5890,13090 -13100,13090l-81550 0c-7200,0 -13090,-5890 -13090,-13090l0 -49110c0,-7200 5890,-13090 13090,-13090z"/>
   </g>
   <g>
    <path class="fil4" d="M267070 229060l6000 0 0 0 20 980 70 970 130 950 160 940 210 920 260 900 300 880 340 860 380 850 420 820 460 790 490 770 540 750 560 720 600 690 630 660 660 630 690 600 720 570 750 530 770 490 790 460 820 420 850 380 860 340 880 300 900 250 920 220 940 160 950 130 970 70 980 20 0 6000 -1290 -30 -1270 -100 -1250 -160 -1230 -210 -1210 -280 -1190 -340 -1160 -400 -1140 -440 -1110 -510 -1080 -550 -1050 -600 -1010 -650 -990 -700 -940 -740 -910 -790 -860 -830 -830 -860 -790 -910 -740 -950 -700 -980 -650 -1010 -600 -1050 -550 -1080 -510 -1110 -440 -1140 -400 -1160 -340 -1190 -280 -1210 -220 -1230 -160 -1260 -90 -1260 -30 -1290 0 0zm25020 -25020l0 6000 0 0 -980 20 -970 70 -950 130 -940 160 -920 220 -900 250 -880 300 -860 340 -850 380 -820 420 -790 460 -770 490 -750 530 -720 570 -690 600 -660 630 -630 660 -600 690 -570 720 -530 750 -490 770 -460 790 -420 820 -380 850 -340 860 -300 880 -260 900 -210 920 -160 940 -130 950 -70 970 -20 980 -6000 0 30 -1280 90 -1280 160 -1250 220 -1230 280 -1210 340 -1190 400 -1160 440 -1140 510 -1110 550 -1080 600 -1050 650 -1010 700 -980 740 -950 790 -910 830 -860 860 -830 910 -790 940 -740 990 -700 1010 -650 1050 -600 1080 -560 1110 -500 1140 -440 1160 -400 1190 -340 1210 -280 1230 -220 1250 -150 1270 -100 1290 -30 0 0zm25020 25020l-6000 0 0 0 -20 -980 -80 -970 -120 -950 -160 -940 -220 -920 -250 -900 -300 -880 -340 -860 -380 -850 -420 -820 -460 -790 -490 -770 -530 -750 -570 -720 -600 -690 -630 -660 -660 -630 -690 -600 -720 -570 -750 -530 -770 -490 -790 -460 -820 -420 -850 -380 -860 -340 -880 -300 -900 -250 -920 -220 -940 -160 -950 -130 -970 -70 -980 -20 0 -6000 1280 30 1270 100 1260 150 1230 220 1210 280 1190 340 1160 400 1140 440 1110 500 1080 560 1050 600 1010 650 980 700 950 740 900 790 870 830 830 870 790 900 740 950 700 980 650 1010 600 1050 550 1080 500 1110 450 1140 400 1160 330 1190 280 1210 220 1230 160 1250 100 1280 30 1280 0 0zm-25020 25020l0 -6000 0 0 980 -20 970 -70 950 -130 940 -160 920 -220 900 -250 880 -300 860 -340 850 -380 820 -420 790 -460 770 -490 750 -530 720 -570 690 -600 660 -630 630 -660 600 -690 570 -720 530 -750 490 -770 460 -790 420 -820 380 -850 340 -860 300 -880 250 -900 220 -920 160 -940 120 -950 80 -970 20 -980 6000 0 -30 1290 -100 1260 -160 1260 -220 1230 -280 1210 -330 1190 -400 1160 -450 1140 -500 1110 -550 1080 -600 1050 -650 1010 -700 980 -740 950 -790 910 -830 860 -870 830 -900 790 -950 740 -980 700 -1010 650 -1050 600 -1080 550 -1110 510 -1140 440 -1160 400 -1190 340 -1210 280 -1230 210 -1260 160 -1270 100 -1280 30 0 0z"/>
   </g>
   <g>
    <path class="fil7" d="M274980 181440l34220 0c1800,0 4590,1830 5660,3270l7140 9680 -59820 0 7140 -9680c1070,-1440 3860,-3270 5660,-3270z"/>
    <path id="1" class="fil8 str1" d="M274980 181440l34220 0c1800,0 4590,1830 5660,3270l7140 9680 -59820 0 7140 -9680c1070,-1440 3860,-3270 5660,-3270z"/>
   </g>
   <g>
    <path class="fil1" d="M694910 103000l93640 0c8890,0 16160,7270 16160,16160l0 93560c0,8890 -7270,16160 -16160,16160l-93640 0c-8890,0 -16160,-7270 -16160,-16160l0 -93560c0,-8890 7270,-16160 16160,-16160z"/>
    <path id="1" class="fil3" d="M788550 108400l-93640 0 0 -10800 93640 0 0 0 0 10800zm21570 10760l-10810 0 0 0 -10 -560 -50 -540 -60 -540 -100 -520 -120 -510 -140 -510 -170 -500 -200 -490 -210 -470 -240 -460 -260 -450 -280 -450 -300 -420 -320 -410 -350 -390 -360 -380 -370 -360 -400 -340 -400 -320 -430 -300 -440 -280 -450 -260 -460 -240 -470 -220 -490 -190 -500 -170 -510 -140 -510 -120 -520 -100 -540 -60 -540 -50 -560 -10 0 -10800 1110 30 1090 80 1080 140 1060 190 1050 240 1020 290 1000 340 980 390 960 440 930 480 900 520 870 560 850 600 810 640 780 680 750 710 710 750 680 780 640 810 600 850 560 860 520 910 480 930 430 960 390 980 340 1000 290 1020 250 1040 190 1070 130 1080 90 1090 30 1100 0 0zm-10810 93560l0 -93560 10810 0 0 93560 0 0 -10810 0zm-10760 21560l0 -10800 0 0 560 -10 540 -40 540 -70 520 -100 510 -120 510 -140 500 -170 490 -190 470 -220 460 -240 450 -260 440 -280 430 -300 400 -320 400 -340 370 -360 360 -380 350 -390 320 -410 300 -420 280 -450 260 -440 240 -470 210 -470 200 -490 170 -500 140 -510 120 -510 100 -520 60 -540 50 -540 10 -560 10810 0 -30 1100 -90 1090 -130 1080 -190 1070 -250 1040 -290 1020 -340 1000 -390 980 -430 960 -480 930 -520 910 -560 870 -600 840 -640 810 -680 780 -710 750 -750 710 -780 680 -810 640 -850 600 -870 560 -900 530 -930 470 -960 440 -980 390 -1000 340 -1020 290 -1050 240 -1060 190 -1080 140 -1090 80 -1110 30 0 0zm-93640 -10800l93640 0 0 10800 -93640 0 0 0 0 -10800zm-21560 -10760l10800 0 0 0 20 560 40 540 70 540 90 520 120 510 150 510 170 500 190 490 210 470 240 470 260 440 290 450 300 420 320 410 340 390 360 380 380 360 390 340 410 320 420 300 440 280 450 260 460 240 480 220 480 190 500 170 510 140 520 120 520 100 530 70 550 40 550 10 0 10800 -1100 -30 -1090 -80 -1080 -140 -1070 -190 -1040 -240 -1030 -290 -990 -340 -990 -390 -950 -440 -930 -470 -910 -530 -870 -560 -840 -600 -820 -640 -780 -680 -750 -710 -710 -750 -670 -780 -650 -810 -600 -840 -560 -870 -520 -910 -480 -930 -430 -960 -390 -980 -340 -1000 -290 -1020 -240 -1040 -190 -1070 -140 -1080 -90 -1090 -20 -1100 0 0zm10800 -93560l0 93560 -10800 0 0 -93560 0 0 10800 0zm10760 -21560l0 10800 0 0 -550 10 -550 50 -530 60 -520 100 -520 120 -510 140 -500 170 -480 190 -480 220 -460 240 -450 260 -440 280 -420 300 -410 320 -390 340 -380 360 -360 380 -340 390 -320 410 -300 420 -290 450 -260 450 -240 460 -210 470 -190 490 -170 500 -150 510 -120 510 -90 520 -70 540 -40 540 -20 560 -10800 0 20 -1100 90 -1090 140 -1080 190 -1070 240 -1040 290 -1020 340 -1000 390 -980 430 -960 480 -930 520 -910 560 -860 600 -850 650 -810 670 -780 710 -750 750 -710 780 -680 820 -640 840 -600 870 -560 910 -520 930 -480 950 -440 990 -390 990 -340 1030 -290 1040 -240 1070 -190 1080 -140 1090 -80 1100 -30 0 0z"/>
   </g>
   <g>
    <polygon class="fil2" points="722030,160600 709310,184640 696590,208680 722030,208680 747460,208680 734740,184640 "/>
    <path id="1" class="fil3" d="M707630 183740l12710 -24040 3370 1800 -12710 24040 0 0 -3370 -1800zm-12720 24040l12720 -24040 3370 1800 -12720 24040 -1690 1020 -1680 -2820zm1680 2820l-3170 0 1490 -2820 1680 2820zm25440 0l-25440 0 0 -3840 25440 0 0 0 0 3840zm25430 0l-25430 0 0 -3840 25430 0 1690 1020 -1690 2820zm1690 -2820l1490 2820 -3180 0 1690 -2820zm-12720 -24040l12720 24040 -3370 1800 -12720 -24040 0 0 3370 -1800zm-12720 -24040l12720 24040 -3370 1800 -12720 -24040 0 -1800 3370 0zm-3370 0l1690 -3190 1680 3190 -3370 0z"/>
   </g>
   <g>
    <polygon class="fil2" points="757900,144040 743160,176360 728420,208680 757900,208680 787390,208680 772650,176360 "/>
    <path id="1" class="fil3" d="M741410 175560l14750 -32320 3490 1590 -14740 32330 -3500 -1600zm-14740 32330l14740 -32330 3500 1600 -14740 32320 -1750 1120 -1750 -2710zm1750 2710l-2990 0 1240 -2710 1750 2710zm29480 0l-29480 0 0 -3840 29480 0 0 0 0 3840zm29490 0l-29490 0 0 -3840 29490 0 1740 1130 -1740 2710zm1740 -2710l1240 2710 -2980 0 1740 -2710zm-14740 -32330l14740 32330 -3490 1590 -14740 -32320 3490 -1600zm-14740 -32320l14740 32320 -3490 1600 -14740 -32330 0 -1590 3490 0zm-3490 0l1740 -3830 1750 3830 -3490 0z"/>
   </g>
   <g>
    <path class="fil2" d="M710330 126780c4230,0 7660,3430 7660,7660 0,4230 -3430,7650 -7660,7650 -4230,0 -7660,-3420 -7660,-7650 0,-4230 3430,-7660 7660,-7660z"/>
    <path id="1" class="fil3" d="M719910 134440l-3840 0 0 0 -10 -300 -20 -290 -40 -290 -50 -280 -60 -280 -80 -270 -90 -260 -100 -260 -120 -260 -130 -250 -130 -230 -150 -240 -160 -220 -170 -220 -180 -210 -200 -200 -190 -190 -210 -180 -220 -170 -220 -160 -240 -150 -240 -130 -250 -130 -250 -120 -260 -100 -260 -90 -270 -70 -280 -70 -290 -50 -290 -40 -280 -20 -300 -10 0 -3840 490 20 490 30 480 60 470 90 460 100 450 130 450 150 440 180 420 190 420 210 400 230 380 250 380 270 360 280 350 300 330 320 320 330 300 350 280 360 270 370 250 390 230 400 210 420 190 420 180 440 150 440 130 460 100 460 90 470 60 480 40 490 10 490 0 0zm-9580 9570l0 -3840 0 0 300 0 280 -30 290 -30 290 -50 280 -70 270 -70 260 -90 260 -110 250 -110 250 -130 240 -130 230 -150 230 -170 220 -170 210 -180 200 -190 190 -190 180 -210 170 -220 160 -230 150 -230 130 -240 130 -250 110 -250 110 -260 90 -270 80 -270 60 -270 50 -290 40 -280 20 -290 10 -300 3840 0 -10 490 -40 490 -60 480 -90 460 -100 470 -130 460 -150 440 -170 440 -200 420 -210 410 -230 410 -250 380 -270 380 -280 360 -300 350 -320 330 -330 320 -350 300 -360 280 -370 270 -390 250 -400 230 -420 210 -420 190 -440 170 -450 150 -450 130 -460 110 -470 80 -480 60 -490 40 -490 10 0 0zm-9580 -9570l3840 0 0 0 10 300 20 290 40 280 50 290 60 270 80 270 90 270 100 260 110 250 130 250 140 240 150 230 160 230 170 220 180 210 190 190 200 190 210 180 210 170 230 170 240 150 230 130 250 130 250 110 260 110 270 90 270 70 280 70 280 50 290 30 290 30 300 0 0 3840 -490 -10 -490 -40 -480 -60 -470 -80 -460 -110 -460 -130 -450 -150 -430 -170 -430 -190 -410 -210 -400 -240 -390 -240 -380 -270 -360 -280 -340 -300 -340 -320 -310 -330 -310 -350 -280 -360 -270 -380 -250 -380 -230 -410 -210 -410 -190 -420 -170 -440 -150 -440 -130 -460 -110 -470 -80 -460 -60 -480 -40 -490 -10 -490 0 0zm9580 -9580l0 3840 0 0 -300 10 -290 20 -290 40 -280 50 -280 70 -270 70 -270 90 -260 100 -250 120 -250 130 -230 130 -240 150 -230 160 -210 170 -210 180 -200 190 -190 200 -180 210 -170 220 -160 220 -150 240 -140 230 -130 250 -110 260 -100 260 -90 260 -80 270 -60 280 -50 280 -40 290 -20 290 -10 300 -3840 0 10 -490 40 -490 60 -480 80 -470 110 -460 130 -460 150 -440 170 -440 190 -420 210 -420 230 -400 260 -390 260 -370 280 -360 310 -350 310 -330 340 -320 340 -300 360 -280 380 -270 390 -250 400 -230 410 -210 430 -190 430 -180 450 -150 460 -130 460 -100 470 -90 480 -60 490 -30 490 -20 0 0z"/>
   </g>
  </g>
 </g>
</svg>
