<?xml version="1.0" encoding="UTF-8"?>
<!DOCTYPE svg PUBLIC "-//W3C//DTD SVG 1.1//EN" "http://www.w3.org/Graphics/SVG/1.1/DTD/svg11.dtd">
<!-- Creator: CorelDRAW 2020 (64-Bit) -->
<svg xmlns="http://www.w3.org/2000/svg" xml:space="preserve" width="370px" height="499px" version="1.1" style="shape-rendering:geometricPrecision; text-rendering:geometricPrecision; image-rendering:optimizeQuality; fill-rule:evenodd; clip-rule:evenodd"
viewBox="0 0 201290 271820"
 xmlns:xlink="http://www.w3.org/1999/xlink"
 xmlns:xodm="http://www.corel.com/coreldraw/odm/2003">
 <defs>
  <style type="text/css">
   <![CDATA[
    .str0 {stroke:white;stroke-width:9110;stroke-miterlimit:2.61313}
    .str1 {stroke:#B3B3B3;stroke-width:120;stroke-miterlimit:2.61313}
    .str45 {stroke:#414D54;stroke-width:950;stroke-miterlimit:2.61313}
    .str40 {stroke:#414D54;stroke-width:950;stroke-miterlimit:2.61313}
    .str46 {stroke:#414D54;stroke-width:950;stroke-miterlimit:2.61313}
    .str47 {stroke:#414D54;stroke-width:950;stroke-miterlimit:2.61313}
    .str37 {stroke:#414D54;stroke-width:950;stroke-miterlimit:2.61313}
    .str43 {stroke:#414D54;stroke-width:950;stroke-miterlimit:2.61313}
    .str32 {stroke:#999999;stroke-width:950;stroke-miterlimit:2.61313}
    .str31 {stroke:#999999;stroke-width:950;stroke-miterlimit:2.61313}
    .str34 {stroke:#414D54;stroke-width:950;stroke-miterlimit:2.61313}
    .str33 {stroke:gray;stroke-width:950;stroke-miterlimit:2.61313}
    .str8 {stroke:white;stroke-width:9110;stroke-miterlimit:2.61313}
    .str9 {stroke:white;stroke-width:9110;stroke-miterlimit:2.61313}
    .str6 {stroke:white;stroke-width:9110;stroke-miterlimit:2.61313}
    .str11 {stroke:white;stroke-width:9110;stroke-miterlimit:2.61313}
    .str14 {stroke:white;stroke-width:9110;stroke-miterlimit:2.61313}
    .str12 {stroke:white;stroke-width:9110;stroke-miterlimit:2.61313}
    .str17 {stroke:white;stroke-width:9110;stroke-miterlimit:2.61313}
    .str15 {stroke:white;stroke-width:9110;stroke-miterlimit:2.61313}
    .str13 {stroke:white;stroke-width:9110;stroke-miterlimit:2.61313}
    .str16 {stroke:white;stroke-width:9110;stroke-miterlimit:2.61313}
    .str3 {stroke:white;stroke-width:9120;stroke-miterlimit:2.61313}
    .str4 {stroke:white;stroke-width:9120;stroke-miterlimit:2.61313}
    .str2 {stroke:white;stroke-width:9120;stroke-miterlimit:2.61313}
    .str29 {stroke:#414D54;stroke-width:930;stroke-miterlimit:2.61313}
    .str36 {stroke:#414D54;stroke-width:930;stroke-miterlimit:2.61313}
    .str23 {stroke:gray;stroke-width:930;stroke-miterlimit:2.61313}
    .str26 {stroke:#414D54;stroke-width:930;stroke-miterlimit:2.61313}
    .str22 {stroke:#253138;stroke-width:930;stroke-miterlimit:2.61313}
    .str28 {stroke:#414D54;stroke-width:930;stroke-miterlimit:2.61313}
    .str24 {stroke:gray;stroke-width:930;stroke-miterlimit:2.61313}
    .str25 {stroke:#999999;stroke-width:930;stroke-miterlimit:2.61313}
    .str41 {stroke:#414D54;stroke-width:100;stroke-miterlimit:2.61313}
    .str30 {stroke:#253138;stroke-width:100;stroke-miterlimit:2.61313}
    .str18 {stroke:gray;stroke-width:100;stroke-miterlimit:2.61313}
    .str44 {stroke:#414D54;stroke-width:110;stroke-miterlimit:2.61313}
    .str48 {stroke:#414D54;stroke-width:580;stroke-miterlimit:2.61313}
    .str20 {stroke:gray;stroke-width:580;stroke-miterlimit:2.61313}
    .str21 {stroke:gray;stroke-width:580;stroke-miterlimit:2.61313}
    .str19 {stroke:gray;stroke-width:580;stroke-miterlimit:2.61313}
    .str42 {stroke:#253138;stroke-width:120;stroke-miterlimit:2.61313}
    .str39 {stroke:#414D54;stroke-width:670;stroke-linejoin:round;stroke-miterlimit:2.61313}
    .str49 {stroke:#253138;stroke-width:950;stroke-linejoin:round;stroke-miterlimit:2.61313}
    .str35 {stroke:#253138;stroke-width:950;stroke-linejoin:round;stroke-miterlimit:2.61313}
    .str38 {stroke:#414D54;stroke-width:950;stroke-linejoin:round;stroke-miterlimit:2.61313}
    .str10 {stroke:white;stroke-width:9110;stroke-linejoin:round;stroke-miterlimit:2.61313}
    .str7 {stroke:white;stroke-width:5210;stroke-linecap:round;stroke-linejoin:round;stroke-miterlimit:2.61313}
    .str5 {stroke:white;stroke-width:9120;stroke-linecap:round;stroke-linejoin:round;stroke-miterlimit:2.61313}
    .str27 {stroke:#414D54;stroke-width:930;stroke-linecap:round;stroke-linejoin:round;stroke-miterlimit:2.61313}
    .fil1 {fill:none}
    .fil7 {fill:#253138}
    .fil6 {fill:#414D54}
    .fil5 {fill:gray}
    .fil8 {fill:#999999}
    .fil2 {fill:#B3B3B3}
    .fil12 {fill:#CCCCCC}
    .fil0 {fill:#CEDAED}
    .fil15 {fill:#D9D9D9}
    .fil14 {fill:#F6F6F6}
    .fil11 {fill:#F6F6F6}
    .fil3 {fill:white}
    .fil10 {fill:#414D54;fill-rule:nonzero}
    .fil4 {fill:white;fill-rule:nonzero}
    .fil9 {fill:url(#id4)}
    .fil13 {fill:url(#id5)}
   ]]>
  </style>
     <mask id="id0">
  <linearGradient id="id1" gradientUnits="userSpaceOnUse" x1="0" y1="0" x2="0" y2="59730">
   <stop offset="0" style="stop-opacity:0; stop-color:white"/>
   <stop offset="1" style="stop-opacity:1; stop-color:white"/>
  </linearGradient>
      <rect style="fill:url(#id1)" x="-140" y="-140" width="201570" height="60010"/>
     </mask>
     <mask id="id2">
  <linearGradient id="id3" gradientUnits="userSpaceOnUse" x1="0" y1="271820" x2="0" y2="212090">
   <stop offset="0" style="stop-opacity:0; stop-color:white"/>
   <stop offset="1" style="stop-opacity:1; stop-color:white"/>
  </linearGradient>
      <rect style="fill:url(#id3)" x="-140" y="211950" width="201570" height="60010"/>
     </mask>
  <linearGradient id="id4" gradientUnits="userSpaceOnUse" x1="185110" y1="91730" x2="167640" y2="90880">
   <stop offset="0" style="stop-opacity:1; stop-color:#E6E6E6"/>
   <stop offset="1" style="stop-opacity:1; stop-color:white"/>
  </linearGradient>
  <linearGradient id="id5" gradientUnits="userSpaceOnUse" xlink:href="#id4" x1="165530" y1="149690" x2="107140" y2="123400">
  </linearGradient>
 </defs>
 <g id="Layer_x0020_1">
  <metadata id="CorelCorpID_0Corel-Layer"/>
  <g id="_2232803267536">
   <g>
    <rect class="fil0" y="59730" width="201290" height="152350"/>
    <polygon class="fil0" style="mask:url(#id0)" points="0,59730 201290,59730 201290,0 0,0 "/>
    <polygon class="fil0" style="mask:url(#id2)" points="0,271820 201290,271820 201290,212090 0,212090 "/>
   </g>
   <path class="fil1 str0" d="M10850 168550c-1460,20110 10700,15380 25030,16450"/>
   <path class="fil2 str1" d="M16110 198440c13240,17270 79590,38620 127400,4730 25930,-18370 38560,-52550 44430,-79980 1420,-6640 -2720,-17080 -7810,-19330 -44790,-19810 -76070,-5870 -109050,-6160 -47810,33900 -68210,83480 -54970,100740z"/>
   <polygon class="fil3 str2" points="163480,129300 162440,123420 177360,124290 177360,127610 172520,129300 "/>
   <path class="fil3 str3" d="M183140 93690c-2450,3800 -4900,7610 -7350,11420 80,2470 370,4580 850,6340 1950,0 3900,0 5840,0 750,-90 1720,-780 1770,-1310 700,-9340 390,-14660 -1110,-16450z"/>
   <path class="fil1 str3" d="M182310 99330c-720,3930 -250,8730 760,11950"/>
   <polygon class="fil3 str2" points="180970,101530 179280,106180 176600,107020 175490,96690 178170,93080 "/>
   <path class="fil3 str2" d="M176820 98360c-2680,4160 -5360,8320 -8030,12480 90,2700 400,5000 920,6930 2130,0 4260,0 6390,0 820,-90 1880,-850 1930,-1430 760,-10200 430,-16020 -1210,-17980z"/>
   <path class="fil1 str2" d="M175900 104530c-770,4290 -260,9540 840,13060"/>
   <polygon class="fil3 str2" points="173300,109710 171660,110300 170930,119970 172600,119910 "/>
   <rect class="fil3 str4" x="170470" y="119620" width="2600" height="1310" rx="150" ry="150"/>
   <path class="fil3 str5" d="M156470 111090c-9490,-7060 -18980,-14120 -28470,-21170 1450,-1780 3000,-3470 5070,-4740 3220,-5750 5800,-10930 9390,-13650 1440,-1200 15920,-1600 32490,-760 1570,80 3280,960 3670,1990 4310,8990 4840,13140 6070,18430 590,2360 800,6090 -90,10200 -30,-1890 -590,-5900 -750,-4830 -220,1450 -750,3350 -1010,4820 -180,990 -370,1960 -600,2870 -910,630 -2050,1310 -2960,1930 -450,-11660 -1950,-14750 -2460,-7820 -200,4560 -1230,7970 -2750,10740 -1150,1690 -9440,2580 -17600,1990z"/>
   <path class="fil3 str2" d="M171210 92280c730,-2740 2910,-5390 3370,-7790 -100,-640 -200,-1280 -300,-1920 -500,-3030 -1010,-6060 -1510,-9080 1390,-990 2850,-1720 4500,-1850 340,200 630,210 1350,1120 3590,7490 4580,12030 6070,18430 520,1110 530,7590 -90,10200 -30,-2830 -800,-6100 -920,-5330 -260,1700 -520,3550 -840,5320 -180,990 -370,1960 -600,2870 -910,630 -2050,1310 -2960,1930 -450,-11660 -1950,-14750 -2460,-7820 -200,4560 -1230,7970 -2750,10740 -820,1210 -5020,1730 -6400,1870 4250,-2770 6190,-8010 6380,-15630 20,-730 -2570,-2310 -2840,-3060z"/>
   <g>
    <path class="fil3" d="M153810 103240c-220,-530 -440,-1060 -660,-1580 3410,30 6820,60 10220,90 590,10 -1040,1430 -1100,1490 -150,100 -580,140 -930,140 -2510,-40 -5020,-90 -7530,-140z"/>
    <path id="1" class="fil4" d="M153200 97100l-90 9110 4260 -6290 20 50 20 50 20 40 20 60 20 50 20 50 20 50 20 40 20 60 20 50 20 50 20 50 20 40 20 50 20 50 20 50 20 50 30 50 20 50 20 50 20 50 20 50 20 50 20 40 20 60 20 50 20 50 20 50 20 40 20 60 20 50 20 40 -8430 3480 -20 -50 -20 -50 -20 -50 -20 -50 -20 -50 -20 -50 -20 -50 -20 -50 -20 -50 -20 -50 -20 -50 -20 -50 -20 -50 -20 -50 -20 -40 -20 -60 -20 -50 -30 -50 -20 -50 -20 -50 -20 -50 -20 -40 -20 -50 -20 -50 -20 -50 -20 -50 -20 -50 -20 -50 -20 -50 -20 -50 -20 -50 -20 -50 4260 -6290zm-4260 6290l-2620 -6360 6880 70 -4260 6290zm14510 -6190l-150 9110 30 0 -320 0 -320 0 -320 -10 -320 0 -320 0 -320 -10 -320 0 -320 0 -320 -10 -310 0 -320 0 -320 -10 -320 0 -320 0 -320 0 -320 -10 -320 0 -320 0 -320 -10 -320 0 -320 0 -320 -10 -320 0 -320 0 -310 -10 -320 0 -320 0 -320 -10 -320 0 -320 0 -320 0 -320 -10 90 -9110 320 0 320 0 320 10 320 0 310 0 320 10 320 0 320 0 320 10 320 0 320 0 320 10 320 0 320 0 320 0 320 10 320 0 320 0 320 10 310 0 320 0 320 10 320 0 320 0 320 10 320 0 320 0 320 0 320 10 320 0 320 0 320 10 30 0zm-30 0l10 0 20 0 -30 0zm1420 9800l-5150 -7520 -490 390 50 -50 20 -20 20 -10 30 -30 20 -20 40 -30 40 -40 30 -30 40 -40 40 -40 40 -40 50 -40 40 -40 30 -30 30 -30 20 -30 20 -20 10 0 -10 10 -10 20 -40 50 -70 90 -90 140 -130 220 -160 350 -190 560 -130 920 180 1400 850 1600 1340 1100 1180 430 810 90 150 -9110 900 100 1260 450 1390 1140 870 1660 180 1460 -140 990 -210 660 -210 440 -190 330 -160 250 -150 210 -140 180 -120 150 -130 140 -110 130 -110 110 -110 110 -100 110 -90 100 -100 90 -90 80 -80 90 -90 80 -70 70 -80 60 -60 60 -60 50 -50 50 -40 40 -40 30 -10 10 30 -20 -500 390zm500 -390l-240 210 -260 180 500 -390zm-4090 1330l170 -9110 -140 0 10 0 0 0 0 -10 20 0 0 0 10 0 -10 0 20 0 0 0 -10 0 0 0 0 0 -10 10 -20 0 0 0 -20 0 -10 0 -30 10 -40 0 -30 10 -60 10 -50 10 -60 10 -70 20 -80 30 -100 30 -130 40 -130 50 -140 60 -200 100 -210 120 -240 150 5150 7520 -260 170 -250 130 -230 120 -190 80 -170 60 -160 60 -150 50 -130 30 -120 30 -120 30 -110 20 -110 30 -90 10 -100 20 -90 10 -70 10 -90 10 -70 10 -80 10 -80 10 -70 10 -60 0 -80 10 -70 0 -50 0 -80 10 -60 0 -60 0 -60 10 -60 0 -70 0 -50 0 -150 0zm150 0l-70 0 -80 0 150 0zm-11810 -2960l8430 -3480 -4130 -2820 240 10 230 0 240 10 230 0 240 10 230 0 240 0 240 10 230 0 240 10 230 0 240 10 230 0 240 10 230 0 240 0 230 10 240 0 230 10 240 0 230 10 240 0 240 10 230 0 240 0 230 10 240 0 230 10 240 0 230 10 240 0 230 10 -170 9110 -230 -10 -240 0 -240 0 -230 -10 -230 0 -240 -10 -240 0 -230 -10 -240 0 -230 -10 -240 0 -230 0 -240 -10 -230 0 -240 -10 -230 0 -240 -10 -240 0 -230 -10 -230 0 -240 0 -240 -10 -230 0 -240 -10 -230 0 -240 -10 -230 0 -240 -10 -230 0 -240 0 -230 -10 -240 0 -4130 -2820zm4130 2820l-2990 -60 -1140 -2760 4130 2820z"/>
   </g>
   <g>
    <path class="fil3" d="M164960 102670c-270,330 -540,660 -810,1000 -180,250 -30,470 390,440 1440,30 2880,70 4320,110 1380,20 1870,-1440 -860,-1960 -1570,-260 -2590,-130 -3040,410z"/>
    <path id="1" class="fil4" d="M167870 106300l-7440 -5260 180 -240 30 -30 20 -40 30 -30 20 -30 30 -30 20 -30 30 -30 20 -30 30 -30 30 -40 20 -30 30 -30 20 -30 30 -30 20 -30 30 -30 30 -40 20 -30 20 -30 30 -30 20 -30 30 -40 20 -20 30 -30 30 -40 20 -30 30 -30 20 -30 30 -40 30 -30 20 -20 30 -40 7070 5750 -20 30 -30 30 -30 40 -20 20 -20 30 -30 40 -30 30 -20 30 -30 30 -30 30 -20 30 -20 30 -30 30 -20 40 -30 30 -20 30 -30 30 -30 30 -20 30 -30 30 -20 40 -30 30 -20 30 -30 30 -20 30 -30 30 -20 30 -30 40 -30 30 -20 30 -30 30 -20 30 180 -240zm-7440 -5260l80 -120 100 -120 -180 240zm4230 -1490l-240 9110 520 -10 -210 10 -210 10 -210 -10 -230 -10 -240 -20 -250 -30 -260 -50 -280 -70 -300 -100 -290 -110 -300 -140 -330 -180 -310 -210 -320 -240 -310 -290 -300 -330 -270 -370 -240 -390 -200 -430 -160 -440 -110 -460 -70 -440 -20 -430 10 -420 50 -410 80 -370 90 -330 120 -330 120 -280 140 -270 150 -250 150 -220 7440 5260 120 -170 120 -210 110 -220 110 -240 100 -290 80 -280 70 -330 40 -360 10 -380 -20 -390 -60 -410 -100 -420 -150 -400 -180 -390 -220 -370 -250 -330 -270 -300 -280 -260 -280 -220 -280 -180 -290 -160 -250 -120 -250 -90 -240 -80 -230 -60 -200 -40 -190 -20 -180 -20 -160 -10 -140 0 -140 10 -130 10 520 -20zm-520 20l260 -30 260 10 -520 20zm4790 90l-140 9120 -50 0 -140 -10 -130 0 -140 0 -130 -10 -140 0 -130 0 -140 -10 -130 0 -140 -10 -130 0 -140 0 -130 -10 -140 0 -130 0 -140 -10 -130 0 -140 0 -130 -10 -140 0 -130 -10 -140 0 -130 0 -140 -10 -130 0 -140 0 -130 -10 -140 0 -130 0 -140 -10 -130 0 -140 -10 -130 0 240 -9110 140 0 130 10 140 0 130 0 140 10 130 0 140 0 140 10 130 0 130 10 140 0 130 0 140 10 140 0 130 0 130 10 140 0 130 10 140 0 140 0 130 10 130 0 140 0 130 10 140 0 130 0 140 10 130 0 140 0 130 10 140 0 130 10 -50 -10zm-140 9120l-30 0 -20 0 50 0zm-1530 -2030l1490 -8990 110 20 400 90 400 100 400 110 390 130 390 160 390 180 380 200 390 240 390 280 390 330 380 390 370 450 330 530 290 600 220 670 130 720 30 760 -90 740 -190 720 -290 660 -340 580 -400 500 -420 420 -450 360 -450 290 -450 230 -450 190 -450 150 -450 100 -440 70 -440 40 -430 10 140 -9120 -180 10 -200 20 -210 30 -230 50 -250 80 -260 110 -280 150 -290 190 -310 240 -300 310 -290 370 -270 440 -220 520 -150 560 -70 590 20 600 100 560 170 500 200 440 230 360 230 280 220 230 200 160 170 130 140 80 100 50 70 40 40 10 10 10 -30 -10 -50 -20 -90 -10 110 10zm1490 -8990l50 10 60 10 -110 -20zm-250 7780l-7070 -5750 50 -60 230 -260 240 -240 260 -220 250 -200 260 -180 270 -160 260 -150 270 -130 250 -110 260 -90 250 -90 240 -70 240 -60 240 -50 230 -40 230 -30 220 -30 220 -20 210 -10 220 -10 200 -10 210 0 200 10 210 10 200 10 200 10 200 20 200 20 200 20 200 30 200 30 200 30 -1490 8990 -90 -10 -90 -10 -80 -10 -70 -10 -70 -10 -60 0 -50 -10 -50 0 -30 0 -30 0 -20 0 -10 0 0 0 10 0 20 0 20 -10 50 0 50 -10 60 -20 70 -20 90 -20 90 -30 110 -40 120 -50 130 -70 130 -70 150 -90 140 -100 150 -120 160 -130 140 -150 150 -150 50 -70zm-7070 -5750l20 -30 30 -30 -50 60z"/>
   </g>
   <path class="fil3 str2" d="M159920 93380c440,30 510,560 450,1380 -3650,-150 -7270,-120 -10840,-290 -470,-550 -890,-1020 -1360,-1570 3910,160 7830,320 11750,480z"/>
   <path class="fil3 str2" d="M160020 95640c-300,610 -430,850 -800,1070 -2830,40 -5650,30 -8450,-30 -240,-470 -490,-930 -730,-1390 3560,0 6770,170 9800,60 120,0 260,120 180,290z"/>
   <path class="fil3 str2" d="M151880 98930c-220,-450 -440,-910 -660,-1360 2540,50 5060,10 7590,-60 110,0 240,190 160,280 -510,500 -1000,800 -2040,950 -1650,130 -3340,180 -5050,190z"/>
   <path class="fil3 str2" d="M171410 97940c-3530,-40 -7060,-80 -10590,-120 3150,-3690 6960,-5350 11280,-5620 2670,-20 2790,5960 -690,5740z"/>
   <path class="fil3 str2" d="M141700 73090c-320,40 -450,80 -580,230 -2040,3330 -4080,6650 -6130,9980 -230,420 -130,720 350,750 12420,-580 25120,-610 38010,-260 660,-40 980,-540 930,-1220 -380,-2850 -760,-5700 -1140,-8550 -90,-410 -510,-720 -990,-760 -10250,-490 -20430,-690 -30450,-170z"/>
   <path class="fil1 str6" d="M171210 92280c520,-2800 3160,-5310 3370,-7790 200,-830 5260,-1650 7890,-2480"/>
   <polyline class="fil1 str7" points="177360,124290 189730,109880 191360,108950 "/>
   <polygon class="fil3 str8" points="127600,155710 141260,164820 146340,140390 134440,136300 "/>
   <polygon class="fil3 str9" points="162180,122490 158170,128660 162720,138380 163900,129630 "/>
   <path class="fil3 str10" d="M44210 116670c-2700,2100 -5410,4210 -8110,6320 -8850,2400 -16410,5550 -20880,10500 -5980,7580 -7010,15400 -6930,28390 1440,7780 6570,12560 14680,14920 28060,6110 56640,6960 85330,6680 10190,-750 16620,-4770 19330,-12050 3790,-12470 6550,-20880 8830,-25290 4550,-8300 6650,-920 4300,19210 6010,-6270 11810,-12630 17180,-19220 1400,-7480 2520,-19610 3400,-22020 1660,-3250 2490,4290 2180,13650 1670,-5880 590,-11660 -520,-16900 -890,-3910 -1790,-4370 -2430,-5510 -1030,-1470 -2310,-2740 -3820,-3820 -1770,-6180 -4190,-12250 -7040,-17420 -1510,-2520 -4090,-4320 -9070,-4500 -36370,-1820 -64870,-2520 -69840,920 -8590,4870 -18200,16190 -26590,26140z"/>
   <path class="fil3 str10" d="M108300 183480c10190,-750 16620,-4770 19330,-12050 3790,-12470 6550,-20880 8830,-25290 4550,-8300 6650,-920 4300,19210 6010,-6270 11810,-12630 17180,-19220 1400,-7480 2520,-19610 3400,-22020 1660,-3250 2490,4290 2180,13650 1670,-5880 590,-11660 -520,-16900 -890,-3910 -1790,-4370 -2430,-5510 -1030,-1470 -2310,-2740 -3820,-3820 -1770,-6180 -4190,-12250 -7040,-17420 -1510,-2520 -4090,-4320 -9070,-4500 -1050,160 -6240,4030 -6530,4850 -50,7490 -90,14980 -140,22470 -390,600 -780,1200 -1170,1800 2080,3070 -3850,12640 -9980,22380 5790,15270 4060,39050 -14520,42370z"/>
   <path class="fil1 str11" d="M160710 115580c-8740,5780 -21780,14360 -34450,28570"/>
   <path class="fil3 str12" d="M67780 93810c-7260,6440 -13580,13570 -19330,21120 -490,700 40,960 1250,1020 26880,480 55000,1640 82120,3070 1350,-220 2070,-910 2150,-2090 660,-7200 240,-14500 900,-21700 -10,-700 -1000,-930 -2420,-1050 -20660,-2240 -39660,-2990 -61120,-1730 -1270,150 -2820,700 -3550,1360z"/>
   <path class="fil3 str12" d="M138710 108940c-790,-8570 -480,-15070 3340,-15040 2480,6530 4710,13120 6630,19810 -2490,1370 -4980,2750 -7460,4120 -840,-2960 -1670,-5930 -2510,-8890z"/>
   <path class="fil3 str10" d="M147420 94140c-1480,-570 -2930,-630 -4350,-480 2470,5900 4840,11900 6920,18200 1170,-440 2350,-870 3520,-1310 -1660,-5650 -3630,-11160 -6090,-16410z"/>
   <path class="fil3 str10" d="M31900 152440c-4310,-900 -3230,-6990 -2320,-14500 21120,1760 42290,2810 63480,3460 -5390,9460 -8400,14130 -11990,14260 -17230,290 -33600,-810 -49170,-3220z"/>
   <path class="fil1 str12" d="M152180 120350c1860,7360 1800,12790 1270,21270 -140,2150 -1980,3570 -1310,5660 500,1090 1040,1160 1550,3920"/>
   <path class="fil3 str12" d="M10710 142550c1010,-2590 2020,-5180 3670,-7210 540,-630 1120,-800 1730,-600 2320,460 10550,7560 9490,12280 -80,430 -800,920 -1320,810 -4080,-660 -9500,-2300 -13150,-3510 -570,-310 -580,-910 -420,-1770z"/>
   <path class="fil3 str12" d="M95890 149400c2900,-6770 17240,-9270 26310,-8410 2410,430 3740,880 4060,3160 -120,5800 60,6770 -2560,6990 -9030,870 -17810,890 -26440,410 -1980,-150 -2130,-420 -1370,-2150z"/>
   <path class="fil3 str13" d="M27070 158020c-2500,-200 -1130,2120 -740,3530 1120,3230 1560,2910 3190,3370 14650,1660 42230,3840 57660,4850 2420,100 4130,-1500 4900,-2570 730,-1050 4530,-4610 -430,-4630 -16970,200 -47590,-2290 -64580,-4550z"/>
   <path class="fil3 str12" d="M91320 143110c-21560,-560 -42160,-1670 -61400,-3580 30,1000 50,2000 80,3000 18270,2060 38200,3210 59410,3680 630,-1030 1270,-2060 1910,-3100z"/>
   <path class="fil3 str12" d="M88570 147590c-19680,-620 -39400,-1800 -58520,-3850 140,1020 190,2030 330,3050 18390,2040 37410,3090 56280,3540 640,-910 1270,-1830 1910,-2740z"/>
   <path class="fil3 str12" d="M85830 151530c-18590,-70 -37050,-980 -55320,-3350 70,1330 510,2220 960,2810 16560,2950 33380,4080 50420,3700 1720,-330 2910,-1600 3940,-3160z"/>
   <path class="fil1 str12" d="M17490 135360c6680,-6090 9300,-6190 18610,-12370"/>
   <path class="fil1 str12" d="M132800 118730c1930,3750 -2020,9170 -9980,22380"/>
   <path class="fil1 str12" d="M125370 150640c4840,-160 7790,350 9420,-780"/>
   <path class="fil3 str12" d="M138910 116440c520,1430 1030,2870 1550,4300 5140,100 10210,-150 15280,-600 540,-50 1100,-860 1100,-1430 -30,-1590 -60,-3180 -90,-4770 -90,-1940 -1460,-3530 -2620,-3640 -2620,-190 -5240,-380 -7850,-570 -1730,-110 -3470,1810 -4950,6000 -730,-20 -1460,-40 -2180,-60 -320,20 -390,450 -240,770z"/>
   <path class="fil1 str14" d="M25360 147420c840,880 4040,4270 7200,4680"/>
   <path class="fil1 str14" d="M81070 155660c5710,20 10120,-3160 15410,-4190"/>
   <path class="fil3 str15" d="M101090 165130c-1630,60 -3140,1640 -4590,3960 -400,650 -270,900 760,1050 3380,380 6780,640 10250,400 2660,-320 4460,-1420 1730,-3600 -1740,-1150 -4650,-1650 -8150,-1810z"/>
   <path class="fil3 str16" d="M23140 159820c370,1150 570,1770 940,2920 220,610 -20,1170 -780,1090 -2890,-340 -7180,-1310 -8230,-1860 -2970,-1670 -570,-3010 2950,-3650 830,-160 2160,-130 3340,30 890,120 1540,870 1780,1470z"/>
   <path class="fil1 str11" d="M175240 72100c2300,7100 6120,20780 5520,33120"/>
   <path class="fil1 str11" d="M172770 73490c1080,-930 2550,-1630 4790,-1890"/>
   <path class="fil1 str11" d="M48640 115790c-7190,6640 -17310,14370 -20410,20690 -1320,3520 -830,9230 380,13850"/>
   <path class="fil1 str11" d="M85910 154960c9980,-5560 8720,-21100 46890,-36230"/>
   <path class="fil3 str11" d="M140760 165350c5850,-5710 11900,-12270 17130,-18650 120,-770 240,-1540 360,-2310 -5500,6220 -11280,11680 -17460,17900 -20,760 -10,2290 -30,3060z"/>
   <path class="fil3 str17" d="M140790 143860c6340,-5440 14830,-12640 20230,-17990 160,-1010 300,-1530 840,-2450 -6080,5660 -15700,13790 -22450,19380 600,60 1130,420 1380,1060z"/>
   <path class="fil1 str11" d="M174090 83400c1780,3210 3180,7640 3600,12100"/>
   <path class="fil1 str11" d="M183880 96900c-380,-4460 -2520,-16940 -4020,-21520"/>
   <path class="fil5 str18" d="M185020 126450c-7970,9500 -19430,24490 -25630,31750 -16960,19840 -25350,32000 -40840,39600 -15200,7440 -81750,3290 -93070,-9390 -8330,-9330 5910,-24810 17690,-34190 12350,-9830 21020,-11360 34350,-19190 28440,-16700 59790,-13960 90080,-20860 18120,-4130 25860,2210 17420,12280z"/>
   <path class="fil6 str19" d="M187820 113480c-1790,2210 -3380,4180 -5170,6390 -260,2110 -120,4210 350,6320 60,260 40,200 330,210 1140,30 2230,70 3380,100 330,10 270,50 400,-270 1640,-4000 830,-9910 710,-12750z"/>
   <path class="fil1 str19" d="M186650 120540c-50,2450 100,4350 410,5820"/>
   <path class="fil6 str20" d="M186480 115740c-1790,2220 -3370,4180 -5160,6400 -260,2100 -120,4210 350,6320 60,260 40,200 320,210 1150,30 2240,60 3390,100 330,10 270,50 400,-270 1640,-4000 830,-9910 700,-12760z"/>
   <path class="fil1 str20" d="M185320 122800c-50,2450 100,4350 400,5830"/>
   <path class="fil6 str21" d="M185060 118080c-1790,2220 -3370,4180 -5160,6400 -260,2100 -130,4210 350,6310 60,270 30,200 320,210 1150,40 2240,70 3380,100 340,10 270,60 400,-260 1640,-4010 830,-9910 710,-12760z"/>
   <path class="fil1 str21" d="M183890 125140c-40,2450 110,4350 410,5830"/>
   <path class="fil6 str22" d="M185060 118080c-1820,2260 -3650,4520 -5470,6780 1520,100 3050,200 4580,300 140,-10 300,-270 340,-440 180,-2210 360,-4430 550,-6640z"/>
   <polygon class="fil3 str22" points="172520,129300 177360,127610 190080,111860 193000,110170 193000,108010 155980,109490 156730,111960 160740,125100 163510,129300 "/>
   <polygon class="fil3 str22" points="163480,129300 162440,123420 177360,124290 177360,127610 172520,129300 "/>
   <path class="fil6" d="M183140 93690c-2450,3800 -4900,7610 -7350,11420 80,2470 370,4580 850,6340 1950,0 3900,0 5840,0 750,-90 1720,-780 1770,-1310 700,-9340 390,-14660 -1110,-16450z"/>
   <path class="fil1 str23" d="M182310 99330c-720,3930 -250,8730 760,11950"/>
   <polygon class="fil7 str22" points="180970,101530 179280,106180 176600,107020 175490,96690 178170,93080 "/>
   <path class="fil6" d="M176820 98360c-2680,4160 -5360,8320 -8030,12480 90,2700 400,5000 920,6930 2130,0 4260,0 6390,0 820,-90 1880,-850 1930,-1430 760,-10200 430,-16020 -1210,-17980z"/>
   <path class="fil1 str24" d="M175900 104530c-770,4290 -260,9540 840,13060"/>
   <polygon class="fil8 str25" points="173300,109710 171660,110300 170930,119970 172600,119910 "/>
   <rect class="fil3 str26" x="170470" y="119620" width="2600" height="1310" rx="150" ry="150"/>
   <path class="fil3 str27" d="M156470 111090c-9490,-7060 -18980,-14120 -28470,-21170 1450,-1780 3000,-3470 5070,-4740 3220,-5750 5800,-10930 9390,-13650 1440,-1200 15920,-1600 32490,-760 1570,80 3280,960 3670,1990 4310,8990 4840,13140 6070,18430 590,2360 800,6090 -90,10200 -30,-1890 -590,-5900 -750,-4830 -220,1450 -750,3350 -1010,4820 -180,990 -370,1960 -600,2870 -910,630 -2050,1310 -2960,1930 -450,-11660 -1950,-14750 -2460,-7820 -200,4560 -1230,7970 -2750,10740 -1150,1690 -9440,2580 -17600,1990z"/>
   <path class="fil9" d="M171210 92280c730,-2740 2910,-5390 3370,-7790 -100,-640 -200,-1280 -300,-1920 -500,-3030 -1010,-6060 -1510,-9080 1390,-990 2850,-1720 4500,-1850 340,200 630,210 1350,1120 3590,7490 4580,12030 6070,18430 520,1110 530,7590 -90,10200 -30,-2830 -800,-6100 -920,-5330 -260,1700 -520,3550 -840,5320 -180,990 -370,1960 -600,2870 -910,630 -2050,1310 -2960,1930 -450,-11660 -1950,-14750 -2460,-7820 -200,4560 -1230,7970 -2750,10740 -820,1210 -5020,1730 -6400,1870 4250,-2770 6190,-8010 6380,-15630 20,-730 -2570,-2310 -2840,-3060z"/>
   <path class="fil1 str27" d="M156470 111090c-9490,-7060 -18980,-14120 -28470,-21170 1450,-1780 3000,-3470 5070,-4740 3220,-5750 5800,-10930 9390,-13650 1440,-1200 15920,-1600 32490,-760 1570,80 3280,960 3670,1990 4310,8990 4840,13140 6070,18430 590,2360 800,6090 -90,10200 -30,-1890 -590,-5900 -750,-4830 -220,1450 -750,3350 -1010,4820 -180,990 -370,1960 -600,2870 -910,630 -2050,1310 -2960,1930 -450,-11660 -1950,-14750 -2460,-7820 -200,4560 -1230,7970 -2750,10740 -1150,1690 -9440,2580 -17600,1990z"/>
   <path class="fil6" d="M153810 103240c-220,-530 -440,-1060 -660,-1580 3410,30 6820,60 10220,90 590,10 -1040,1430 -1100,1490 -150,100 -580,140 -930,140 -2510,-40 -5020,-90 -7530,-140z"/>
   <g>
    <path class="fil10" d="M164530 103940l-760 -540 20 -20 20 -40 30 -30 20 -30 30 -30 30 -30 20 -30 30 -30 20 -30 30 -40 20 -30 30 -30 20 -30 30 -30 20 -30 30 -30 20 -40 30 -30 30 -30 20 -30 30 -30 20 -30 30 -30 20 -30 30 -40 20 -30 30 -30 20 -30 30 -30 30 -30 20 -30 30 -40 20 -30 720 590 -20 30 -30 30 -20 30 -30 30 -20 40 -30 30 -20 30 -30 30 -20 30 -30 30 -30 30 -20 40 -30 30 -20 30 -30 30 -20 30 -30 30 -20 30 -30 30 -20 40 -30 30 -30 30 -20 30 -30 30 -20 30 -30 30 -20 40 -30 30 -20 30 -30 30 -20 30 -30 30 20 -20zm-760 -540l10 -10 10 -10 -20 20zm780 240l-20 930 50 0 -50 0 -60 0 -50 0 -60 0 -50 0 -50 -10 -50 -10 -60 -10 -50 -20 -50 -20 -50 -20 -50 -30 -50 -30 -50 -40 -50 -40 -40 -50 -40 -50 -30 -60 -30 -60 -20 -60 -20 -60 -10 -60 0 -70 0 -60 10 -60 10 -60 20 -50 20 -50 20 -50 20 -50 30 -50 30 -40 760 540 0 0 0 0 0 0 0 -10 0 0 10 -10 0 -20 0 -20 0 -20 0 -20 0 -20 -10 -30 -10 -20 -10 -30 -10 -20 -20 -20 -10 -20 -20 -10 -10 -10 -10 -10 -10 -10 -10 0 0 0 -10 0 10 0 0 0 10 0 10 0 10 0 20 0 20 0 20 0 50 0zm-50 0l30 0 20 0 -50 0zm4370 120l-20 930 0 0 -140 -10 -130 0 -140 0 -130 -10 -140 0 -130 0 -140 -10 -130 0 -140 -10 -130 0 -140 0 -130 -10 -140 0 -130 0 -140 -10 -130 0 -140 0 -130 -10 -140 0 -130 -10 -140 0 -130 0 -140 -10 -130 0 -140 0 -130 -10 -140 0 -130 0 -140 -10 -130 0 -140 -10 -130 0 20 -930 140 0 130 10 140 0 130 0 140 10 130 0 140 10 130 0 140 0 130 10 140 0 130 0 140 10 130 0 140 0 130 10 140 0 130 10 140 0 130 0 140 10 130 0 140 0 130 10 140 0 130 0 140 10 130 0 140 10 130 0 140 0 130 10 0 0zm-20 930l0 0 0 0 0 0zm-920 -1970l150 -920 10 0 260 60 250 60 230 60 210 80 200 80 180 80 170 90 150 90 140 100 120 110 120 110 90 120 90 130 60 140 50 140 20 150 10 140 -20 150 -40 140 -50 130 -80 120 -80 110 -100 100 -110 90 -110 70 -130 70 -130 50 -140 40 -140 40 -150 20 -150 10 -160 10 20 -930 90 -10 90 0 80 -20 80 -10 60 -20 60 -30 50 -20 40 -30 30 -20 20 -30 20 -20 10 -20 0 -10 10 -10 0 -10 0 -10 0 -10 -10 -20 -20 -30 -20 -40 -40 -50 -50 -50 -60 -50 -90 -60 -100 -60 -110 -70 -140 -60 -150 -60 -170 -60 -190 -50 -210 -60 -240 -40 20 0zm150 -920l0 0 10 0 -10 0zm-2760 1160l-720 -590 10 0 60 -70 70 -70 70 -60 70 -60 80 -50 80 -50 90 -50 80 -40 90 -40 100 -40 90 -30 100 -30 100 -20 100 -20 100 -20 110 -20 110 -10 110 -10 120 -10 110 0 120 -10 130 0 120 10 130 0 130 10 130 10 140 10 140 20 140 10 150 20 150 30 150 20 -150 920 -140 -20 -140 -20 -130 -20 -130 -20 -130 -10 -120 -10 -120 -10 -120 -10 -110 0 -100 0 -110 0 -100 0 -90 0 -100 10 -80 10 -90 10 -80 10 -70 10 -70 20 -70 10 -60 20 -60 20 -60 20 -50 20 -50 30 -40 20 -40 20 -40 30 -30 30 -30 20 -30 30 -20 30 0 -10zm-720 -590l10 0 0 0 -10 0z"/>
   </g>
   <path class="fil6" d="M159920 93380c440,30 510,560 450,1380 -3650,-150 -7270,-120 -10840,-290 -470,-550 -890,-1020 -1360,-1570 3910,160 7830,320 11750,480z"/>
   <path class="fil6" d="M160020 95640c-300,610 -430,850 -800,1070 -2830,40 -5650,30 -8450,-30 -240,-470 -490,-930 -730,-1390 3560,0 6770,170 9800,60 120,0 260,120 180,290z"/>
   <path class="fil6" d="M151880 98930c-220,-450 -440,-910 -660,-1360 2540,50 5060,10 7590,-60 110,0 240,190 160,280 -510,500 -1000,800 -2040,950 -1650,130 -3340,180 -5050,190z"/>
   <path class="fil11 str28" d="M171410 97940c-3530,-40 -7060,-80 -10590,-120 3150,-3690 6960,-5350 11280,-5620 2670,-20 2790,5960 -690,5740z"/>
   <path class="fil11 str28" d="M141700 73090c-320,40 -450,80 -580,230 -2040,3330 -4080,6650 -6130,9980 -230,420 -130,720 350,750 12420,-580 25120,-610 38010,-260 660,-40 980,-540 930,-1220 -380,-2850 -760,-5700 -1140,-8550 -90,-410 -510,-720 -990,-760 -10250,-490 -20430,-690 -30450,-170z"/>
   <path class="fil1 str29" d="M171210 92280c520,-2800 3160,-5310 3370,-7790 200,-830 5260,-1650 7890,-2480"/>
   <polyline class="fil1 str22" points="177360,124290 189730,109880 193000,108010 "/>
   <polygon class="fil7" points="127600,155710 141260,164820 146340,140390 134440,136300 "/>
   <polygon class="fil7 str30" points="162180,122490 158170,128660 162720,138380 163900,129630 "/>
   <path class="fil6 str31" d="M39910 178200c-9670,-3750 -19350,-7500 -29020,-11250 -380,11360 1000,20810 10180,21810 1420,120 8730,290 9670,0 3980,-1660 7010,-5240 9170,-10560z"/>
   <path class="fil6 str32" d="M133660 144110c-5760,10660 -11530,21320 -17290,31980 -370,6970 730,13030 3220,18240 3810,860 7920,1380 12340,1620 1400,80 1430,-200 2420,-1280 5670,-6160 5950,-16740 6360,-25040 400,-8080 -140,-21640 -3820,-24590 -930,-470 -2030,-760 -3230,-930z"/>
   <path class="fil6 str33" d="M152530 151700c-170,3500 460,5380 1090,7490 1930,160 3960,170 6090,60 3460,-1680 3580,-8890 3360,-16360 -220,-7120 -1220,-14150 -2540,-15580 -2520,7960 -5480,16430 -8000,24390z"/>
   <path class="fil12 str34" d="M162420 142690c-20,-3700 -980,-10590 -2020,-10620 -960,-70 -650,7360 -730,11040 -20,3700 300,10690 1210,10680 1050,70 1610,-7320 1540,-11100z"/>
   <path class="fil1 str31" d="M22450 174970c1090,8360 3700,13310 8290,13790"/>
   <path class="fil1 str32" d="M137840 146130c-5020,940 -8900,43420 -3490,48540"/>
   <path class="fil1 str33" d="M157940 145300c-300,5360 480,9860 1770,13950"/>
   <path class="fil3 str35" d="M44210 116670c-2700,2100 -5410,4210 -8110,6320 -8850,2400 -16410,5550 -20880,10500 -5980,7580 -7010,15400 -6930,28390 1440,7780 6570,12560 14680,14920 28060,6110 56640,6960 85330,6680 10190,-750 16620,-4770 19330,-12050 3790,-12470 6550,-20880 8830,-25290 4550,-8300 6650,-920 4300,19210 6010,-6270 11810,-12630 17180,-19220 1400,-7480 2520,-19610 3400,-22020 1660,-3250 2490,4290 2180,13650 1670,-5880 590,-11660 -520,-16900 -890,-3910 -1790,-4370 -2430,-5510 -1030,-1470 -2310,-2740 -3820,-3820 -1770,-6180 -4190,-12250 -7040,-17420 -1510,-2520 -4090,-4320 -9070,-4500 -36370,-1820 -64870,-2520 -69840,920 -8590,4870 -18200,16190 -26590,26140z"/>
   <path class="fil13" d="M108300 183480c10190,-750 16620,-4770 19330,-12050 3790,-12470 6550,-20880 8830,-25290 4550,-8300 6650,-920 4300,19210 6010,-6270 11810,-12630 17180,-19220 1400,-7480 2520,-19610 3400,-22020 1660,-3250 2490,4290 2180,13650 1670,-5880 590,-11660 -520,-16900 -890,-3910 -1790,-4370 -2430,-5510 -1030,-1470 -2310,-2740 -3820,-3820 -1770,-6180 -4190,-12250 -7040,-17420 -1510,-2520 -4090,-4320 -9070,-4500 -1050,160 -6240,4030 -6530,4850 -50,7490 -90,14980 -140,22470 -390,600 -780,1200 -1170,1800 2080,3070 -3850,12640 -9980,22380 5790,15270 4060,39050 -14520,42370z"/>
   <path class="fil1 str36" d="M160710 115580c-8740,5780 -21780,14360 -34450,28570"/>
   <path class="fil14 str37" d="M67780 93810c-7260,6440 -13580,13570 -19330,21120 -490,700 40,960 1250,1020 26880,480 55000,1640 82120,3070 1350,-220 2070,-910 2150,-2090 660,-7200 240,-14500 900,-21700 -10,-700 -1000,-930 -2420,-1050 -20660,-2240 -39660,-2990 -61120,-1730 -1270,150 -2820,700 -3550,1360z"/>
   <path class="fil15 str37" d="M138710 108940c-790,-8570 -480,-15070 3340,-15040 2480,6530 4710,13120 6630,19810 -2490,1370 -4980,2750 -7460,4120 -840,-2960 -1670,-5930 -2510,-8890z"/>
   <path class="fil12 str38" d="M147420 94140c-1480,-570 -2930,-630 -4350,-480 2470,5900 4840,11900 6920,18200 1170,-440 2350,-870 3520,-1310 -1660,-5650 -3630,-11160 -6090,-16410z"/>
   <path class="fil6 str39" d="M31900 152440c-4310,-900 -3230,-6990 -2320,-14500 21120,1760 42290,2810 63480,3460 -5390,9460 -8400,14130 -11990,14260 -17230,290 -33600,-810 -49170,-3220z"/>
   <path class="fil1 str37" d="M152180 120350c1860,7360 1800,12790 1270,21270 -140,2150 -1980,3570 -1310,5660 500,1090 1040,1160 1550,3920"/>
   <path class="fil11 str40" d="M10710 142550c1010,-2590 2020,-5180 3670,-7210 540,-630 1120,-800 1730,-600 2320,460 10550,7560 9490,12280 -80,430 -800,920 -1320,810 -4080,-660 -9500,-2300 -13150,-3510 -570,-310 -580,-910 -420,-1770z"/>
   <path class="fil11 str37" d="M95890 149400c2900,-6770 17240,-9270 26310,-8410 2410,430 3740,880 4060,3160 -120,5800 60,6770 -2560,6990 -9030,870 -17810,890 -26440,410 -1980,-150 -2130,-420 -1370,-2150z"/>
   <path class="fil6 str41" d="M27070 158020c-2500,-200 -1130,2120 -740,3530 1120,3230 1560,2910 3190,3370 14650,1660 42230,3840 57660,4850 2420,100 4130,-1500 4900,-2570 730,-1050 4530,-4610 -430,-4630 -16970,200 -47590,-2290 -64580,-4550z"/>
   <path class="fil3 str42" d="M91320 143110c-21560,-560 -42160,-1670 -61400,-3580 30,1000 50,2000 80,3000 18270,2060 38200,3210 59410,3680 630,-1030 1270,-2060 1910,-3100z"/>
   <path class="fil3 str42" d="M88570 147590c-19680,-620 -39400,-1800 -58520,-3850 140,1020 190,2030 330,3050 18390,2040 37410,3090 56280,3540 640,-910 1270,-1830 1910,-2740z"/>
   <path class="fil3 str42" d="M85830 151530c-18590,-70 -37050,-980 -55320,-3350 70,1330 510,2220 960,2810 16560,2950 33380,4080 50420,3700 1720,-330 2910,-1600 3940,-3160z"/>
   <path class="fil1 str37" d="M17490 135360c6680,-6090 9300,-6190 18610,-12370"/>
   <path class="fil1 str37" d="M132800 118730c1930,3750 -2020,9170 -9980,22380"/>
   <path class="fil1 str37" d="M125370 150640c4840,-160 7790,350 9420,-780"/>
   <path class="fil12 str43" d="M135270 186780c1140,30 3080,-5750 3850,-15640 250,-10770 -480,-17470 -2410,-17180 -1490,200 -2770,8730 -3250,17060 -650,9090 520,15590 1810,15760z"/>
   <path class="fil7 str44" d="M138910 116440c520,1430 1030,2870 1550,4300 5140,100 10210,-150 15280,-600 540,-50 1100,-860 1100,-1430 -30,-1590 -60,-3180 -90,-4770 -90,-1940 -1460,-3530 -2620,-3640 -2620,-190 -5240,-380 -7850,-570 -1730,-110 -3470,1810 -4950,6000 -730,-20 -1460,-40 -2180,-60 -320,20 -390,450 -240,770z"/>
   <path class="fil1 str45" d="M25360 147420c840,880 4040,4270 7200,4680"/>
   <path class="fil1 str45" d="M81070 155660c5710,20 10120,-3160 15410,-4190"/>
   <path class="fil11 str46" d="M101090 165130c-1630,60 -3140,1640 -4590,3960 -400,650 -270,900 760,1050 3380,380 6780,640 10250,400 2660,-320 4460,-1420 1730,-3600 -1740,-1150 -4650,-1650 -8150,-1810z"/>
   <path class="fil11 str47" d="M23140 159820c370,1150 570,1770 940,2920 220,610 -20,1170 -780,1090 -2890,-340 -7180,-1310 -8230,-1860 -2970,-1670 -570,-3010 2950,-3650 830,-160 2160,-130 3340,30 890,120 1540,870 1780,1470z"/>
   <path class="fil1 str36" d="M175240 72100c2300,7100 6120,20780 5520,33120"/>
   <path class="fil1 str36" d="M172770 73490c1080,-930 2550,-1630 4790,-1890"/>
   <path class="fil1 str36" d="M48640 115790c-7190,6640 -17310,14370 -20410,20690 -1320,3520 -830,9230 380,13850"/>
   <path class="fil1 str36" d="M85910 154960c9980,-5560 8720,-21100 46890,-36230"/>
   <path class="fil6" d="M140760 165350c5850,-5710 11900,-12270 17130,-18650 120,-770 240,-1540 360,-2310 -5500,6220 -11280,11680 -17460,17900 -20,760 -10,2290 -30,3060z"/>
   <path class="fil6" d="M140790 143860c6340,-5440 14830,-12640 20230,-17990 160,-1010 300,-1530 840,-2450 -6080,5660 -15700,13790 -22450,19380 600,60 1130,420 1380,1060z"/>
   <path class="fil1 str36" d="M174090 83400c1780,3210 3180,7640 3600,12100"/>
   <path class="fil1 str48" d="M183880 96900c-380,-4460 -2520,-16940 -4020,-21520"/>
   <path class="fil1 str49" d="M44550 116640c-2710,2110 -5410,4220 -8120,6330 -8850,2400 -16410,5550 -20880,10500 -5980,7570 -7010,15390 -6920,28390 1430,7780 6560,12550 14670,14920 28060,6100 56640,6960 85330,6680 10190,-750 16620,-4780 19330,-12050 3790,-12470 6550,-20880 8830,-25290 4550,-8310 6650,-930 4300,19200 6010,-6260 11810,-12630 17190,-19210 1390,-7480 2510,-19620 3390,-22030 1660,-3240 2490,4300 2180,13650 1670,-5870 600,-11650 -520,-16890 -890,-3910 -1790,-4380 -2430,-5510 -1030,-1480 -2310,-2740 -3820,-3820 -1770,-6180 -4190,-12260 -7040,-17420 -1510,-2520 -4090,-4330 -9070,-4510 -36370,-1810 -64870,-2510 -69840,930 -8590,4870 -18200,16180 -26580,26130z"/>
  </g>
 </g>
</svg>
