<?xml version="1.0" encoding="UTF-8"?>
<!DOCTYPE svg PUBLIC "-//W3C//DTD SVG 1.1//EN" "http://www.w3.org/Graphics/SVG/1.1/DTD/svg11.dtd">
<!-- Creator: CorelDRAW 2020 (64-Bit) -->
<svg xmlns="http://www.w3.org/2000/svg" xml:space="preserve" width="370px" height="499px" version="1.1" style="shape-rendering:geometricPrecision; text-rendering:geometricPrecision; image-rendering:optimizeQuality; fill-rule:evenodd; clip-rule:evenodd"
viewBox="0 0 471340 636500"
 xmlns:xlink="http://www.w3.org/1999/xlink"
 xmlns:xodm="http://www.corel.com/coreldraw/odm/2003">
 <defs>
  <style type="text/css">
   <![CDATA[
    .str3 {stroke:#414D54;stroke-width:1520;stroke-miterlimit:2.61313}
    .str1 {stroke:#B3B3B3;stroke-width:270;stroke-miterlimit:2.61313}
    .str22 {stroke:#414D54;stroke-width:1790;stroke-miterlimit:2.61313}
    .str34 {stroke:#414D54;stroke-width:1790;stroke-miterlimit:2.61313}
    .str14 {stroke:#414D54;stroke-width:1790;stroke-miterlimit:2.61313}
    .str10 {stroke:#414D54;stroke-width:1790;stroke-miterlimit:2.61313}
    .str26 {stroke:#414D54;stroke-width:1790;stroke-miterlimit:2.61313}
    .str18 {stroke:#414D54;stroke-width:1790;stroke-miterlimit:2.61313}
    .str30 {stroke:#414D54;stroke-width:1790;stroke-miterlimit:2.61313}
    .str25 {stroke:#414D54;stroke-width:1800;stroke-miterlimit:2.61313}
    .str33 {stroke:#414D54;stroke-width:1800;stroke-miterlimit:2.61313}
    .str21 {stroke:#414D54;stroke-width:1800;stroke-miterlimit:2.61313}
    .str29 {stroke:#414D54;stroke-width:1800;stroke-miterlimit:2.61313}
    .str13 {stroke:#414D54;stroke-width:1800;stroke-miterlimit:2.61313}
    .str9 {stroke:#414D54;stroke-width:1800;stroke-miterlimit:2.61313}
    .str17 {stroke:#414D54;stroke-width:1800;stroke-miterlimit:2.61313}
    .str12 {stroke:#414D54;stroke-width:1800;stroke-miterlimit:2.61313}
    .str32 {stroke:#414D54;stroke-width:1800;stroke-miterlimit:2.61313}
    .str8 {stroke:#414D54;stroke-width:1800;stroke-miterlimit:2.61313}
    .str24 {stroke:#414D54;stroke-width:1800;stroke-miterlimit:2.61313}
    .str28 {stroke:#414D54;stroke-width:1800;stroke-miterlimit:2.61313}
    .str16 {stroke:#414D54;stroke-width:1800;stroke-miterlimit:2.61313}
    .str20 {stroke:#414D54;stroke-width:1800;stroke-miterlimit:2.61313}
    .str38 {stroke:#414D54;stroke-width:2090;stroke-miterlimit:2.61313}
    .str7 {stroke:#414D54;stroke-width:2090;stroke-miterlimit:2.61313}
    .str36 {stroke:#414D54;stroke-width:2090;stroke-miterlimit:2.61313}
    .str5 {stroke:#414D54;stroke-width:2090;stroke-miterlimit:2.61313}
    .str39 {stroke:#414D54;stroke-width:2090;stroke-miterlimit:2.61313}
    .str6 {stroke:#414D54;stroke-width:2090;stroke-miterlimit:2.61313}
    .str40 {stroke:#414D54;stroke-width:2090;stroke-miterlimit:2.61313}
    .str37 {stroke:#414D54;stroke-width:2090;stroke-miterlimit:2.61313}
    .str2 {stroke:#414D54;stroke-width:2090;stroke-miterlimit:2.61313}
    .str4 {stroke:#414D54;stroke-width:2090;stroke-miterlimit:2.61313}
    .str35 {stroke:#3E7DFF;stroke-width:2090;stroke-miterlimit:2.61313}
    .str23 {stroke:#3E7DFF;stroke-width:2090;stroke-miterlimit:2.61313}
    .str31 {stroke:#3E7DFF;stroke-width:2090;stroke-miterlimit:2.61313}
    .str27 {stroke:#3E7DFF;stroke-width:2090;stroke-miterlimit:2.61313}
    .str11 {stroke:#3E7DFF;stroke-width:2090;stroke-miterlimit:2.61313}
    .str19 {stroke:#3E7DFF;stroke-width:2090;stroke-miterlimit:2.61313}
    .str15 {stroke:#3E7DFF;stroke-width:2090;stroke-miterlimit:2.61313}
    .str41 {stroke:#253138;stroke-width:2390;stroke-miterlimit:2.61313}
    .str0 {stroke:white;stroke-width:20940;stroke-linecap:round;stroke-linejoin:round;stroke-miterlimit:2.61313}
    .fil1 {fill:none}
    .fil5 {fill:#414D54}
    .fil8 {fill:#999999}
    .fil2 {fill:#B3B3B3}
    .fil0 {fill:#CEDAED}
    .fil6 {fill:#E6E6E6}
    .fil3 {fill:#F6F6F6}
    .fil4 {fill:white}
    .fil7 {fill:#414D54;fill-rule:nonzero}
   ]]>
  </style>
     <mask id="id0">
  <linearGradient id="id1" gradientUnits="userSpaceOnUse" x1="0" y1="0" x2="0" y2="139870">
   <stop offset="0" style="stop-opacity:0; stop-color:white"/>
   <stop offset="1" style="stop-opacity:1; stop-color:white"/>
  </linearGradient>
      <rect style="fill:url(#id1)" x="-320" y="-320" width="471980" height="140510"/>
     </mask>
     <mask id="id2">
  <linearGradient id="id3" gradientUnits="userSpaceOnUse" x1="0" y1="636500" x2="0" y2="496630">
   <stop offset="0" style="stop-opacity:0; stop-color:white"/>
   <stop offset="1" style="stop-opacity:1; stop-color:white"/>
  </linearGradient>
      <rect style="fill:url(#id3)" x="-320" y="496310" width="471980" height="140510"/>
     </mask>
    <clipPath id="id4">
     <path d="M219700 198840l155240 0 0 155250 -155240 0 0 -155250z"/>
    </clipPath>
    <clipPath id="id5">
     <path d="M313090 274300l-167740 0 0 111120 167740 0 0 -111120z"/>
    </clipPath>
    <clipPath id="id6">
     <path d="M68440 414220l154640 0 0 -115370 -154640 0 0 115370z"/>
    </clipPath>
    <clipPath id="id7">
     <path d="M145350 446130l154650 0 0 -89190 -154650 0 0 89190z"/>
    </clipPath>
    <clipPath id="id8">
     <path d="M68440 414220l-39250 -8260 0 -111210 39250 4100 0 115370z"/>
    </clipPath>
    <clipPath id="id9">
     <path d="M145350 356940l154650 0 -5860 -6790 -142820 0 -5970 6790z"/>
    </clipPath>
 </defs>
 <g id="Layer_x0020_1">
  <metadata id="CorelCorpID_0Corel-Layer"/>
  <g id="_2232795816592">
   <g>
    <rect class="fil0" y="139870" width="471340" height="356760"/>
    <polygon class="fil0" style="mask:url(#id0)" points="0,139870 471340,139870 471340,0 0,0 "/>
    <polygon class="fil0" style="mask:url(#id2)" points="0,636500 471340,636500 471340,496630 0,496630 "/>
   </g>
   <polygon class="fil1 str0" points="201870,181020 392770,181020 422200,190440 422200,310100 441950,310100 441950,410950 402270,419130 402270,419130 313090,419130 313090,455950 230450,455950 230450,446130 145350,446130 145350,414220 68440,414220 68440,414220 29190,405960 29190,294750 145350,297200 145350,274300 201870,274300 "/>
   <path class="fil2 str1" d="M230450 480610c-121740,0 -220420,-27270 -220420,-60920 0,-33650 98680,-60930 220420,-60930 121730,0 220410,27280 220410,60930 0,33650 -98680,60920 -220410,60920z"/>
   <rect class="fil3 str2" x="201870" y="181020" width="190900" height="190900"/>
   <polygon class="fil4" points="219700,198840 374940,198840 374940,354090 219700,354090 "/>
   <g style="clip-path:url(#id4)">
    <g>
     <g>
      <rect class="fil5 str3" transform="matrix(0.430647 -0.430647 0.430647 0.430647 196741 194268)" width="42690" height="424430"/>
      <rect class="fil5 str3" transform="matrix(0.430647 0.430647 -0.430647 0.430647 379521 175884)" width="42690" height="424430"/>
     </g>
    </g>
   </g>
   <polygon class="fil1 str4" points="219700,198840 374940,198840 374940,354090 219700,354090 "/>
   <g>
    <polygon class="fil6" points="392770,181020 422200,190440 422200,381340 392770,371920 "/>
    <path id="1" class="fil7" d="M421870 191420l-29430 -9430 660 -1940 29430 9420 720 970 -1380 980zm660 -1950l720 240 0 730 -720 -970zm-1380 191870l0 -190890 2100 -10 0 190900 -1380 970 -720 -970zm2100 0l0 1410 -1380 -440 1380 -970zm-30150 -10400l29430 9430 -660 1940 -29430 -9420 -720 -970 1380 -980zm-660 1950l-720 -240 0 -730 720 970zm1380 -191870l0 190890 -2100 10 0 -190900 1380 -970 720 970zm-2100 0l0 -1410 1380 440 -1380 970z"/>
   </g>
   <polygon class="fil3" points="313090,274300 145350,274300 145350,385420 313090,385420 "/>
   <g style="clip-path:url(#id5)">
    <g id="_2232795766096">
     <rect class="fil8" x="245960" y="274300" width="13210" height="19260"/>
    </g>
   </g>
   <polygon class="fil1 str5" points="313090,274300 145350,274300 145350,385420 313090,385420 "/>
   <polygon class="fil6" points="68440,414220 223080,414220 223080,298850 68440,298850 "/>
   <g style="clip-path:url(#id6)">
    <g id="_2232795765376">
     <rect class="fil8" x="138010" y="298850" width="15520" height="21270"/>
    </g>
   </g>
   <polygon class="fil1 str6" points="68440,414220 223080,414220 223080,298850 68440,298850 "/>
   <g>
    <polygon class="fil3" points="402270,312760 209990,312760 209990,419130 402270,419130 "/>
    <path id="1" class="fil7" d="M209990 311710l192280 0 0 2100 -192280 0 -1050 -1050 1050 -1050zm-1050 1050l0 -1050 1050 0 -1050 1050zm0 106370l0 -106370 2100 0 0 106370 -1050 1050 -1050 -1050zm1050 1050l-1050 0 0 -1050 1050 1050zm192280 0l-192280 0 0 -2100 192280 0 1050 1050 -1050 1050zm1050 -1050l0 1050 -1050 0 1050 -1050zm0 -106370l0 106370 -2090 0 0 -106370 1040 -1050 1050 1050zm-1050 -1050l1050 0 0 1050 -1050 -1050z"/>
   </g>
   <polygon class="fil3" points="145350,446130 300000,446130 300000,356940 145350,356940 "/>
   <g style="clip-path:url(#id7)">
    <g>
     <rect class="fil8" x="215290" y="356940" width="15160" height="22090"/>
    </g>
   </g>
   <polygon class="fil1 str7" points="145350,446130 300000,446130 300000,356940 145350,356940 "/>
   <rect class="fil1 str8" x="152710" y="422400" width="16360" height="16360"/>
   <rect class="fil1 str9" x="75800" y="388860" width="18000" height="18000"/>
   <rect class="fil1 str10" x="360340" y="395400" width="15550" height="15550"/>
   <rect class="fil4 str11" x="277450" y="437130" width="13910" height="13910"/>
   <rect class="fil1 str12" x="171530" y="422400" width="16360" height="16360"/>
   <rect class="fil1 str13" x="96500" y="388860" width="18000" height="18000"/>
   <rect class="fil1 str14" x="378220" y="395400" width="15550" height="15550"/>
   <rect class="fil4 str15" x="293450" y="437130" width="13910" height="13910"/>
   <line class="fil1 str16" x1="157620" y1="436310" x2="164170" y2= "436310" />
   <line class="fil1 str17" x1="81200" y1="404160" x2="88400" y2= "404160" />
   <line class="fil1 str18" x1="365000" y1="408620" x2="371220" y2= "408620" />
   <line class="fil1 str19" x1="281630" y1="448950" x2="287190" y2= "448950" />
   <line class="fil1 str16" x1="159260" y1="434680" x2="159260" y2= "426490" />
   <line class="fil1 str17" x1="83000" y1="402360" x2="83000" y2= "393360" />
   <line class="fil1 str18" x1="366560" y1="407060" x2="366560" y2= "399290" />
   <line class="fil1 str19" x1="283020" y1="447560" x2="283020" y2= "440610" />
   <line class="fil1 str20" x1="162540" y1="434680" x2="162540" y2= "426490" />
   <line class="fil1 str21" x1="86600" y1="402360" x2="86600" y2= "393360" />
   <line class="fil1 str22" x1="369670" y1="407060" x2="369670" y2= "399290" />
   <line class="fil1 str23" x1="285800" y1="447560" x2="285800" y2= "440610" />
   <line class="fil1 str24" x1="177260" y1="436310" x2="181350" y2= "436310" />
   <line class="fil1 str25" x1="102800" y1="404160" x2="107300" y2= "404160" />
   <line class="fil1 str26" x1="383660" y1="408620" x2="387540" y2= "408620" />
   <line class="fil1 str27" x1="298320" y1="448950" x2="301800" y2= "448950" />
   <line class="fil1 str28" x1="179310" y1="429770" x2="179310" y2= "436310" />
   <line class="fil1 str29" x1="105050" y1="396960" x2="105050" y2= "404160" />
   <line class="fil1 str30" x1="385600" y1="402400" x2="385600" y2= "408620" />
   <line class="fil1 str31" x1="300060" y1="443390" x2="300060" y2= "448950" />
   <path class="fil1 str32" d="M177260 425680l4090 0 0 4910c0,400 -1040,1120 -2040,1120 -1040,10 -2050,-710 -2050,-1120l0 -4910z"/>
   <path class="fil1 str33" d="M102800 392460l4500 0 0 5400c0,440 -1140,1230 -2250,1230 -1140,10 -2250,-780 -2250,-1230l0 -5400z"/>
   <path class="fil1 str34" d="M383660 398510l3880 0 0 4660c0,390 -980,1070 -1940,1070 -980,10 -1940,-670 -1940,-1070l0 -4660z"/>
   <path class="fil4 str35" d="M298320 439910l3480 0 0 4180c0,340 -890,950 -1740,950 -880,10 -1740,-600 -1740,-950l0 -4180z"/>
   <rect class="fil3 str36" x="230450" y="397860" width="82640" height="58090"/>
   <polygon class="fil4" points="68440,414220 29190,405960 29190,294750 68440,298850 "/>
   <g style="clip-path:url(#id8)">
    <g>
     <rect class="fil8" transform="matrix(2.68352 0.353871 -0 2.68352 45038.2 296402)" width="2470" height="7960"/>
    </g>
   </g>
   <polygon class="fil1 str6" points="68440,414220 29190,405960 29190,294750 68440,298850 "/>
   <polygon class="fil4 str37" points="68440,298850 223080,298850 29190,294750 "/>
   <polygon class="fil4" points="145350,356940 300000,356940 294140,350150 151320,350150 "/>
   <g style="clip-path:url(#id9)">
    <g>
     <polygon id="1" class="fil8" points="215290,356940 230450,356940 228900,350150 216250,350150 "/>
    </g>
   </g>
   <polygon class="fil1 str38" points="145350,356940 300000,356940 294140,350150 151320,350150 "/>
   <polygon class="fil4 str39" points="313090,397860 230450,397860 234390,388400 308080,388400 "/>
   <polygon class="fil6 str40" points="402270,312760 441950,310100 441950,410950 402270,419130 "/>
   <polygon class="fil4 str37" points="402270,312760 441950,310100 223080,310100 209990,312760 "/>
   <polygon class="fil1 str41" points="201870,181020 392770,181020 422200,190440 422200,310100 441950,310100 441950,410950 402270,419130 402270,419130 313090,419130 313090,455950 230450,455950 230450,446130 145350,446130 145350,414220 68440,414220 68440,414220 29190,405960 29190,294750 145350,297200 145350,274300 201870,274300 "/>
  </g>
 </g>
</svg>
